<svg width="120" height="749" viewBox="0 0 120 749" fill="none" xmlns="http://www.w3.org/2000/svg">
    <path opacity="0.04" d="M81.08 5.85875L81.792 3.98977L81.779 3.98481L81.7659 3.98003L81.08 5.85875ZM99.32 16.8987L100.643 15.3991L99.32 16.8987ZM112.28 34.4988L110.464 35.3369L110.469 35.3483L110.475 35.3597L112.28 34.4988ZM110.36 85.2187L108.643 84.1933L110.36 85.2187ZM92.44 102.339L90.7928 103.473L91.7849 104.914L93.3447 104.122L92.44 102.339ZM80.76 85.3788L79.9393 83.5549L77.7531 84.5387L79.1128 86.5131L80.76 85.3788ZM90.84 77.8587L89.273 76.616L90.84 77.8587ZM96.12 67.7788L94.206 67.1987L94.2036 67.2066L94.2013 67.2144L96.12 67.7788ZM94.36 42.9787L96.1209 42.0305L96.1158 42.0209L96.1105 42.0114L94.36 42.9787ZM85.56 32.7388L86.7749 31.15L85.56 32.7388ZM73.4 26.4987L73.9914 24.5882L73.9705 24.5817L73.9494 24.5757L73.4 26.4987ZM41.08 28.7387L40.2252 26.9306L40.2188 26.9336L40.2124 26.9367L41.08 28.7387ZM27 40.4187L28.6205 41.591L27 40.4187ZM23.32 68.4187L25.228 67.8191L25.2255 67.8111L25.2229 67.8031L23.32 68.4187ZM28.92 78.6587L30.4608 77.3836L30.4608 77.3836L28.92 78.6587ZM38.84 85.8587L40.5736 86.856L41.7023 84.8939L39.6161 84.0155L38.84 85.8587ZM28.44 103.939L27.6732 105.786L29.297 106.46L30.1736 104.936L28.44 103.939ZM14.04 92.8988L12.4522 94.1149L12.4603 94.1254L12.4685 94.1359L14.04 92.8988ZM5.08 75.9387L3.17628 76.5518L3.18097 76.5664L3.18586 76.5808L5.08 75.9387ZM7 34.9787L5.22276 34.0615L5.21396 34.0785L5.20549 34.0957L7 34.9787ZM20.44 17.6987L19.1291 16.1883L19.1219 16.1945L19.1149 16.2008L20.44 17.6987ZM39.32 6.17874L38.6115 4.30843L38.5943 4.31495L38.5772 4.32179L39.32 6.17874ZM60.6 4.17875C67.2919 4.17875 73.8868 5.36177 80.3941 7.73746L81.7659 3.98003C74.8332 1.44905 67.7747 0.178746 60.6 0.178746L60.6 4.17875ZM80.368 7.72772C86.8617 10.2015 92.7351 13.7558 97.9968 18.3984L100.643 15.3991C95.0249 10.4417 88.7383 6.63597 81.792 3.98977L80.368 7.72772ZM97.9968 18.3984C103.217 23.0049 107.374 28.6424 110.464 35.3369L114.096 33.6606C110.786 26.4885 106.303 20.3926 100.643 15.3991L97.9968 18.3984ZM110.475 35.3597C113.635 41.986 115.24 49.5779 115.24 58.1788L119.24 58.1788C119.24 49.0729 117.538 40.8782 114.085 33.6378L110.475 35.3597ZM115.24 58.1788C115.24 68.2218 113.017 76.8691 108.643 84.1933L112.077 86.2442C116.876 78.2084 119.24 68.8291 119.24 58.1788L115.24 58.1788ZM108.643 84.1933C104.233 91.5772 98.53 97.007 91.5352 100.555L93.3447 104.122C101.07 100.204 107.314 94.2203 112.077 86.2442L108.643 84.1933ZM94.0872 101.204L82.4072 84.2444L79.1128 86.5131L90.7928 103.473L94.0872 101.204ZM81.5807 87.2026C86.0853 85.1755 89.7213 82.4879 92.407 79.1015L89.273 76.616C87.052 79.4163 83.9681 81.742 79.9393 83.5549L81.5807 87.2026ZM92.407 79.1015C95.0129 75.8159 96.8963 72.2273 98.0387 68.3431L94.2013 67.2144C93.2104 70.5835 91.5738 73.715 89.273 76.616L92.407 79.1015ZM98.034 68.3588C99.1514 64.6716 99.72 61.0626 99.72 57.5387L95.72 57.5387C95.72 60.6282 95.222 63.8459 94.206 67.1987L98.034 68.3588ZM99.72 57.5387C99.72 51.7188 98.5431 46.5289 96.1209 42.0305L92.5991 43.9269C94.6569 47.7486 95.72 52.2654 95.72 57.5387L99.72 57.5387ZM96.1105 42.0114C93.7388 37.7197 90.6243 34.0937 86.7749 31.15L84.3451 34.3275C87.749 36.9305 90.5012 40.1311 92.6095 43.9461L96.1105 42.0114ZM86.7749 31.15C82.9559 28.2296 78.6903 26.0426 73.9914 24.5882L72.8086 28.4093C77.0697 29.7282 80.9108 31.7012 84.3451 34.3275L86.7749 31.15ZM73.9494 24.5757C69.2979 23.2467 64.6332 22.5787 59.96 22.5787L59.96 26.5787C64.2468 26.5787 68.5421 27.1908 72.8506 28.4218L73.9494 24.5757ZM59.96 22.5787C52.9552 22.5787 46.3688 24.0264 40.2252 26.9306L41.9348 30.5469C47.5246 27.9044 53.5248 26.5787 59.96 26.5787L59.96 22.5787ZM40.2124 26.9367C34.1633 29.8492 29.2076 33.9549 25.3795 39.2465L28.6205 41.591C32.0458 36.856 36.4767 33.1749 41.9476 30.5408L40.2124 26.9367ZM25.3795 39.2465C21.4888 44.625 19.56 50.8551 19.56 57.8587L23.56 57.8587C23.56 51.6357 25.2579 46.2392 28.6205 41.591L25.3795 39.2465ZM19.56 57.8587C19.56 61.5039 20.1869 65.2318 21.4171 69.0344L25.2229 67.8031C24.1065 64.3524 23.56 61.0402 23.56 57.8587L19.56 57.8587ZM21.412 69.0184C22.6649 73.005 24.6587 76.6466 27.3792 79.9339L30.4608 77.3836C28.0613 74.4843 26.3217 71.2992 25.228 67.8191L21.412 69.0184ZM27.3792 79.9339C30.1637 83.2985 33.7425 85.8825 38.0639 87.702L39.6161 84.0155C35.8308 82.4217 32.7963 80.2057 30.4608 77.3836L27.3792 79.9339ZM37.1063 84.8615L26.7064 102.942L30.1736 104.936L40.5736 86.856L37.1063 84.8615ZM29.2068 102.092C23.8831 99.8817 19.3558 96.418 15.6115 91.6616L12.4685 94.1359C16.6175 99.4062 21.6903 103.302 27.6732 105.786L29.2068 102.092ZM15.6278 91.6826C11.9273 86.8515 9.04104 81.3941 6.97413 75.2967L3.18586 76.5808C5.38562 83.0701 8.47265 88.9193 12.4522 94.1149L15.6278 91.6826ZM6.98372 75.3257C5.01646 69.2168 4.03999 63.1835 4.03999 57.2187L0.0399907 57.2187C0.0399904 63.6274 1.09021 70.074 3.17628 76.5518L6.98372 75.3257ZM4.03999 57.2187C4.03999 49.3926 5.63394 42.2849 8.79451 35.8618L5.20549 34.0957C1.75271 41.1126 0.039991 48.8316 0.0399907 57.2187L4.03999 57.2187ZM8.77724 35.896C12.0777 29.5014 16.4047 23.9386 21.7652 19.1967L19.1149 16.2008C13.3819 21.2722 8.74899 27.2294 5.22276 34.0615L8.77724 35.896ZM21.7509 19.2092C27.236 14.4486 33.3374 10.7259 40.0628 8.0357L38.5772 4.32179C31.436 7.1783 24.9507 11.1356 19.1291 16.1883L21.7509 19.2092ZM40.0285 8.04906C46.8543 5.46351 53.7081 4.17875 60.6 4.17875L60.6 0.178746C53.1985 0.178746 45.8657 1.56065 38.6115 4.30843L40.0285 8.04906ZM6.99999 143.1L5.19424 142.24L5.18908 142.251L6.99999 143.1ZM19.96 125.66L18.6512 124.148L18.6357 124.161L18.6205 124.175L19.96 125.66ZM38.52 114.46L37.802 112.593L37.7923 112.597L38.52 114.46ZM81.4 114.62L80.6472 116.473L80.6572 116.477L81.4 114.62ZM99.8 126.3L98.4302 127.757L98.4374 127.764L98.4446 127.771L99.8 126.3ZM112.6 143.9L110.783 144.736L110.789 144.749L112.6 143.9ZM112.44 188.7L110.645 187.817L110.64 187.828L112.44 188.7ZM99.16 206.14L97.8512 204.628L97.843 204.635L97.8348 204.642L99.16 206.14ZM80.44 217.34L79.7472 215.464L79.7297 215.47L79.7123 215.477L80.44 217.34ZM37.88 217.18L37.1272 219.033L37.1372 219.037L37.88 217.18ZM19.48 205.5L20.8353 204.029L20.8341 204.028L19.48 205.5ZM6.83999 187.9L8.66173 187.075L8.65676 187.064L6.83999 187.9ZM41.24 136.7L40.4277 134.872L40.4137 134.879L40.3998 134.885L41.24 136.7ZM27.16 148.06L25.5516 146.871L25.5456 146.879L25.5395 146.888L27.16 148.06ZM27.32 184.06L25.7283 185.271L27.32 184.06ZM41.72 195.26L40.9201 197.093L40.9201 197.093L41.72 195.26ZM78.36 195.1L77.5197 193.285L78.36 195.1ZM92.28 183.58L90.6716 182.391L90.6572 182.411L90.6432 182.431L92.28 183.58ZM92.12 147.9L93.7117 146.689L93.7117 146.689L92.12 147.9ZM77.72 136.7L76.9077 138.528L76.9201 138.533L77.72 136.7ZM4.19999 165.82C4.19999 157.763 5.74784 150.483 8.81091 143.949L5.18908 142.251C1.85215 149.37 0.19999 157.237 0.19999 165.82L4.19999 165.82ZM8.80572 143.96C11.8947 137.473 16.0576 131.873 21.2995 127.145L18.6205 124.175C12.9824 129.26 8.50527 135.287 5.19427 142.24L8.80572 143.96ZM21.2687 127.172C26.6433 122.521 32.6335 118.907 39.2477 116.323L37.7923 112.597C30.7532 115.347 24.3701 119.199 18.6512 124.148L21.2687 127.172ZM39.238 116.327C45.9478 113.746 52.7981 112.46 59.8 112.46L59.8 108.46C52.2952 108.46 44.9588 109.841 37.802 112.593L39.238 116.327ZM59.8 112.46C67.1226 112.46 74.0664 113.799 80.6472 116.473L82.1528 112.767C75.0803 109.894 67.6241 108.46 59.8 108.46L59.8 112.46ZM80.6572 116.477C87.3632 119.159 93.2828 122.919 98.4302 127.757L101.17 124.843C95.6506 119.655 89.3035 115.627 82.1428 112.763L80.6572 116.477ZM98.4446 127.771C103.69 132.605 107.8 138.256 110.783 144.736L114.417 143.064C111.213 136.104 106.79 130.022 101.155 124.829L98.4446 127.771ZM110.789 144.749C113.855 151.29 115.4 158.464 115.4 166.3L119.4 166.3C119.4 157.922 117.745 150.163 114.411 143.051L110.789 144.749ZM115.4 166.3C115.4 174.237 113.804 181.397 110.645 187.817L114.235 189.583C117.689 182.563 119.4 174.789 119.4 166.3L115.4 166.3ZM110.64 187.828C107.448 194.419 103.185 200.012 97.8512 204.628L100.469 207.652C106.228 202.668 110.819 196.635 114.24 189.572L110.64 187.828ZM97.8348 204.642C92.4734 209.385 86.4477 212.99 79.7472 215.464L81.1327 219.216C88.2989 216.57 94.7533 212.708 100.485 207.638L97.8348 204.642ZM79.7123 215.477C73.1115 218.056 66.3713 219.34 59.48 219.34L59.48 223.34C66.882 223.34 74.1151 221.958 81.1677 219.203L79.7123 215.477ZM59.48 219.34C52.2678 219.34 45.3199 218.002 38.6228 215.323L37.1372 219.037C44.3068 221.905 51.7589 223.34 59.48 223.34L59.48 219.34ZM38.6327 215.327C32.0291 212.644 26.0997 208.881 20.8353 204.029L18.1246 206.971C23.7402 212.146 30.0775 216.169 37.1272 219.033L38.6327 215.327ZM20.8341 204.028C15.7053 199.31 11.648 193.665 8.6617 187.075L5.01829 188.725C8.21862 195.788 12.5881 201.877 18.1259 206.972L20.8341 204.028ZM8.65676 187.064C5.69373 180.627 4.19999 173.555 4.19999 165.82L0.19999 165.82C0.199989 174.085 1.79958 181.733 5.02323 188.736L8.65676 187.064ZM59.8 130.86C52.9209 130.86 46.456 132.193 40.4277 134.872L42.0523 138.528C47.544 136.087 53.4524 134.86 59.8 134.86L59.8 130.86ZM40.3998 134.885C34.348 137.687 29.3859 141.684 25.5516 146.871L28.7683 149.249C32.1874 144.623 36.612 141.047 42.0802 138.515L40.3998 134.885ZM25.5395 146.888C21.6368 152.283 19.72 158.679 19.72 165.98L23.72 165.98C23.72 159.415 25.4299 153.864 28.7804 149.232L25.5395 146.888ZM19.72 165.98C19.72 173.492 21.6893 179.963 25.7283 185.271L28.9116 182.849C25.484 178.344 23.72 172.762 23.72 165.98L19.72 165.98ZM25.7283 185.271C29.6763 190.46 34.7532 194.402 40.9201 197.093L42.5199 193.427C36.9534 190.998 32.4304 187.474 28.9116 182.849L25.7283 185.271ZM40.9201 197.093C47.0301 199.759 53.3285 201.1 59.8 201.1L59.8 197.1C53.8982 197.1 48.1432 195.881 42.5199 193.427L40.9201 197.093ZM59.8 201.1C66.6911 201.1 73.1658 199.709 79.2002 196.915L77.5197 193.285C72.0342 195.825 66.1356 197.1 59.8 197.1L59.8 201.1ZM79.2002 196.915C85.2677 194.106 90.187 190.041 93.9168 184.729L90.6432 182.431C87.333 187.145 82.9723 190.761 77.5197 193.285L79.2002 196.915ZM93.8884 184.769C97.7994 179.477 99.72 173.181 99.72 165.98L95.72 165.98C95.72 172.432 94.014 177.869 90.6716 182.391L93.8884 184.769ZM99.72 165.98C99.72 158.468 97.7507 151.997 93.7117 146.689L90.5283 149.111C93.956 153.616 95.72 159.198 95.72 165.98L99.72 165.98ZM93.7117 146.689C89.7637 141.5 84.6868 137.558 78.5199 134.867L76.9201 138.533C82.4865 140.962 87.0096 144.486 90.5283 149.111L93.7117 146.689ZM78.5323 134.872C72.5215 132.201 66.2719 130.86 59.8 130.86L59.8 134.86C65.7014 134.86 71.3985 136.079 76.9077 138.528L78.5323 134.872ZM75.96 260.358L77.2035 261.924L81.696 258.358L75.96 258.358L75.96 260.358ZM2.99999 260.358L0.999988 260.358L0.999988 262.358L2.99999 262.358L2.99999 260.358ZM2.99999 238.277L2.99999 236.277L0.99999 236.277L0.999989 238.277L2.99999 238.277ZM116.6 238.277L118.6 238.277L118.6 236.277L116.6 236.277L116.6 238.277ZM116.6 255.878L117.834 257.451L118.6 256.851L118.6 255.878L116.6 255.878ZM41.72 314.597L40.4858 313.024L35.9285 316.597L41.72 316.597L41.72 314.597ZM116.44 314.598L118.44 314.598L118.44 312.598L116.44 312.598L116.44 314.598ZM116.44 336.677L116.44 338.677L118.44 338.677L118.44 336.677L116.44 336.677ZM2.99999 336.677L0.999985 336.677L0.999985 338.677L2.99999 338.677L2.99999 336.677ZM2.99999 318.277L1.75647 316.711L0.999986 317.312L0.999986 318.277L2.99999 318.277ZM75.96 258.358L2.99999 258.358L2.99999 262.358L75.96 262.358L75.96 258.358ZM4.99999 260.358L4.99999 238.277L0.999989 238.277L0.999988 260.358L4.99999 260.358ZM2.99999 240.277L116.6 240.277L116.6 236.277L2.99999 236.277L2.99999 240.277ZM114.6 238.277L114.6 255.878L118.6 255.878L118.6 238.277L114.6 238.277ZM115.366 254.304L40.4858 313.024L42.9541 316.171L117.834 257.451L115.366 254.304ZM41.72 316.597L116.44 316.598L116.44 312.598L41.72 312.597L41.72 316.597ZM114.44 314.598L114.44 336.677L118.44 336.677L118.44 314.598L114.44 314.598ZM116.44 334.677L2.99999 334.677L2.99999 338.677L116.44 338.677L116.44 334.677ZM4.99999 336.677L4.99999 318.277L0.999986 318.277L0.999985 336.677L4.99999 336.677ZM4.2435 319.844L77.2035 261.924L74.7165 258.791L1.75647 316.711L4.2435 319.844ZM97.24 445.269L95.24 445.269L95.24 447.269L97.24 447.269L97.24 445.269ZM97.24 408.949L99.24 408.949L99.24 406.949L97.24 406.949L97.24 408.949ZM2.99998 408.949L0.999982 408.949L0.999982 410.949L2.99998 410.949L2.99998 408.949ZM2.99998 387.029L2.99998 385.029L0.999983 385.029L0.999983 387.029L2.99998 387.029ZM97.24 387.029L97.24 389.029L99.24 389.029L99.24 387.029L97.24 387.029ZM97.24 350.709L97.24 348.709L95.24 348.709L95.24 350.709L97.24 350.709ZM116.6 350.709L118.6 350.709L118.6 348.709L116.6 348.709L116.6 350.709ZM116.6 445.269L116.6 447.269L118.6 447.269L118.6 445.269L116.6 445.269ZM99.24 445.269L99.24 408.949L95.24 408.949L95.24 445.269L99.24 445.269ZM97.24 406.949L2.99998 406.949L2.99998 410.949L97.24 410.949L97.24 406.949ZM4.99998 408.949L4.99998 387.029L0.999983 387.029L0.999982 408.949L4.99998 408.949ZM2.99998 389.029L97.24 389.029L97.24 385.029L2.99998 385.029L2.99998 389.029ZM99.24 387.029L99.24 350.709L95.24 350.709L95.24 387.029L99.24 387.029ZM97.24 352.709L116.6 352.709L116.6 348.709L97.24 348.709L97.24 352.709ZM114.6 350.709L114.6 445.269L118.6 445.269L118.6 350.709L114.6 350.709ZM116.6 443.269L97.24 443.269L97.24 447.269L116.6 447.269L116.6 443.269ZM116.6 479.626L118.6 479.626L118.6 478.232L117.292 477.75L116.6 479.626ZM116.6 502.026L117.29 503.903L118.6 503.422L118.6 502.026L116.6 502.026ZM2.99998 543.786L0.999976 543.786L0.999976 546.652L3.69004 545.663L2.99998 543.786ZM2.99998 521.066L2.30122 519.192L0.999977 519.677L0.999977 521.066L2.99998 521.066ZM31.32 510.506L32.0187 512.38L33.32 511.895L33.32 510.506L31.32 510.506ZM31.32 470.826L33.32 470.826L33.32 469.43L32.0094 468.949L31.32 470.826ZM2.99998 460.426L0.99998 460.426L0.99998 461.822L2.31054 462.304L2.99998 460.426ZM2.99998 437.706L3.69236 435.83L0.999981 434.836L0.999981 437.706L2.99998 437.706ZM46.84 506.506L44.84 506.506L44.84 509.284L47.4744 508.403L46.84 506.506ZM93.72 490.826L94.3544 492.723L99.912 490.864L94.3775 488.937L93.72 490.826ZM46.84 474.506L47.4975 472.617L44.84 471.692L44.84 474.506L46.84 474.506ZM114.6 479.626L114.6 502.026L118.6 502.026L118.6 479.626L114.6 479.626ZM115.91 500.149L2.30991 541.909L3.69004 545.663L117.29 503.903L115.91 500.149ZM4.99998 543.786L4.99998 521.066L0.999977 521.066L0.999976 543.786L4.99998 543.786ZM3.69874 522.94L32.0187 512.38L30.6212 508.632L2.30122 519.192L3.69874 522.94ZM33.32 510.506L33.32 470.826L29.32 470.826L29.32 510.506L33.32 510.506ZM32.0094 468.949L3.68942 458.549L2.31054 462.304L30.6305 472.704L32.0094 468.949ZM4.99998 460.426L4.99998 437.706L0.999981 437.706L0.99998 460.426L4.99998 460.426ZM2.3076 439.583L115.908 481.503L117.292 477.75L3.69236 435.83L2.3076 439.583ZM47.4744 508.403L94.3544 492.723L93.0856 488.93L46.2056 504.61L47.4744 508.403ZM94.3775 488.937L47.4975 472.617L46.1824 476.395L93.0624 492.715L94.3775 488.937ZM44.84 474.506L44.84 506.506L48.84 506.506L48.84 474.506L44.84 474.506ZM81.08 548.671L81.792 546.802L81.779 546.797L81.7659 546.793L81.08 548.671ZM99.32 559.711L100.643 558.212L99.32 559.711ZM112.28 577.311L110.464 578.149L110.469 578.161L110.475 578.172L112.28 577.311ZM110.36 628.031L108.643 627.006L110.36 628.031ZM92.44 645.151L90.7928 646.286L91.7849 647.726L93.3447 646.935L92.44 645.151ZM80.76 628.191L79.9393 626.367L77.753 627.351L79.1128 629.326L80.76 628.191ZM90.84 620.671L89.273 619.428L90.84 620.671ZM96.12 610.591L94.2059 610.011L94.2036 610.019L94.2012 610.027L96.12 610.591ZM94.36 585.791L96.1209 584.843L96.1157 584.833L96.1105 584.824L94.36 585.791ZM85.56 575.551L86.7749 573.963L85.56 575.551ZM73.4 569.311L73.9913 567.401L73.9704 567.394L73.9494 567.388L73.4 569.311ZM41.08 571.551L40.2252 569.743L40.2188 569.746L40.2123 569.749L41.08 571.551ZM27 583.231L28.6204 584.403L27 583.231ZM23.32 611.231L25.228 610.632L25.2255 610.624L25.2229 610.616L23.32 611.231ZM28.92 621.471L30.4608 620.196L30.4608 620.196L28.92 621.471ZM38.84 628.671L40.5736 629.668L41.7023 627.706L39.6161 626.828L38.84 628.671ZM28.44 646.751L27.6732 648.598L29.297 649.272L30.1736 647.748L28.44 646.751ZM14.04 635.711L12.4522 636.927L12.4603 636.938L12.4685 636.948L14.04 635.711ZM5.07997 618.751L3.17626 619.364L3.18094 619.379L3.18584 619.393L5.07997 618.751ZM6.99997 577.791L5.22274 576.874L5.21393 576.891L5.20546 576.908L6.99997 577.791ZM20.44 560.511L19.129 559.001L19.1219 559.007L19.1148 559.013L20.44 560.511ZM39.32 548.991L38.6115 547.121L38.5943 547.127L38.5772 547.134L39.32 548.991ZM60.6 546.991C67.2919 546.991 73.8868 548.174 80.3941 550.55L81.7659 546.793C74.8332 544.262 67.7747 542.991 60.6 542.991L60.6 546.991ZM80.368 550.54C86.8617 553.014 92.735 556.568 97.9967 561.211L100.643 558.212C95.0249 553.254 88.7382 549.448 81.792 546.802L80.368 550.54ZM97.9967 561.211C103.217 565.817 107.374 571.455 110.464 578.149L114.096 576.473C110.786 569.301 106.303 563.205 100.643 558.212L97.9967 561.211ZM110.475 578.172C113.635 584.798 115.24 592.39 115.24 600.991L119.24 600.991C119.24 591.885 117.538 583.691 114.085 576.45L110.475 578.172ZM115.24 600.991C115.24 611.034 113.017 619.682 108.643 627.006L112.077 629.057C116.876 621.021 119.24 611.642 119.24 600.991L115.24 600.991ZM108.643 627.006C104.233 634.39 98.53 639.82 91.5352 643.368L93.3447 646.935C101.07 643.016 107.314 637.033 112.077 629.057L108.643 627.006ZM94.0871 644.017L82.4072 627.057L79.1128 629.326L90.7928 646.286L94.0871 644.017ZM81.5807 630.015C86.0852 627.988 89.7213 625.3 92.407 621.914L89.273 619.428C87.052 622.229 83.968 624.554 79.9393 626.367L81.5807 630.015ZM92.407 621.914C95.0129 618.628 96.8963 615.04 98.0387 611.156L94.2012 610.027C93.2103 613.396 91.5738 616.527 89.273 619.428L92.407 621.914ZM98.034 611.171C99.1514 607.484 99.72 603.875 99.72 600.351L95.72 600.351C95.72 603.441 95.2219 606.658 94.2059 610.011L98.034 611.171ZM99.72 600.351C99.72 594.531 98.5431 589.341 96.1209 584.843L92.599 586.739C94.6569 590.561 95.72 595.078 95.72 600.351L99.72 600.351ZM96.1105 584.824C93.7388 580.532 90.6243 576.906 86.7749 573.963L84.3451 577.14C87.749 579.743 90.5012 582.944 92.6095 586.759L96.1105 584.824ZM86.7749 573.963C82.9559 571.042 78.6903 568.855 73.9913 567.401L72.8086 571.222C77.0697 572.541 80.9108 574.514 84.3451 577.14L86.7749 573.963ZM73.9494 567.388C69.2979 566.059 64.6331 565.391 59.96 565.391L59.96 569.391C64.2468 569.391 68.542 570.003 72.8505 571.234L73.9494 567.388ZM59.96 565.391C52.9552 565.391 46.3687 566.839 40.2252 569.743L41.9347 573.359C47.5246 570.717 53.5248 569.391 59.96 569.391L59.96 565.391ZM40.2123 569.749C34.1633 572.662 29.2075 576.767 25.3795 582.059L28.6204 584.403C32.0458 579.668 36.4766 575.987 41.9476 573.353L40.2123 569.749ZM25.3795 582.059C21.4887 587.437 19.56 593.668 19.56 600.671L23.56 600.671C23.56 594.448 25.2579 589.052 28.6204 584.403L25.3795 582.059ZM19.56 600.671C19.56 604.316 20.1868 608.044 21.4171 611.847L25.2229 610.616C24.1064 607.165 23.56 603.853 23.56 600.671L19.56 600.671ZM21.412 611.831C22.6649 615.817 24.6586 619.459 27.3792 622.746L30.4608 620.196C28.0613 617.297 26.3217 614.112 25.228 610.632L21.412 611.831ZM27.3792 622.746C30.1637 626.111 33.7425 628.695 38.0639 630.515L39.6161 626.828C35.8308 625.234 32.7963 623.018 30.4608 620.196L27.3792 622.746ZM37.1063 627.674L26.7063 645.754L30.1736 647.748L40.5736 629.668L37.1063 627.674ZM29.2067 644.904C23.883 642.694 19.3558 639.23 15.6115 634.474L12.4685 636.948C16.6175 642.219 21.6902 646.115 27.6732 648.598L29.2067 644.904ZM15.6277 634.495C11.9273 629.664 9.04102 624.207 6.97411 618.109L3.18584 619.393C5.38559 625.883 8.47263 631.732 12.4522 636.927L15.6277 634.495ZM6.98369 618.138C5.01644 612.029 4.03997 605.996 4.03997 600.031L0.0399669 600.031C0.0399666 606.44 1.09018 612.886 3.17626 619.364L6.98369 618.138ZM4.03997 600.031C4.03997 592.205 5.63392 585.097 8.79448 578.674L5.20546 576.908C1.75269 583.925 0.0399673 591.644 0.0399669 600.031L4.03997 600.031ZM8.77721 578.709C12.0776 572.314 16.4047 566.751 21.7651 562.009L19.1148 559.013C13.3819 564.085 8.74897 570.042 5.22274 576.874L8.77721 578.709ZM21.7509 562.022C27.236 557.261 33.3374 553.538 40.0628 550.848L38.5772 547.134C31.4359 549.991 24.9506 553.948 19.129 559.001L21.7509 562.022ZM40.0284 550.862C46.8543 548.276 53.7081 546.991 60.6 546.991L60.6 542.991C53.1985 542.991 45.8657 544.373 38.6115 547.121L40.0284 550.862ZM97.24 746.519L95.24 746.519L95.24 748.519L97.24 748.519L97.24 746.519ZM97.24 710.199L99.24 710.199L99.24 708.199L97.24 708.199L97.24 710.199ZM2.99997 710.199L0.999969 710.199L0.999969 712.199L2.99997 712.199L2.99997 710.199ZM2.99997 688.279L2.99997 686.279L0.99997 686.279L0.99997 688.279L2.99997 688.279ZM97.24 688.279L97.24 690.279L99.24 690.279L99.24 688.279L97.24 688.279ZM97.24 651.959L97.24 649.959L95.24 649.959L95.24 651.959L97.24 651.959ZM116.6 651.959L118.6 651.959L118.6 649.959L116.6 649.959L116.6 651.959ZM116.6 746.519L116.6 748.519L118.6 748.519L118.6 746.519L116.6 746.519ZM99.24 746.519L99.24 710.199L95.24 710.199L95.24 746.519L99.24 746.519ZM97.24 708.199L2.99997 708.199L2.99997 712.199L97.24 712.199L97.24 708.199ZM4.99997 710.199L4.99997 688.279L0.99997 688.279L0.999969 710.199L4.99997 710.199ZM2.99997 690.279L97.24 690.279L97.24 686.279L2.99997 686.279L2.99997 690.279ZM99.24 688.279L99.24 651.959L95.24 651.959L95.24 688.279L99.24 688.279ZM97.24 653.959L116.6 653.959L116.6 649.959L97.24 649.959L97.24 653.959ZM114.6 651.959L114.6 746.519L118.6 746.519L118.6 651.959L114.6 651.959ZM116.6 744.519L97.24 744.519L97.24 748.519L116.6 748.519L116.6 744.519Z" fill="white" />
</svg>
