<svg width="120" height="766" viewBox="0 0 120 766" fill="none" xmlns="http://www.w3.org/2000/svg">
<path opacity="0.04" d="M3 94.7925L3 92.7925L0.999996 92.7925L0.999995 94.7925L3 94.7925ZM77.56 94.7925L77.56 96.7925L78.489 93.0213L77.56 94.7925ZM22.04 65.6725L20.04 65.6725L20.04 66.8819L21.111 67.4437L22.04 65.6725ZM22.04 53.3525L21.111 51.5813L20.04 52.1431L20.04 53.3525L22.04 53.3525ZM77.56 24.2325L78.489 26.0037L77.56 22.2325L77.56 24.2325ZM3 24.2325L0.999999 24.2325L0.999998 26.2325L3 26.2325L3 24.2325ZM3 2.15249L3 0.152493L1 0.152493L0.999999 2.15249L3 2.15249ZM116.6 2.1525L118.6 2.1525L118.6 0.152498L116.6 0.152498L116.6 2.1525ZM116.6 25.8325L117.522 27.6071L118.6 27.047L118.6 25.8325L116.6 25.8325ZM51.96 59.4325L51.0376 57.6579L47.6398 59.4241L51.0307 61.2035L51.96 59.4325ZM116.6 93.3525L118.6 93.3525L118.6 92.1434L117.529 91.5815L116.6 93.3525ZM116.6 116.872L116.6 118.872L118.6 118.872L118.6 116.872L116.6 116.872ZM2.99999 116.872L0.999994 116.872L0.999994 118.872L2.99999 118.872L2.99999 116.872ZM3 96.7925L77.56 96.7925L77.56 92.7925L3 92.7925L3 96.7925ZM78.489 93.0213L22.969 63.9013L21.111 67.4437L76.631 96.5637L78.489 93.0213ZM24.04 65.6725L24.04 53.3525L20.04 53.3525L20.04 65.6725L24.04 65.6725ZM22.969 55.1237L78.489 26.0037L76.631 22.4613L21.111 51.5813L22.969 55.1237ZM77.56 22.2325L3 22.2325L3 26.2325L77.56 26.2325L77.56 22.2325ZM5 24.2325L5 2.15249L0.999999 2.15249L0.999999 24.2325L5 24.2325ZM3 4.15249L116.6 4.1525L116.6 0.152498L3 0.152493L3 4.15249ZM114.6 2.1525L114.6 25.8325L118.6 25.8325L118.6 2.1525L114.6 2.1525ZM115.678 24.0579L51.0376 57.6579L52.8824 61.2071L117.522 27.6071L115.678 24.0579ZM51.0307 61.2035L115.671 95.1235L117.529 91.5815L52.8893 57.6615L51.0307 61.2035ZM114.6 93.3525L114.6 116.872L118.6 116.872L118.6 93.3525L114.6 93.3525ZM116.6 114.872L2.99999 114.872L2.99999 118.872L116.6 118.872L116.6 114.872ZM4.99999 116.872L5 94.7925L0.999995 94.7925L0.999994 116.872L4.99999 116.872ZM116.6 153.39L117.528 155.162L118.6 154.6L118.6 153.39L116.6 153.39ZM63.16 181.39L62.2318 179.618L58.8793 181.375L62.2194 183.155L63.16 181.39ZM116.6 209.87L118.6 209.87L118.6 208.67L117.541 208.105L116.6 209.87ZM116.6 233.71L115.625 235.456L118.6 237.118L118.6 233.71L116.6 233.71ZM42.68 192.43L43.6551 190.684L43.2006 190.43L42.68 190.43L42.68 192.43ZM2.99999 192.43L0.999991 192.43L0.999991 194.43L2.99999 194.43L2.99999 192.43ZM2.99999 170.51L2.99999 168.51L0.999992 168.51L0.999992 170.51L2.99999 170.51ZM43 170.51L43 172.51L43.5208 172.51L43.9755 172.256L43 170.51ZM116.6 129.39L118.6 129.39L118.6 125.982L115.625 127.644L116.6 129.39ZM115.672 151.618L62.2318 179.618L64.0882 183.162L117.528 155.162L115.672 151.618ZM62.2194 183.155L115.659 211.635L117.541 208.105L64.1006 179.625L62.2194 183.155ZM114.6 209.87L114.6 233.71L118.6 233.71L118.6 209.87L114.6 209.87ZM117.575 231.964L43.6551 190.684L41.7049 194.176L115.625 235.456L117.575 231.964ZM42.68 190.43L2.99999 190.43L2.99999 194.43L42.68 194.43L42.68 190.43ZM4.99999 192.43L4.99999 170.51L0.999992 170.51L0.999991 192.43L4.99999 192.43ZM2.99999 172.51L43 172.51L43 168.51L2.99999 168.51L2.99999 172.51ZM43.9755 172.256L117.575 131.136L115.625 127.644L42.0245 168.764L43.9755 172.256ZM114.6 129.39L114.6 153.39L118.6 153.39L118.6 129.39L114.6 129.39ZM116.28 311.97L118.28 311.97L118.28 309.085L115.578 310.097L116.28 311.97ZM116.28 332.45L116.932 334.341L118.28 333.876L118.28 332.45L116.28 332.45ZM78.68 345.41L78.0283 343.519L72.5761 345.398L78.0211 347.298L78.68 345.41ZM116.28 358.53L118.28 358.53L118.28 357.11L116.939 356.642L116.28 358.53ZM116.28 378.85L115.573 380.721L118.28 381.743L118.28 378.85L116.28 378.85ZM64.6 359.33L65.3067 357.459L64.5809 357.185L63.86 357.472L64.6 359.33ZM28.44 373.73L27.7 371.872L22.8285 373.812L27.7546 375.609L28.44 373.73ZM116.6 405.89L118.6 405.89L118.6 404.491L117.285 404.011L116.6 405.89ZM116.6 429.89L115.857 431.747L118.6 432.844L118.6 429.89L116.6 429.89ZM2.99998 384.45L0.999983 384.45L0.999983 385.804L2.2572 386.307L2.99998 384.45ZM2.99998 365.41L2.22636 363.566L0.999984 364.08L0.999984 365.41L2.99998 365.41ZM50.68 345.41L51.4536 347.254L55.8681 345.403L51.4483 343.563L50.68 345.41ZM2.99999 325.57L0.999985 325.57L0.999985 326.904L2.23163 327.417L2.99999 325.57ZM2.99999 306.53L2.25946 304.672L0.999986 305.174L0.999986 306.53L2.99999 306.53ZM116.6 261.25L118.6 261.25L118.6 258.3L115.859 259.392L116.6 261.25ZM116.6 284.93L117.288 286.808L118.6 286.327L118.6 284.93L116.6 284.93ZM28.44 317.25L27.7516 315.372L22.7832 317.194L27.7143 319.114L28.44 317.25ZM64.6 331.33L63.8743 333.194L64.5862 333.471L65.3016 333.203L64.6 331.33ZM114.28 311.97L114.28 332.45L118.28 332.45L118.28 311.97L114.28 311.97ZM115.628 330.559L78.0283 343.519L79.3317 347.301L116.932 334.341L115.628 330.559ZM78.0211 347.298L115.621 360.418L116.939 356.642L79.3389 343.522L78.0211 347.298ZM114.28 358.53L114.28 378.85L118.28 378.85L118.28 358.53L114.28 358.53ZM116.987 376.979L65.3067 357.459L63.8933 361.201L115.573 380.721L116.987 376.979ZM63.86 357.472L27.7 371.872L29.1799 375.588L65.3399 361.188L63.86 357.472ZM27.7546 375.609L115.915 407.769L117.285 404.011L29.1254 371.851L27.7546 375.609ZM114.6 405.89L114.6 429.89L118.6 429.89L118.6 405.89L114.6 405.89ZM117.343 428.033L3.74276 382.593L2.2572 386.307L115.857 431.747L117.343 428.033ZM4.99998 384.45L4.99998 365.41L0.999984 365.41L0.999983 384.45L4.99998 384.45ZM3.77361 367.254L51.4536 347.254L49.9064 343.566L2.22636 363.566L3.77361 367.254ZM51.4483 343.563L3.76834 323.723L2.23163 327.417L49.9116 347.257L51.4483 343.563ZM4.99999 325.57L4.99999 306.53L0.999986 306.53L0.999985 325.57L4.99999 325.57ZM3.74051 308.388L117.341 263.108L115.859 259.392L2.25946 304.672L3.74051 308.388ZM114.6 261.25L114.6 284.93L118.6 284.93L118.6 261.25L114.6 261.25ZM115.912 283.052L27.7516 315.372L29.1284 319.128L117.288 286.808L115.912 283.052ZM27.7143 319.114L63.8743 333.194L65.3257 329.466L29.1657 315.386L27.7143 319.114ZM65.3016 333.203L116.982 313.843L115.578 310.097L63.8984 329.457L65.3016 333.203ZM6.99998 462.912L5.19422 462.053L5.18906 462.064L6.99998 462.912ZM19.96 445.472L18.6512 443.96L18.6357 443.974L18.6204 443.987L19.96 445.472ZM38.52 434.272L37.802 432.406L37.7923 432.41L38.52 434.272ZM81.4 434.432L80.6472 436.285L80.6572 436.289L81.4 434.432ZM99.8 446.112L98.4302 447.57L98.4374 447.577L98.4446 447.583L99.8 446.112ZM112.6 463.712L110.783 464.549L110.789 464.561L112.6 463.712ZM112.44 508.513L110.645 507.629L110.64 507.641L112.44 508.513ZM99.16 525.952L97.8512 524.44L97.843 524.447L97.8348 524.455L99.16 525.952ZM80.44 537.153L79.7472 535.276L79.7297 535.283L79.7123 535.29L80.44 537.153ZM37.88 536.992L37.1272 538.845L37.1372 538.849L37.88 536.992ZM19.48 525.312L20.8353 523.842L20.8341 523.841L19.48 525.312ZM6.83998 507.713L8.66172 506.887L8.65674 506.876L6.83998 507.713ZM41.24 456.512L40.4277 454.685L40.4137 454.691L40.3997 454.698L41.24 456.512ZM27.16 467.872L25.5516 466.684L25.5455 466.692L25.5395 466.7L27.16 467.872ZM27.32 503.872L25.7283 505.084L25.7283 505.084L27.32 503.872ZM41.72 515.073L40.9201 516.906L40.9201 516.906L41.72 515.073ZM78.36 514.912L77.5197 513.098L77.5197 513.098L78.36 514.912ZM92.28 503.393L90.6716 502.204L90.6572 502.223L90.6432 502.243L92.28 503.393ZM92.12 467.712L93.7116 466.501L93.7116 466.501L92.12 467.712ZM77.72 456.512L76.9077 458.34L76.9201 458.346L77.72 456.512ZM4.19998 485.632C4.19998 477.575 5.74782 470.296 8.8109 463.761L5.18906 462.064C1.85213 469.182 0.199979 477.05 0.199978 485.632L4.19998 485.632ZM8.8057 463.772C11.8947 457.285 16.0576 451.686 21.2995 446.958L18.6204 443.987C12.9824 449.073 8.50527 455.1 5.19426 462.053L8.8057 463.772ZM21.2687 446.985C26.6433 442.334 32.6334 438.719 39.2477 436.135L37.7923 432.41C30.7532 435.159 24.37 439.011 18.6512 443.96L21.2687 446.985ZM39.2379 436.139C45.9478 433.558 52.7981 432.272 59.8 432.272L59.8 428.272C52.2952 428.272 44.9588 429.653 37.802 432.406L39.2379 436.139ZM59.8 432.272C67.1226 432.272 74.0663 433.612 80.6472 436.285L82.1527 432.58C75.0803 429.706 67.624 428.272 59.8 428.272L59.8 432.272ZM80.6572 436.289C87.3632 438.972 93.2827 442.731 98.4302 447.57L101.17 444.655C95.6506 439.467 89.3035 435.44 82.1428 432.576L80.6572 436.289ZM98.4446 447.583C103.69 452.418 107.8 458.069 110.783 464.549L114.417 462.876C111.213 455.916 106.79 449.834 101.155 444.642L98.4446 447.583ZM110.789 464.561C113.855 471.103 115.4 478.277 115.4 486.113L119.4 486.113C119.4 477.735 117.745 469.976 114.411 462.864L110.789 464.561ZM115.4 486.113C115.4 494.05 113.804 501.21 110.645 507.629L114.234 509.396C117.689 502.375 119.4 494.602 119.4 486.113L115.4 486.113ZM110.64 507.641C107.448 514.231 103.185 519.824 97.8512 524.44L100.469 527.465C106.228 522.481 110.819 516.447 114.24 509.384L110.64 507.641ZM97.8348 524.455C92.4733 529.197 86.4477 532.802 79.7472 535.276L81.1327 539.029C88.2989 536.383 94.7533 532.521 100.485 527.45L97.8348 524.455ZM79.7123 535.29C73.1115 537.868 66.3713 539.153 59.48 539.153L59.48 543.153C66.882 543.153 74.1151 541.77 81.1677 539.015L79.7123 535.29ZM59.48 539.153C52.2678 539.153 45.3199 537.814 38.6228 535.136L37.1372 538.849C44.3067 541.717 51.7588 543.153 59.48 543.153L59.48 539.153ZM38.6327 535.14C32.0291 532.457 26.0997 528.693 20.8353 523.842L18.1246 526.783C23.7402 531.958 30.0775 535.981 37.1272 538.845L38.6327 535.14ZM20.8341 523.841C15.7052 519.122 11.648 513.478 8.66168 506.887L5.01827 508.538C8.2186 515.601 12.588 521.69 18.1259 526.784L20.8341 523.841ZM8.65674 506.876C5.69372 500.439 4.19998 493.368 4.19998 485.632L0.199978 485.632C0.199978 493.897 1.79957 501.546 5.02322 508.549L8.65674 506.876ZM59.8 450.672C52.9209 450.672 46.456 452.006 40.4277 454.685L42.0523 458.34C47.544 455.899 53.4524 454.672 59.8 454.672L59.8 450.672ZM40.3997 454.698C34.348 457.499 29.3859 461.496 25.5516 466.684L28.7683 469.061C32.1874 464.436 36.612 460.859 42.0802 458.327L40.3997 454.698ZM25.5395 466.7C21.6368 472.095 19.72 478.491 19.72 485.792L23.72 485.792C23.72 479.227 25.4299 473.676 28.7804 469.045L25.5395 466.7ZM19.72 485.792C19.72 493.304 21.6893 499.775 25.7283 505.084L28.9116 502.661C25.484 498.157 23.72 492.574 23.72 485.792L19.72 485.792ZM25.7283 505.084C29.6763 510.272 34.7532 514.215 40.9201 516.906L42.5199 513.239C36.9534 510.81 32.4304 507.286 28.9116 502.661L25.7283 505.084ZM40.9201 516.906C47.0301 519.572 53.3284 520.913 59.8 520.913L59.8 516.913C53.8982 516.913 48.1432 515.693 42.5199 513.239L40.9201 516.906ZM59.8 520.913C66.691 520.913 73.1658 519.521 79.2002 516.727L77.5197 513.098C72.0342 515.637 66.1356 516.913 59.8 516.913L59.8 520.913ZM79.2002 516.727C85.2676 513.918 90.187 509.854 93.9168 504.542L90.6432 502.243C87.333 506.958 82.9723 510.573 77.5197 513.098L79.2002 516.727ZM93.8883 504.581C97.7993 499.29 99.72 492.994 99.72 485.793L95.72 485.793C95.72 492.245 94.0139 497.682 90.6716 502.204L93.8883 504.581ZM99.72 485.793C99.72 478.281 97.7507 471.81 93.7116 466.501L90.5283 468.924C93.956 473.428 95.72 479.011 95.72 485.793L99.72 485.793ZM93.7116 466.501C89.7637 461.313 84.6868 457.37 78.5199 454.679L76.9201 458.346C82.4865 460.775 87.0096 464.299 90.5283 468.924L93.7116 466.501ZM78.5323 454.685C72.5215 452.013 66.2719 450.672 59.8 450.672L59.8 454.672C65.7014 454.672 71.3985 455.892 76.9077 458.34L78.5323 454.685ZM2.99998 558.09L2.99998 556.09L0.999975 556.09L0.999975 558.09L2.99998 558.09ZM116.6 558.09L118.6 558.09L118.6 556.09L116.6 556.09L116.6 558.09ZM113.4 622.73L111.602 621.853L111.598 621.862L111.594 621.87L113.4 622.73ZM104.76 634.25L103.437 632.75L103.425 632.761L103.412 632.772L104.76 634.25ZM92.6 641.77L91.888 639.901L91.8687 639.908L91.8496 639.916L92.6 641.77ZM58.84 638.89L59.8865 637.186L59.8756 637.179L59.8645 637.172L58.84 638.89ZM45.72 624.01L47.5615 623.23L46.6594 621.101L44.6825 622.3L45.72 624.01ZM2.99997 649.93L0.999971 649.93L0.999971 653.483L4.03743 651.64L2.99997 649.93ZM2.99997 625.61L1.95418 623.905L0.999972 624.491L0.999972 625.61L2.99997 625.61ZM41.08 602.25L42.1258 603.955L43.08 603.369L43.08 602.25L41.08 602.25ZM41.08 580.17L43.08 580.17L43.08 578.17L41.08 578.17L41.08 580.17ZM2.99997 580.17L0.999974 580.17L0.999974 582.17L2.99997 582.17L2.99997 580.17ZM60.44 580.17L60.44 578.17L58.44 578.17L58.44 580.17L60.44 580.17ZM65.72 618.09L66.9349 616.501L66.9277 616.496L65.72 618.09ZM88.28 620.01L89.2282 621.771L89.2282 621.771L88.28 620.01ZM94.84 614.25L93.2125 613.088L93.1998 613.105L93.1875 613.123L94.84 614.25ZM97.24 580.17L99.24 580.17L99.24 578.17L97.24 578.17L97.24 580.17ZM2.99998 560.09L116.6 560.09L116.6 556.09L2.99998 556.09L2.99998 560.09ZM114.6 558.09L114.6 608.33L118.6 608.33L118.6 558.09L114.6 558.09ZM114.6 608.33C114.6 613.276 113.593 617.773 111.602 621.853L115.198 623.607C117.474 618.94 118.6 613.838 118.6 608.33L114.6 608.33ZM111.594 621.87C109.574 626.113 106.856 629.734 103.437 632.75L106.083 635.75C109.918 632.366 112.959 628.307 115.206 623.59L111.594 621.87ZM103.412 632.772C99.9667 635.914 96.1279 638.286 91.888 639.901L93.312 643.639C98.0321 641.841 102.3 639.2 106.107 635.728L103.412 632.772ZM91.8496 639.916C87.6007 641.636 83.2684 642.49 78.84 642.49L78.84 646.49C83.7982 646.49 88.6392 645.531 93.3504 643.624L91.8496 639.916ZM78.84 642.49C71.9496 642.49 65.6462 640.722 59.8865 637.186L57.7934 640.594C64.1938 644.524 71.2237 646.49 78.84 646.49L78.84 642.49ZM59.8645 637.172C54.1356 633.755 50.0561 629.117 47.5615 623.23L43.8785 624.79C46.7172 631.49 51.3844 636.772 57.8154 640.608L59.8645 637.172ZM44.6825 622.3L1.96252 648.22L4.03743 651.64L46.7574 625.72L44.6825 622.3ZM4.99997 649.93L4.99997 625.61L0.999972 625.61L0.999971 649.93L4.99997 649.93ZM4.04577 627.315L42.1258 603.955L40.0342 600.545L1.95418 623.905L4.04577 627.315ZM43.08 602.25L43.08 580.17L39.08 580.17L39.08 602.25L43.08 602.25ZM41.08 578.17L2.99997 578.17L2.99997 582.17L41.08 582.17L41.08 578.17ZM4.99997 580.17L4.99998 558.09L0.999975 558.09L0.999974 580.17L4.99997 580.17ZM58.44 580.17L58.44 607.85L62.44 607.85L62.44 580.17L58.44 580.17ZM58.44 607.85C58.44 612.68 60.5289 616.667 64.5123 619.684L66.9277 616.496C63.871 614.18 62.44 611.34 62.44 607.85L58.44 607.85ZM64.5051 619.679C68.5227 622.751 73.337 624.25 78.84 624.25L78.84 620.25C74.103 620.25 70.1706 618.976 66.9349 616.501L64.5051 619.679ZM78.84 624.25C82.6514 624.25 86.1305 623.439 89.2282 621.771L87.3318 618.249C84.8828 619.568 82.0685 620.25 78.84 620.25L78.84 624.25ZM89.2282 621.771C92.2524 620.142 94.6929 618.016 96.4924 615.377L93.1875 613.123C91.787 615.177 89.8542 616.891 87.3318 618.249L89.2282 621.771ZM96.4674 615.412C98.3014 612.845 99.24 609.988 99.24 606.89L95.24 606.89C95.24 609.126 94.5786 611.175 93.2125 613.088L96.4674 615.412ZM99.24 606.89L99.24 580.17L95.24 580.17L95.24 606.89L99.24 606.89ZM97.24 578.17L60.44 578.17L60.44 582.17L97.24 582.17L97.24 578.17ZM2.99997 664.496L2.99997 662.496L0.999971 662.496L0.999971 664.496L2.99997 664.496ZM116.44 664.496L118.44 664.496L118.44 662.496L116.44 662.496L116.44 664.496ZM116.44 686.576L116.44 688.576L118.44 688.576L118.44 686.576L116.44 686.576ZM62.52 686.576L62.52 684.576L57.2273 684.576L61.1973 688.076L62.52 686.576ZM116.6 734.256L118.6 734.256L118.6 733.353L117.923 732.756L116.6 734.256ZM116.6 758.576L115.293 760.09L118.6 762.946L118.6 758.576L116.6 758.576ZM66.2 715.056L67.5071 713.542L66.303 712.503L65.019 713.442L66.2 715.056ZM2.99997 761.296L0.999966 761.296L0.999966 765.238L4.18092 762.91L2.99997 761.296ZM2.99997 736.336L1.82899 734.715L0.999967 735.314L0.999967 736.336L2.99997 736.336ZM51.96 700.976L53.131 702.598L55.0772 701.192L53.3431 699.532L51.96 700.976ZM36.92 686.576L38.3031 685.132L37.723 684.576L36.92 684.576L36.92 686.576ZM2.99997 686.576L0.99997 686.576L0.999969 688.576L2.99997 688.576L2.99997 686.576ZM2.99997 666.496L116.44 666.496L116.44 662.496L2.99997 662.496L2.99997 666.496ZM114.44 664.496L114.44 686.576L118.44 686.576L118.44 664.496L114.44 664.496ZM116.44 684.576L62.52 684.576L62.52 688.576L116.44 688.576L116.44 684.576ZM61.1973 688.076L115.277 735.756L117.923 732.756L63.8426 685.076L61.1973 688.076ZM114.6 734.256L114.6 758.576L118.6 758.576L118.6 734.256L114.6 734.256ZM117.907 757.063L67.5071 713.542L64.8929 716.57L115.293 760.09L117.907 757.063ZM65.019 713.442L1.81901 759.682L4.18092 762.91L67.3809 716.67L65.019 713.442ZM4.99997 761.296L4.99997 736.336L0.999967 736.336L0.999966 761.296L4.99997 761.296ZM4.17095 737.958L53.131 702.598L50.789 699.355L1.82899 734.715L4.17095 737.958ZM53.3431 699.532L38.3031 685.132L35.5368 688.021L50.5768 702.421L53.3431 699.532ZM36.92 684.576L2.99997 684.576L2.99997 688.576L36.92 688.576L36.92 684.576ZM4.99997 686.576L4.99997 664.496L0.999971 664.496L0.99997 686.576L4.99997 686.576Z" fill="white"/>
</svg>
