<svg width="488" height="458" viewBox="0 0 488 458" fill="none" xmlns="http://www.w3.org/2000/svg">
    <path d="M16.6309 272.059C16.6309 272.059 16.2181 270.846 15.5502 268.589" stroke="#69F0AE" stroke-width="9" stroke-miterlimit="10" />
    <path d="M13.5953 261.554C-1.16444 204.785 -47.18 -56.8475 414.105 106.483" stroke="#69F0AE" stroke-width="9" stroke-miterlimit="10" stroke-dasharray="12.04 12.04" />
    <path d="M417.56 107.697L420.99 108.91" stroke="#69F0AE" stroke-width="9" stroke-miterlimit="10" />
    <path d="M364.489 309.474C364.492 297.207 359.913 285.381 351.647 276.309C343.382 267.237 332.025 261.572 319.799 260.424C307.573 259.276 295.358 262.726 285.545 270.099C275.731 277.473 269.025 288.239 266.739 300.291L115.201 296.185L116.865 322.192C116.865 322.192 95.2564 371.998 208.823 385.268V435.608H340.112V351.911C347.526 347.574 353.676 341.376 357.953 333.932C362.229 326.488 364.482 318.056 364.489 309.474Z" fill="url(#paint0_linear)" />
    <path d="M122.068 323.284C122.068 323.284 101.376 370.979 210.134 383.703V431.932H335.868V304.203L120.453 298.375L122.068 323.284Z" fill="#F6B9AD" />
    <path d="M184.907 124.248C181.629 129.416 176.436 133.078 170.464 134.433C164.491 135.789 158.225 134.728 153.032 131.483L85.5238 87.045C80.3504 83.77 76.6847 78.5829 75.3276 72.6167C73.9704 66.6506 75.032 60.3904 78.2805 55.2037C81.5588 50.0425 86.7469 46.3854 92.7135 45.03C98.6801 43.6745 104.941 44.7307 110.131 47.9681L177.64 92.4065C182.817 95.6776 186.488 100.863 187.85 106.829C189.212 112.796 188.154 119.058 184.907 124.248Z" fill="url(#paint1_linear)" />
    <path d="M181.167 121.816C178.12 126.62 173.293 130.023 167.742 131.284C162.19 132.544 156.365 131.558 151.539 128.542L88.766 87.2333C83.9572 84.1891 80.5499 79.3675 79.2883 73.8219C78.0267 68.2763 79.0133 62.4573 82.0327 57.636C85.0801 52.8323 89.9068 49.4286 95.4583 48.1683C101.01 46.908 106.835 47.8937 111.661 50.9099L174.422 92.2248C179.231 95.267 182.64 100.086 183.904 105.631C185.167 111.175 184.184 116.994 181.167 121.816Z" fill="#F6B9AD" />
    <path d="M311.995 358.267C338.073 358.267 359.213 337.149 359.213 311.099C359.213 285.049 338.073 263.932 311.995 263.932C285.917 263.932 264.777 285.049 264.777 311.099C264.777 337.149 285.917 358.267 311.995 358.267Z" fill="#F6B9AD" />
    <path d="M303.495 0H122.614C118.507 0 115.177 3.32637 115.177 7.42965V345.53C115.177 349.634 118.507 352.96 122.614 352.96H303.495C307.603 352.96 310.933 349.634 310.933 345.53V7.42965C310.933 3.32637 307.603 0 303.495 0Z" fill="url(#paint2_linear)" />
    <path d="M300.004 4.77319H126.105C121.532 4.77319 117.824 8.477 117.824 13.0459V339.926C117.824 344.495 121.532 348.199 126.105 348.199H300.004C304.578 348.199 308.286 344.495 308.286 339.926V13.0459C308.286 8.477 304.578 4.77319 300.004 4.77319Z" fill="white" />
    <path d="M260.904 13.3794C260.353 17.0214 258.515 20.3462 255.723 22.7524C252.932 25.1586 249.37 26.4872 245.683 26.498H179.904C176.218 26.4858 172.658 25.1565 169.867 22.7505C167.077 20.3444 165.24 17.0204 164.689 13.3794H129.839C128.889 13.3786 127.948 13.5649 127.07 13.9275C126.192 14.2902 125.394 14.8221 124.722 15.493C124.05 16.1638 123.517 16.9604 123.153 17.8371C122.789 18.7139 122.602 19.6537 122.602 20.6028V332.345C122.601 333.294 122.788 334.234 123.151 335.111C123.514 335.988 124.046 336.785 124.718 337.457C125.389 338.128 126.187 338.661 127.065 339.024C127.942 339.387 128.883 339.574 129.833 339.574H296.276C297.226 339.575 298.167 339.389 299.045 339.026C299.923 338.664 300.721 338.132 301.393 337.461C302.065 336.79 302.598 335.993 302.962 335.117C303.326 334.24 303.513 333.3 303.513 332.351V20.6089C303.514 19.6598 303.328 18.7198 302.965 17.8427C302.602 16.9657 302.069 16.1686 301.397 15.4972C300.726 14.8258 299.928 14.2932 299.051 13.9298C298.173 13.5664 297.232 13.3794 296.282 13.3794H260.904Z" fill="url(#paint3_linear)" />
    <path d="M233.333 17.4915H193.316C192.646 17.4915 192.102 18.0345 192.102 18.7045V18.9289C192.102 19.5988 192.646 20.1419 193.316 20.1419H233.333C234.004 20.1419 234.548 19.5988 234.548 18.9289V18.7045C234.548 18.0345 234.004 17.4915 233.333 17.4915Z" fill="#DBDBDB" />
    <path d="M243.564 20.1419C244.442 20.1419 245.155 19.4305 245.155 18.5529C245.155 17.6753 244.442 16.9639 243.564 16.9639C242.685 16.9639 241.973 17.6753 241.973 18.5529C241.973 19.4305 242.685 20.1419 243.564 20.1419Z" fill="#DBDBDB" />
    <path d="M342.522 319.414C328.819 322.58 319.414 313.653 316.245 299.97L284.759 183.182C283.254 176.584 284.423 169.658 288.012 163.919C291.601 158.179 297.318 154.091 303.914 152.547C310.519 151.044 317.452 152.213 323.198 155.798C328.943 159.383 333.036 165.094 334.581 171.683L360.275 291.467C363.445 305.174 356.22 316.248 342.522 319.414Z" fill="url(#paint4_linear)" />
    <path d="M331.048 174.548C328.377 162.998 316.838 155.798 305.276 158.467C293.713 161.135 286.506 172.662 289.177 184.212L318.131 309.389C320.802 320.939 332.341 328.139 343.903 325.47C355.465 322.802 362.673 311.275 360.001 299.725L331.048 174.548Z" fill="#F6B9AD" />
    <path d="M359.019 416.151H179.303V458H359.019V416.151Z" fill="url(#paint5_linear)" />
    <path d="M354.161 421.003H184.161V453.755H354.161V421.003Z" fill="white" />
    <path d="M253.151 110.614L239.223 100.14L245.294 92.255L235.161 84.3098L228.828 92.3278L214.506 81.5624C213.96 81.1534 213.297 80.9324 212.614 80.9324C211.932 80.9324 211.269 81.1534 210.723 81.5624L172.758 109.795C171.319 111.008 169.972 112.397 169.959 115.575H169.917L169.82 159.073V161.008C169.818 161.631 169.939 162.248 170.177 162.824C170.414 163.4 170.762 163.924 171.202 164.365C171.642 164.807 172.164 165.158 172.74 165.397C173.315 165.637 173.932 165.761 174.556 165.763H176.426L212.423 165.842L250.297 165.927C250.921 165.928 251.538 165.807 252.115 165.57C252.692 165.334 253.216 164.986 253.658 164.546C254.1 164.107 254.451 163.585 254.691 163.01C254.931 162.435 255.055 161.819 255.057 161.196L255.16 115.842H255.239C255.239 112.658 254.59 111.827 253.151 110.614Z" fill="url(#paint6_linear)" />
    <path d="M251.499 116.503C251.499 113.604 250.892 112.864 249.593 111.742L214.336 85.2558C213.837 84.8823 213.231 84.6804 212.608 84.6804C211.985 84.6804 211.379 84.8823 210.881 85.2558L176.243 111.02C175.41 111.615 174.74 112.409 174.294 113.33C173.849 114.251 173.642 115.269 173.693 116.291H173.657L173.566 155.98V157.745C173.564 158.892 174.019 159.994 174.829 160.807C175.64 161.62 176.74 162.078 177.889 162.081H179.595L212.441 162.154L246.994 162.233C248.143 162.235 249.245 161.781 250.059 160.971C250.873 160.161 251.332 159.062 251.335 157.915L251.426 116.533L251.499 116.503Z" fill="url(#paint7_linear)" />
    <path d="M174.294 116.45L250.691 116.623L250.595 158.611C250.595 158.944 250.528 159.273 250.4 159.581C250.272 159.888 250.084 160.167 249.848 160.402C249.612 160.637 249.332 160.823 249.023 160.95C248.715 161.076 248.385 161.141 248.052 161.14L177.016 160.979C176.273 160.978 175.562 160.681 175.039 160.156C174.515 159.63 174.222 158.919 174.223 158.177L174.318 116.45L174.294 116.45Z" fill="url(#paint8_linear)" />
    <path opacity="0.2" d="M174.294 116.45L250.691 116.623L250.595 158.611C250.595 158.944 250.528 159.273 250.4 159.581C250.272 159.888 250.084 160.167 249.848 160.402C249.612 160.637 249.332 160.823 249.023 160.95C248.715 161.076 248.385 161.141 248.052 161.14L177.016 160.979C176.273 160.978 175.562 160.681 175.039 160.156C174.515 159.63 174.222 158.919 174.223 158.177L174.318 116.45L174.294 116.45Z" fill="white" />
    <path d="M174.301 116.436L174.216 155.004C174.214 155.782 174.366 156.553 174.662 157.272C174.959 157.992 175.395 158.646 175.944 159.197C176.494 159.749 177.147 160.186 177.866 160.486C178.585 160.785 179.356 160.94 180.135 160.941L244.669 161.087" fill="#F5F5F5" />
    <path d="M250.704 116.606L250.619 155.198C250.617 155.976 250.462 156.746 250.163 157.465C249.863 158.183 249.425 158.835 248.873 159.384C248.321 159.933 247.666 160.369 246.946 160.665C246.226 160.961 245.454 161.113 244.675 161.111L180.141 160.966" fill="white" />
    <path d="M210.875 86.2628L176.875 111.311C176.058 111.885 175.4 112.656 174.962 113.552C174.523 114.448 174.319 115.44 174.367 116.436L250.801 116.679C250.801 113.859 250.194 113.119 248.931 112.051L214.293 86.2749C213.802 85.9036 213.203 85.7017 212.586 85.6995C211.97 85.6973 211.369 85.895 210.875 86.2628Z" fill="url(#paint9_linear)" />
    <path opacity="0.2" d="M210.875 86.2628L176.875 111.311C176.058 111.885 175.4 112.656 174.962 113.552C174.523 114.448 174.319 115.44 174.367 116.436L250.801 116.679C250.801 113.859 250.194 113.119 248.931 112.051L214.293 86.2749C213.802 85.9036 213.203 85.7017 212.586 85.6995C211.97 85.6973 211.369 85.895 210.875 86.2628Z" fill="black" />
    <path d="M242.429 94.9782L233.182 87.7366L210.833 116.012L198.823 106.708L191.301 116.26L208.781 129.597L213.116 133.073L242.429 94.9782Z" fill="url(#paint10_linear)" />
    <path d="M241.748 94.8023L233.37 88.3855L211.167 117.31L198.835 107.866L192.406 116.236L208.926 128.876L213.164 132.048L241.748 94.8023Z" fill="white" />
    <path d="M170.409 187.9C167.154 193.029 162 196.663 156.072 198.009C150.144 199.354 143.924 198.302 138.771 195.081L81.3952 157.763C76.2609 154.512 72.623 149.364 71.2761 143.442C69.9292 137.52 70.9827 131.307 74.2066 126.159C77.4613 121.03 82.6154 117.396 88.5433 116.05C94.4712 114.705 100.691 115.757 105.845 118.978L163.22 156.296C168.355 159.547 171.992 164.695 173.339 170.617C174.686 176.539 173.633 182.752 170.409 187.9Z" fill="url(#paint11_linear)" />
    <path d="M167.361 185.935C164.313 190.739 159.487 194.143 153.935 195.403C148.384 196.663 142.559 195.678 137.732 192.661L83.9938 157.709C79.185 154.664 75.7776 149.843 74.516 144.297C73.2544 138.752 74.2411 132.933 77.2605 128.111C80.3079 123.308 85.1346 119.904 90.6861 118.644C96.2376 117.383 102.063 118.369 106.889 121.385L160.628 156.338C165.436 159.382 168.844 164.204 170.105 169.749C171.367 175.295 170.38 181.114 167.361 185.935Z" fill="#F6B9AD" />
    <path d="M158.703 249.533C155.464 254.64 150.334 258.258 144.433 259.598C138.532 260.938 132.341 259.89 127.21 256.684L81.9295 227.42C76.8176 224.185 73.1954 219.06 71.8541 213.166C70.5129 207.271 71.5616 201.086 74.7713 195.961C78.0099 190.855 83.1401 187.236 89.041 185.896C94.9419 184.556 101.134 185.604 106.264 188.81L151.539 218.08C156.65 221.314 160.272 226.437 161.615 232.331C162.957 238.224 161.91 244.408 158.703 249.533Z" fill="url(#paint12_linear)" />
    <path d="M147.337 311.481C144.07 316.635 138.893 320.286 132.939 321.639C126.984 322.991 120.736 321.934 115.559 318.699L87.5153 298.26C82.3566 294.996 78.7009 289.825 77.3471 283.876C75.9933 277.928 77.0514 271.687 80.2903 266.515C83.5616 261.366 88.7399 257.719 94.6941 256.372C100.648 255.024 106.894 256.085 112.068 259.322L140.112 279.755C145.266 283.019 148.918 288.187 150.272 294.131C151.625 300.074 150.57 306.312 147.337 311.481Z" fill="url(#paint13_linear)" />
    <path d="M145.072 309.959C142.025 314.763 137.198 318.166 131.647 319.427C126.095 320.687 120.27 319.701 115.444 316.685L89.294 297.629C84.4853 294.585 81.0779 289.763 79.8163 284.217C78.5547 278.672 79.5414 272.853 82.5608 268.031C85.6082 263.228 90.4349 259.824 95.9864 258.564C101.538 257.304 107.363 258.289 112.189 261.305L138.339 280.362C143.148 283.406 146.555 288.227 147.817 293.773C149.079 299.319 148.092 305.138 145.072 309.959Z" fill="#F6B9AD" />
    <path d="M274.984 196.246H151.126V233.242H274.984V196.246Z" fill="url(#paint14_linear)" />
    <path d="M270.734 199.885H155.376V226.571H270.734V199.885Z" fill="#69F0AE" />
    <path d="M485.086 130.107L487.266 130.446L486.926 130.125H487.108L486.823 130.028L447.303 92.5886L437.711 107.709L429.733 121.501L433.43 122.077L431.791 129.549L485.086 130.107Z" fill="url(#paint15_linear)" />
    <path d="M439.368 108.497L432.083 121.119L485.511 129.81L451.098 105.871L439.368 108.497Z" fill="url(#paint16_linear)" />
    <path opacity="0.2" d="M439.368 108.497L432.083 121.119L485.511 129.81L451.098 105.871L439.368 108.497Z" fill="black" />
    <path d="M448.141 94.6687L485.511 129.809L439.368 108.497L448.141 94.6687Z" fill="url(#paint17_linear)" />
    <path d="M434.05 128.536L485.366 129.513L437.462 112.518L434.05 128.536Z" fill="url(#paint18_linear)" />
    <path d="M156.214 247.95C153.166 252.754 148.34 256.158 142.788 257.418C137.237 258.678 131.411 257.693 126.585 254.676L83.9876 227.141C79.1789 224.097 75.7715 219.275 74.5099 213.73C73.2483 208.184 74.235 202.365 77.2544 197.544C80.297 192.735 85.1214 189.325 90.6733 188.059C96.2252 186.793 102.053 187.774 106.883 190.787L149.48 218.323C154.298 221.367 157.711 226.194 158.973 231.747C160.235 237.3 159.243 243.126 156.214 247.95Z" fill="#F6B9AD" />
    <defs>
        <linearGradient id="paint0_linear" x1="239.854" y1="435.632" x2="239.854" y2="260.214" gradientUnits="userSpaceOnUse">
            <stop stop-color="#808080" stop-opacity="0.25" />
            <stop offset="0.54" stop-color="#808080" stop-opacity="0.12" />
            <stop offset="1" stop-color="#808080" stop-opacity="0.1" />
        </linearGradient>
        <linearGradient id="paint1_linear" x1="46835.3" y1="26762" x2="46835.3" y2="13238.4" gradientUnits="userSpaceOnUse">
            <stop stop-color="#808080" stop-opacity="0.25" />
            <stop offset="0.54" stop-color="#808080" stop-opacity="0.12" />
            <stop offset="1" stop-color="#808080" stop-opacity="0.1" />
        </linearGradient>
        <linearGradient id="paint2_linear" x1="106783" y1="230930" x2="106783" y2="25520.9" gradientUnits="userSpaceOnUse">
            <stop stop-color="#808080" stop-opacity="0.25" />
            <stop offset="0.54" stop-color="#808080" stop-opacity="0.12" />
            <stop offset="1" stop-color="#808080" stop-opacity="0.1" />
        </linearGradient>
        <linearGradient id="paint3_linear" x1="122.66" y1="345.556" x2="325.031" y2="340.691" gradientUnits="userSpaceOnUse">
            <stop stop-color="#2B5BE4" />
            <stop offset="1" stop-color="#0B69F2" />
        </linearGradient>
        <linearGradient id="paint4_linear" x1="56102" y1="101062" x2="56102" y2="54439.6" gradientUnits="userSpaceOnUse">
            <stop stop-color="#808080" stop-opacity="0.25" />
            <stop offset="0.54" stop-color="#808080" stop-opacity="0.12" />
            <stop offset="1" stop-color="#808080" stop-opacity="0.1" />
        </linearGradient>
        <linearGradient id="paint5_linear" x1="114706" y1="35004.9" x2="114706" y2="32117.4" gradientUnits="userSpaceOnUse">
            <stop stop-color="#808080" stop-opacity="0.25" />
            <stop offset="0.54" stop-color="#808080" stop-opacity="0.12" />
            <stop offset="1" stop-color="#808080" stop-opacity="0.1" />
        </linearGradient>
        <linearGradient id="paint6_linear" x1="212.526" y1="165.921" x2="212.526" y2="80.9255" gradientUnits="userSpaceOnUse">
            <stop stop-opacity="0.12" />
            <stop offset="0.55" stop-opacity="0.09" />
            <stop offset="1" stop-opacity="0.02" />
        </linearGradient>
        <linearGradient id="paint7_linear" x1="42619.9" y1="26441.7" x2="42619.9" y2="16525.8" gradientUnits="userSpaceOnUse">
            <stop stop-color="#808080" stop-opacity="0.25" />
            <stop offset="0.54" stop-color="#808080" stop-opacity="0.12" />
            <stop offset="1" stop-color="#808080" stop-opacity="0.1" />
        </linearGradient>
        <linearGradient id="paint8_linear" x1="174.215" y1="161.789" x2="259.268" y2="155.658" gradientUnits="userSpaceOnUse">
            <stop stop-color="#2B5BE4" />
            <stop offset="1" stop-color="#0B69F2" />
        </linearGradient>
        <linearGradient id="paint9_linear" x1="174.385" y1="117.247" x2="258.975" y2="108.2" gradientUnits="userSpaceOnUse">
            <stop stop-color="#2B5BE4" />
            <stop offset="1" stop-color="#0B69F2" />
        </linearGradient>
        <linearGradient id="paint10_linear" x1="28229.9" y1="13343.1" x2="28237.6" y2="9950.66" gradientUnits="userSpaceOnUse">
            <stop stop-opacity="0.12" />
            <stop offset="0.55" stop-opacity="0.09" />
            <stop offset="1" stop-opacity="0.02" />
        </linearGradient>
        <linearGradient id="paint11_linear" x1="40945.9" y1="33344.4" x2="40945.9" y2="21957" gradientUnits="userSpaceOnUse">
            <stop stop-color="#808080" stop-opacity="0.25" />
            <stop offset="0.54" stop-color="#808080" stop-opacity="0.12" />
            <stop offset="1" stop-color="#808080" stop-opacity="0.1" />
        </linearGradient>
        <linearGradient id="paint12_linear" x1="35238.2" y1="37710.1" x2="35238.2" y2="28474.8" gradientUnits="userSpaceOnUse">
            <stop stop-color="#808080" stop-opacity="0.25" />
            <stop offset="0.54" stop-color="#808080" stop-opacity="0.12" />
            <stop offset="1" stop-color="#808080" stop-opacity="0.1" />
        </linearGradient>
        <linearGradient id="paint13_linear" x1="28378.8" y1="40348.4" x2="28378.8" y2="33074.2" gradientUnits="userSpaceOnUse">
            <stop stop-color="#808080" stop-opacity="0.25" />
            <stop offset="0.54" stop-color="#808080" stop-opacity="0.12" />
            <stop offset="1" stop-color="#808080" stop-opacity="0.1" />
        </linearGradient>
        <linearGradient id="paint14_linear" x1="43152" y1="14424" x2="43152" y2="12167.2" gradientUnits="userSpaceOnUse">
            <stop stop-opacity="0.12" />
            <stop offset="0.55" stop-opacity="0.09" />
            <stop offset="1" stop-opacity="0.02" />
        </linearGradient>
        <linearGradient id="paint15_linear" x1="40195.1" y1="40144.6" x2="41514.7" y2="38059.9" gradientUnits="userSpaceOnUse">
            <stop stop-color="#808080" stop-opacity="0.25" />
            <stop offset="0.54" stop-color="#808080" stop-opacity="0.12" />
            <stop offset="1" stop-color="#808080" stop-opacity="0.1" />
        </linearGradient>
        <linearGradient id="paint16_linear" x1="432.1" y1="130.249" x2="491.346" y2="124.517" gradientUnits="userSpaceOnUse">
            <stop stop-color="#2B5BE4" />
            <stop offset="1" stop-color="#0B69F2" />
        </linearGradient>
        <linearGradient id="paint17_linear" x1="439.383" y1="130.454" x2="490.863" y2="127.524" gradientUnits="userSpaceOnUse">
            <stop stop-color="#2B5BE4" />
            <stop offset="1" stop-color="#0B69F2" />
        </linearGradient>
        <linearGradient id="paint18_linear" x1="434.066" y1="129.824" x2="490.535" y2="122.433" gradientUnits="userSpaceOnUse">
            <stop stop-color="#2B5BE4" />
            <stop offset="1" stop-color="#0B69F2" />
        </linearGradient>
    </defs>
</svg>
