<svg width="482" height="454" viewBox="0 0 482 454" fill="none" xmlns="http://www.w3.org/2000/svg">
    <path d="M448.617 88.7751C467.288 115.232 463.156 149.506 463.156 149.506C463.156 149.506 428.753 140.883 410.081 114.426C391.41 87.9691 395.542 53.6958 395.542 53.6958C395.542 53.6958 429.946 62.3179 448.617 88.7751Z" fill="#2F2E41" />
    <path d="M435.475 93.0981C437.648 125.079 462.595 149.505 462.595 149.505C462.595 149.505 484.018 122.08 481.845 90.0987C479.672 58.1175 454.725 33.6914 454.725 33.6914C454.725 33.6914 433.301 61.1169 435.475 93.0981Z" fill="url(#paint0_linear)" />
    <path d="M221.17 0.65957L474.321 124.377C476.425 125.405 478.171 127.015 479.339 129.004C480.507 130.992 481.046 133.272 480.887 135.557L466.179 347.329C466.113 348.279 465.806 349.198 465.286 350.005C464.765 350.811 464.048 351.48 463.197 351.951C462.346 352.422 461.388 352.681 460.409 352.705C459.43 352.728 458.46 352.516 457.586 352.086L198.662 223.638L211.955 5.82204C212.017 4.79888 212.34 3.8068 212.895 2.93493C213.449 2.06306 214.218 1.33869 215.131 0.826876C216.045 0.315063 217.075 0.0318367 218.129 0.00263462C219.183 -0.0265674 220.228 0.199168 221.17 0.65957Z" fill="#D0CDE1" />
    <path d="M223.907 4.85525L471.216 125.618C473.272 126.622 474.978 128.193 476.119 130.134C477.26 132.076 477.786 134.301 477.631 136.531L463.263 343.246C463.198 344.173 462.898 345.071 462.39 345.858C461.881 346.645 461.18 347.298 460.349 347.757C459.517 348.217 458.582 348.47 457.625 348.493C456.669 348.516 455.721 348.309 454.867 347.89L201.919 222.509L214.905 9.89444C214.966 8.89571 215.282 7.92733 215.823 7.07627C216.365 6.22522 217.115 5.51815 218.008 5.01856C218.9 4.51897 219.907 4.24251 220.936 4.214C221.966 4.1855 222.987 4.40584 223.907 4.85525Z" fill="#3F3D56" />
    <path d="M234.857 20.5892L458.798 130.273C460.66 131.185 462.204 132.612 463.237 134.375C464.271 136.138 464.747 138.159 464.607 140.185L451.596 327.935C451.537 328.777 451.266 329.592 450.805 330.307C450.345 331.022 449.71 331.615 448.957 332.032C448.204 332.45 447.357 332.68 446.491 332.701C445.625 332.722 444.767 332.533 443.994 332.152L214.946 218.275L226.705 25.166C226.76 24.2589 227.046 23.3794 227.536 22.6064C228.027 21.8335 228.707 21.1912 229.515 20.7375C230.323 20.2837 231.234 20.0326 232.166 20.0067C233.099 19.9809 234.023 20.181 234.857 20.5892Z" fill="white" />
    <path d="M3.87062 328.077L257.126 452.034C259.483 453.185 262.085 453.784 264.723 453.78C267.361 453.777 269.962 453.172 272.315 452.014L459.667 359.583C461.864 357.448 461.557 354.284 460.854 351.908C460.513 350.758 460.049 349.646 459.469 348.59L433.939 335.54L219.286 231.452L206.461 224.836C203.066 223.088 199.285 222.168 195.443 222.153C191.602 222.137 187.813 223.028 184.404 224.749L3.79138 315.93C2.64228 316.508 1.67994 317.383 1.01084 318.459C0.341729 319.535 -0.00806135 320.77 0.000141008 322.027C0.00834336 323.284 0.374235 324.515 1.05733 325.583C1.74042 326.65 2.71408 327.514 3.87062 328.077Z" fill="#D0CDE1" />
    <path opacity="0.1" d="M3.87359 328.292L257.127 452.037C259.484 453.186 262.086 453.784 264.724 453.78C267.362 453.777 269.963 453.173 272.317 452.017L459.667 359.744C461.864 357.613 461.557 354.454 460.854 352.083L274.064 446.281C271.785 447.43 269.258 448.041 266.689 448.062C264.12 448.083 261.583 447.515 259.284 446.404L0.0934777 321.121C-0.150196 322.551 0.0854863 324.02 0.765901 325.311C1.44632 326.602 2.53556 327.647 3.87359 328.292Z" fill="black" />
    <path opacity="0.1" d="M244.773 365.209L162.349 324.445C160.69 323.624 158.853 323.206 156.994 323.227C155.135 323.248 153.308 323.706 151.668 324.564L103.854 349.564C103.301 349.853 102.84 350.285 102.522 350.812C102.203 351.34 102.038 351.943 102.045 352.556C102.053 353.169 102.232 353.768 102.563 354.288C102.895 354.808 103.366 355.229 103.925 355.505L187.965 396.981C189.36 397.67 190.907 398.012 192.47 397.977C194.032 397.941 195.562 397.53 196.923 396.779L244.928 370.311C245.396 370.053 245.783 369.674 246.048 369.216C246.312 368.759 246.443 368.239 246.427 367.714C246.411 367.188 246.248 366.677 245.957 366.235C245.665 365.794 245.256 365.439 244.773 365.209Z" fill="black" />
    <path opacity="0.1" d="M437.504 358.023L349.308 403.483C348.293 404.006 347.164 404.285 346.015 404.296C344.865 404.307 343.73 404.05 342.705 403.547L93.5145 281.281C92.8124 280.937 92.223 280.41 91.8123 279.758C91.4016 279.107 91.1859 278.358 91.1892 277.595C91.1926 276.831 91.415 276.084 91.8314 275.436C92.2479 274.788 92.8419 274.266 93.5471 273.927L179.672 232.568C180.97 231.945 182.4 231.623 183.848 231.628C185.297 231.633 186.724 231.965 188.017 232.597L437.465 354.54C437.796 354.702 438.075 354.949 438.271 355.254C438.467 355.559 438.572 355.911 438.576 356.27C438.58 356.63 438.483 356.983 438.293 357.293C438.104 357.602 437.831 357.855 437.504 358.023Z" fill="black" />
    <path d="M296.939 130.809L296.496 131.67L377.728 171.146L378.171 170.285L296.939 130.809Z" fill="url(#paint1_linear)" />
    <path d="M296.932 142.386L296.481 143.243L377.735 183.64L378.185 182.783L296.932 142.386Z" fill="url(#paint2_linear)" />
    <path d="M311.806 164.504L311.355 165.362L357.908 188.481L358.359 187.624L311.806 164.504Z" fill="url(#paint3_linear)" />
    <path d="M221.076 73.6981L213.86 90.2481L274.762 121.078L295.279 63.1714" fill="#F2F2F2" />
    <path d="M273.011 110.55L299.622 49.3978L238.461 20.0045L212.775 79.6698L273.011 110.55Z" fill="url(#paint4_linear)" />
    <path d="M237.122 43.7494L236.671 44.6069L283.225 67.7268L283.675 66.8692L237.122 43.7494Z" fill="white" />
    <path d="M233.632 51.8902L233.181 52.7478L279.735 75.8677L280.186 75.0101L233.632 51.8902Z" fill="white" />
    <defs>
        <linearGradient id="paint0_linear" x1="435.335" y1="151.629" x2="487.566" y2="150.717" gradientUnits="userSpaceOnUse">
            <stop stop-color="#2B5BE4" />
            <stop offset="1" stop-color="#0B69F2" />
        </linearGradient>
        <linearGradient id="paint1_linear" x1="379.217" y1="171.87" x2="379.691" y2="170.895" gradientUnits="userSpaceOnUse">
            <stop stop-color="#2B5BE4" />
            <stop offset="1" stop-color="#0B69F2" />
        </linearGradient>
        <linearGradient id="paint2_linear" x1="379.225" y1="184.381" x2="379.706" y2="183.41" gradientUnits="userSpaceOnUse">
            <stop stop-color="#2B5BE4" />
            <stop offset="1" stop-color="#0B69F2" />
        </linearGradient>
        <linearGradient id="paint3_linear" x1="358.762" y1="188.905" x2="359.243" y2="187.934" gradientUnits="userSpaceOnUse">
            <stop stop-color="#2B5BE4" />
            <stop offset="1" stop-color="#0B69F2" />
        </linearGradient>
        <linearGradient id="paint4_linear" x1="212.803" y1="112.21" x2="309.84" y2="108.176" gradientUnits="userSpaceOnUse">
            <stop stop-color="#2B5BE4" />
            <stop offset="1" stop-color="#0B69F2" />
        </linearGradient>
    </defs>
</svg>
