<svg width="490" height="408" viewBox="0 0 490 408" fill="none" xmlns="http://www.w3.org/2000/svg">
    <g clip-path="url(#clip0)">
        <g opacity="0.7">
            <path opacity="0.7" d="M309.362 183.648C309.405 170.74 306.318 158.013 300.366 146.562C297.54 141.184 294.963 137.841 292.957 135.791C292.201 134.988 291.213 134.441 290.131 134.228C289.05 134.014 287.928 134.144 286.924 134.599C286.121 134.882 285.396 135.351 284.807 135.966C282.124 138.747 279.701 142.424 277.584 146.339C271.322 158.058 268.072 171.153 268.127 184.443V192.422H263.015V99.7057C263.015 80.2723 258.67 61.0986 250.161 44.0758C246.129 36.0175 242.451 31.0108 239.62 27.9326C238.934 27.1501 238.089 26.5231 237.142 26.0936C236.194 25.6641 235.166 25.4419 234.126 25.4419C233.087 25.4419 232.059 25.6641 231.111 26.0936C230.164 26.5231 229.319 27.1501 228.633 27.9326C224.802 32.1022 221.346 37.6122 218.325 43.4719C209.376 60.8443 204.83 80.5584 204.83 100.569V192.422H200.411V184.062C200.466 170.772 197.216 157.677 190.955 145.958C188.838 142.048 186.414 138.371 183.731 135.584C182.959 134.77 181.948 134.222 180.845 134.02C179.742 133.819 178.603 133.973 177.593 134.461L177.778 134.562C177.13 134.848 176.544 135.259 176.053 135.77C174.068 137.82 171.491 141.163 168.644 146.541C162.692 157.992 159.605 170.718 159.648 183.627V322.246H175.418L173.698 333.642V367.714H186.589V333.642L184.869 322.246H200.411V196.009H204.83V321.679H217.425L215.615 333.637V367.714H228.512V333.642L226.702 321.685H243.673L241.863 333.642V367.714H254.76V333.642L252.95 321.685H263.005V196.009H268.117V322.437H272.26V322.246H285.961L284.241 333.642V367.714H297.138V333.642L295.418 322.246H309.362V183.648Z" fill="url(#paint0_linear)" />
        </g>
        <path d="M189.156 326.999H176.947L179.127 312.159H186.975L189.156 326.999Z" fill="#666969" />
        <g opacity="0.1">
            <path opacity="0.1" d="M178.519 318.05H187.584L186.975 313.902H179.127L178.519 318.05Z" fill="black" />
        </g>
        <path d="M293.809 326.999H281.601L283.781 312.159H291.629L293.809 326.999Z" fill="#666969" />
        <g opacity="0.1">
            <path opacity="0.1" d="M283.172 318.05H292.237L291.629 313.902H283.781L283.172 318.05Z" fill="black" />
        </g>
        <path d="M228.84 326.999H216.626L218.806 312.159H226.66L228.84 326.999Z" fill="#666969" />
        <g opacity="0.1">
            <path opacity="0.1" d="M218.198 318.05H227.268L226.66 313.902H218.806L218.198 318.05Z" fill="black" />
        </g>
        <path d="M253.691 326.999H241.482L243.663 312.159H251.51L253.691 326.999Z" fill="#666969" />
        <g opacity="0.1">
            <path opacity="0.1" d="M243.054 318.05H252.124L251.511 313.902H243.663L243.054 318.05Z" fill="black" />
        </g>
        <path d="M276.367 189.481H189.156V192.973H276.367V189.481Z" fill="#666969" />
        <path d="M289.851 134.313C289.39 133.803 288.828 133.396 288.2 133.118C287.572 132.839 286.894 132.695 286.207 132.695C285.521 132.695 284.842 132.839 284.214 133.118C283.587 133.396 283.025 133.803 282.564 134.313C280.024 137.02 277.732 140.602 275.726 144.411C269.791 155.867 266.721 168.593 266.778 181.498V315.905H305.372V180.941C305.421 168.39 302.499 156.006 296.847 144.803C294.169 139.568 291.729 136.31 289.851 134.313Z" fill="#E0E0E0" />
        <path d="M179.18 134.313C179.641 133.803 180.203 133.396 180.831 133.118C181.458 132.839 182.137 132.695 182.824 132.695C183.51 132.695 184.189 132.839 184.816 133.118C185.444 133.396 186.006 133.803 186.467 134.313C189.007 137.02 191.299 140.602 193.304 144.411C199.239 155.867 202.31 168.593 202.253 181.498V315.905H163.648V180.941C163.6 168.39 166.521 156.006 172.174 144.803C174.846 139.568 177.286 136.31 179.18 134.313Z" fill="#E0E0E0" />
        <path d="M163.865 183.807L173.02 183.85V195.156H163.865V183.807Z" fill="#666969" />
        <path d="M193.082 183.807L202.237 183.85V195.156H193.082V183.807Z" fill="#666969" />
        <path d="M266.772 183.807L275.933 183.85V195.156H266.772V183.807Z" fill="#666969" />
        <path d="M295.989 183.807L305.15 183.85V195.156H295.989V183.807Z" fill="#666969" />
        <g opacity="0.1">
            <path opacity="0.1" d="M193.289 144.236C191.288 140.427 188.992 136.845 186.451 134.138C185.734 133.344 184.776 132.807 183.725 132.609C182.674 132.411 181.587 132.563 180.63 133.041C181.182 133.317 181.68 133.688 182.101 134.138C184.642 136.845 186.933 140.427 188.939 144.236C194.874 155.692 197.944 168.418 197.887 181.323V315.719H202.248V181.338C202.304 168.427 199.23 155.695 193.289 144.236Z" fill="black" />
        </g>
        <g opacity="0.1">
            <path opacity="0.1" d="M279.198 144.607C281.198 140.797 283.495 137.216 286.035 134.509C286.511 133.996 287.085 133.585 287.723 133.301C286.78 132.887 285.73 132.781 284.724 132.998C283.717 133.215 282.804 133.743 282.114 134.509C279.574 137.216 277.282 140.797 275.277 144.607C269.342 156.062 266.271 168.789 266.328 181.693V316.09H270.255V181.715C270.192 168.803 273.261 156.069 279.198 144.607Z" fill="black" />
        </g>
        <path d="M189.156 326.999H176.947V360.175H189.156V326.999Z" fill="url(#paint1_linear)" />
        <path d="M228.835 326.999H216.626V360.175H228.835V326.999Z" fill="url(#paint2_linear)" />
        <path d="M253.691 326.999H241.482V360.175H253.691V326.999Z" fill="url(#paint3_linear)" />
        <path d="M293.809 326.999H281.601V360.175H293.809V326.999Z" fill="url(#paint4_linear)" />
        <path d="M239.35 28.9338C238.712 28.1749 237.916 27.5648 237.018 27.1462C236.12 26.7276 235.141 26.5107 234.15 26.5107C233.16 26.5107 232.181 26.7276 231.283 27.1462C230.385 27.5648 229.589 28.1749 228.951 28.9338C225.326 32.9922 222.071 38.3591 219.193 44.0704C210.725 60.9925 206.418 80.1981 206.418 99.6738V315.353H261.502V98.8049C261.502 79.8802 257.39 61.1885 249.33 44.6532C245.515 36.8068 242.033 31.9325 239.35 28.9338Z" fill="#EEEEEE" />
        <path d="M242.128 52.8916H225.03C221.815 52.8916 219.208 55.5008 219.208 58.7195V60.2506C219.208 63.4693 221.815 66.0785 225.03 66.0785H242.128C245.343 66.0785 247.949 63.4693 247.949 60.2506V58.7195C247.949 55.5008 245.343 52.8916 242.128 52.8916Z" fill="url(#paint5_linear)" />
        <g opacity="0.7">
            <path opacity="0.7" d="M362.281 356.551C360.474 345.64 354.626 335.812 345.903 329.025C337.18 322.238 326.223 318.991 315.216 319.931C304.208 320.872 293.959 325.93 286.511 334.099C279.063 342.267 274.963 352.946 275.028 364.006C275.028 364.223 275.028 364.435 275.028 364.652C273.403 364.898 271.795 365.243 270.212 365.685C268.185 357.603 263.698 350.351 257.372 344.935C251.046 339.518 243.195 336.205 234.905 335.454C226.615 334.702 218.297 336.55 211.103 340.741C203.908 344.932 198.193 351.259 194.749 358.845C191.199 357.474 187.471 356.621 183.678 356.313C183.074 352.875 182.059 349.522 180.657 346.326C179.998 336.242 175.567 326.776 168.246 319.819C160.925 312.861 151.253 308.923 141.16 308.789C131.067 308.655 121.294 312.336 113.792 319.097C106.29 325.859 101.609 335.203 100.685 345.266C98.607 349.672 97.2798 354.394 96.7582 359.237C87.5722 363.064 80.1321 370.168 75.88 379.174C71.6279 388.179 70.8665 398.444 73.7436 407.98H395.271C396.947 402.418 397.399 396.559 396.596 390.805C395.792 385.052 393.752 379.541 390.616 374.653C387.481 369.765 383.324 365.615 378.432 362.49C373.541 359.365 368.031 357.339 362.281 356.551Z" fill="url(#paint6_linear)" />
        </g>
        <path d="M144.317 387.916C165.603 387.916 182.858 370.64 182.858 349.33C182.858 328.02 165.603 310.744 144.317 310.744C123.031 310.744 105.776 328.02 105.776 349.33C105.776 370.64 123.031 387.916 144.317 387.916Z" fill="url(#paint7_linear)" />
        <path d="M144.126 406.051C167.435 406.051 186.33 387.134 186.33 363.799C186.33 340.464 167.435 321.547 144.126 321.547C120.818 321.547 101.923 340.464 101.923 363.799C101.923 387.134 120.818 406.051 144.126 406.051Z" fill="url(#paint8_linear)" />
        <path d="M315.638 406.051C338.946 406.051 357.842 387.134 357.842 363.799C357.842 340.464 338.946 321.547 315.638 321.547C292.33 321.547 273.435 340.464 273.435 363.799C273.435 387.134 292.33 406.051 315.638 406.051Z" fill="url(#paint9_linear)" />
        <path d="M313.516 406.051C334.802 406.051 352.057 388.776 352.057 367.465C352.057 346.155 334.802 328.879 313.516 328.879C292.23 328.879 274.975 346.155 274.975 367.465C274.975 388.776 292.23 406.051 313.516 406.051Z" fill="url(#paint10_linear)" />
        <path d="M269.963 374.798C269.97 380.9 268.528 386.916 265.757 392.35C262.985 397.785 258.964 402.483 254.024 406.056H208.815C203.464 402.184 199.196 397.002 196.419 391.005C193.643 385.008 192.451 378.397 192.958 371.807C193.465 365.216 195.654 358.867 199.315 353.366C202.976 347.865 207.986 343.398 213.866 340.392C219.746 337.386 226.299 335.942 232.896 336.198C239.493 336.454 245.914 338.402 251.544 341.855C257.174 345.309 261.823 350.151 265.048 355.919C268.272 361.687 269.963 368.188 269.958 374.798H269.963Z" fill="url(#paint11_linear)" />
        <path d="M317.76 402.581C317.76 403.736 317.709 404.879 317.607 406.009C317.611 406.025 317.611 406.041 317.607 406.057H240.831C240.725 404.912 240.673 403.752 240.673 402.586C240.666 393.353 243.97 384.424 249.983 377.423C255.997 370.423 264.321 365.816 273.44 364.44C275.346 364.153 277.271 364.008 279.198 364.006C280.182 364.006 281.161 364.043 282.13 364.112C289.038 364.64 295.676 367.022 301.347 371.007C307.018 374.991 311.512 380.431 314.358 386.756C314.516 387.105 314.67 387.46 314.813 387.815C316.759 392.494 317.761 397.513 317.76 402.581Z" fill="url(#paint12_linear)" />
        <path d="M390.604 394.862C390.608 398.653 390.052 402.423 388.953 406.051H315.183C313.4 400.118 313.06 393.843 314.194 387.752C314.257 387.418 314.321 387.079 314.395 386.75C316.252 378.123 321.005 370.394 327.863 364.85C334.721 359.306 343.269 356.282 352.084 356.281C353.296 356.281 354.486 356.334 355.667 356.451C356.196 356.493 356.725 356.557 357.254 356.625C366.492 357.884 374.96 362.451 381.092 369.481C387.224 376.511 390.603 385.528 390.604 394.862Z" fill="url(#paint13_linear)" />
        <path d="M153.848 406.057C153.975 405.654 154.086 405.251 154.197 404.843C155.951 398.274 155.942 391.357 154.169 384.792C152.396 378.227 148.923 372.248 144.101 367.459C139.279 362.669 133.279 359.239 126.708 357.517C120.137 355.794 113.228 355.839 106.681 357.648C105.147 358.069 103.643 358.589 102.177 359.206C93.3505 362.882 86.2017 369.709 82.1167 378.362C78.0316 387.015 77.3013 396.879 80.0674 406.041H153.848V406.057Z" fill="url(#paint14_linear)" />
        <g opacity="0.7">
            <path opacity="0.7" d="M375.956 326.697C379.86 326.697 383.026 323.528 383.026 319.618C383.026 315.709 379.86 312.54 375.956 312.54C372.051 312.54 368.886 315.709 368.886 319.618C368.886 323.528 372.051 326.697 375.956 326.697Z" fill="url(#paint15_linear)" />
        </g>
        <path d="M375.956 326.177C379.574 326.177 382.507 323.241 382.507 319.618C382.507 315.996 379.574 313.059 375.956 313.059C372.338 313.059 369.404 315.996 369.404 319.618C369.404 323.241 372.338 326.177 375.956 326.177Z" fill="url(#paint16_linear)" />
        <g opacity="0.7">
            <path opacity="0.7" d="M408.332 395.635C412.59 395.635 416.042 392.179 416.042 387.916C416.042 383.653 412.59 380.197 408.332 380.197C404.074 380.197 400.622 383.653 400.622 387.916C400.622 392.179 404.074 395.635 408.332 395.635Z" fill="url(#paint17_linear)" />
        </g>
        <path d="M408.332 395.248C412.377 395.248 415.656 391.965 415.656 387.916C415.656 383.866 412.377 380.583 408.332 380.583C404.287 380.583 401.008 383.866 401.008 387.916C401.008 391.965 404.287 395.248 408.332 395.248Z" fill="url(#paint18_linear)" />
        <g opacity="0.7">
            <path opacity="0.7" d="M78.411 352.408C83.0902 352.408 86.8834 348.61 86.8834 343.926C86.8834 339.241 83.0902 335.444 78.411 335.444C73.7318 335.444 69.9386 339.241 69.9386 343.926C69.9386 348.61 73.7318 352.408 78.411 352.408Z" fill="url(#paint19_linear)" />
        </g>
        <path d="M78.411 352.027C82.8798 352.027 86.5024 348.4 86.5024 343.926C86.5024 339.452 82.8798 335.825 78.411 335.825C73.9423 335.825 70.3196 339.452 70.3196 343.926C70.3196 348.4 73.9423 352.027 78.411 352.027Z" fill="url(#paint20_linear)" />
        <g opacity="0.4">
            <path opacity="0.4" d="M397.595 9.25677C395.717 6.77229 393.364 4.68674 390.673 3.12159C387.586 1.34553 384.132 0.303278 380.579 0.0752502C377.026 -0.152777 373.468 0.439521 370.18 1.80644C366.891 3.17335 363.961 5.27834 361.614 7.95897C359.267 10.6396 357.567 13.8242 356.644 17.2671C355.721 20.7099 355.601 24.3189 356.293 27.8157C356.984 31.3124 358.469 34.6034 360.632 37.4346C362.795 40.2658 365.579 42.5616 368.769 44.1448C371.959 45.728 375.47 46.5564 379.03 46.5658C379.523 46.5658 380.015 46.5658 380.502 46.5182C384.691 46.2536 388.73 44.8581 392.19 42.4797C395.651 40.1014 398.403 36.8291 400.155 33.0104C401.907 29.1918 402.593 24.9693 402.14 20.7916C401.687 16.614 400.113 12.637 397.584 9.28326L397.595 9.25677Z" fill="url(#paint21_linear)" />
        </g>
        <path opacity="0.2" d="M401.008 23.2702C401.008 28.8621 398.881 34.2441 395.059 38.3216C391.237 42.3991 386.007 44.8659 380.433 45.2202C379.972 45.252 379.507 45.2679 379.041 45.2679C375.673 45.2659 372.35 44.4884 369.329 42.9955C366.309 41.5026 363.672 39.3343 361.622 36.6583C359.573 33.9822 358.165 30.8701 357.509 27.5625C356.852 24.2548 356.964 20.8404 357.836 17.583C358.708 14.3256 360.316 11.3126 362.537 8.77694C364.757 6.24125 367.531 4.2508 370.642 2.95946C373.754 1.66813 377.121 1.11051 380.482 1.32972C383.843 1.54892 387.109 2.53908 390.027 4.22364C392.572 5.70334 394.797 7.67547 396.573 10.025C399.457 13.8364 401.015 18.4887 401.008 23.2702Z" fill="url(#paint22_linear)" />
        <path opacity="0.05" d="M373.633 9.32032C372.498 9.81043 371.403 10.3879 370.357 11.0475C369.659 11.4352 369.059 11.9792 368.605 12.6369C368.384 12.9668 368.262 13.3537 368.254 13.7512C368.247 14.1487 368.354 14.54 368.563 14.878C369.092 15.6091 370.151 15.7257 371.034 15.7734C371.847 15.9461 372.69 15.8997 373.478 15.6391C374.267 15.3785 374.972 14.9129 375.522 14.2899L377.411 12.5733C378.067 11.98 378.787 11.1588 378.501 10.3217C378.284 9.68059 377.565 9.368 376.914 9.26204C375.29 8.9421 373.605 9.23861 372.188 10.0938" fill="#F55F44" />
        <path opacity="0.05" d="M365.742 33.1088C366.38 33.1088 366.896 32.5917 366.896 31.9538C366.896 31.3159 366.38 30.7988 365.742 30.7988C365.105 30.7988 364.589 31.3159 364.589 31.9538C364.589 32.5917 365.105 33.1088 365.742 33.1088Z" fill="#F55F44" />
        <path opacity="0.05" d="M389.254 28.865C391.595 28.865 393.493 26.965 393.493 24.6212C393.493 22.2774 391.595 20.3774 389.254 20.3774C386.913 20.3774 385.016 22.2774 385.016 24.6212C385.016 26.965 386.913 28.865 389.254 28.865Z" fill="#F55F44" />
        <path opacity="0.05" d="M396.579 10.0198C396.562 11.1287 396.227 12.2094 395.615 13.1335C395.003 14.0576 394.138 14.7862 393.124 15.2328C392.11 15.6793 390.989 15.825 389.895 15.6524C388.801 15.4799 387.779 14.9964 386.952 14.2595C386.124 13.5225 385.525 12.5631 385.226 11.4953C384.927 10.4275 384.94 9.29613 385.265 8.23579C385.589 7.17545 386.211 6.23068 387.056 5.51382C387.901 4.79695 388.934 4.33813 390.032 4.19189C392.58 5.67937 394.805 7.66066 396.579 10.0198Z" fill="#F55F44" />
        <path opacity="0.05" d="M397.002 35.9378C395.112 38.63 392.642 40.862 389.774 42.4688C386.905 44.0756 383.713 45.0159 380.433 45.2201C380.406 44.9181 380.39 44.6108 380.39 44.3035C380.391 42.3731 380.927 40.4808 381.939 38.8376C382.951 37.1944 384.4 35.865 386.122 34.9975C387.845 34.13 389.774 33.7586 391.695 33.9246C393.616 34.0906 395.453 34.7876 397.002 35.9378Z" fill="#F55F44" />
        <path opacity="0.25" d="M382.507 185.338C383.998 185.338 385.206 184.129 385.206 182.636C385.206 181.144 383.998 179.934 382.507 179.934C381.017 179.934 379.808 181.144 379.808 182.636C379.808 184.129 381.017 185.338 382.507 185.338Z" fill="#666969" />
        <path opacity="0.25" d="M22.6551 256.333C24.1457 256.333 25.354 255.123 25.354 253.631C25.354 252.138 24.1457 250.928 22.6551 250.928C21.1645 250.928 19.9562 252.138 19.9562 253.631C19.9562 255.123 21.1645 256.333 22.6551 256.333Z" fill="#666969" />
        <path opacity="0.25" d="M486.759 271.697C488.249 271.697 489.457 270.487 489.457 268.995C489.457 267.503 488.249 266.293 486.759 266.293C485.268 266.293 484.06 267.503 484.06 268.995C484.06 270.487 485.268 271.697 486.759 271.697Z" fill="#666969" />
        <path opacity="0.25" d="M152.795 143.664C154.285 143.664 155.493 142.454 155.493 140.962C155.493 139.47 154.285 138.26 152.795 138.26C151.304 138.26 150.096 139.47 150.096 140.962C150.096 142.454 151.304 143.664 152.795 143.664Z" fill="#666969" />
        <path opacity="0.25" d="M143.931 81.5386C145.421 81.5386 146.629 80.3288 146.629 78.8365C146.629 77.3443 145.421 76.1345 143.931 76.1345C142.44 76.1345 141.232 77.3443 141.232 78.8365C141.232 80.3288 142.44 81.5386 143.931 81.5386Z" fill="#666969" />
        <path opacity="0.25" d="M67.6155 204.629C69.106 204.629 70.3144 203.419 70.3144 201.927C70.3144 200.435 69.106 199.225 67.6155 199.225C66.1249 199.225 64.9166 200.435 64.9166 201.927C64.9166 203.419 66.1249 204.629 67.6155 204.629Z" fill="#666969" />
        <path opacity="0.25" d="M449.382 205.1H446.979V202.7H446V205.1H443.597V206.086H446V208.486H446.979V206.086H449.382V205.1Z" fill="#666969" />
        <path opacity="0.25" d="M489.6 121.92H487.198V119.52H486.219V121.92H483.816V122.906H486.219V125.306H487.198V122.906H489.6V121.92Z" fill="#666969" />
        <path opacity="0.25" d="M318.337 75.4507H315.935V73.0454H314.956V75.4507H312.553V76.4309H314.956V78.8362H315.935V76.4309H318.337V75.4507Z" fill="#666969" />
        <path opacity="0.25" d="M423.171 191.595H420.768V189.195H419.789V191.595H417.392V192.581H419.789V194.981H420.768V192.581H423.171V191.595Z" fill="#666969" />
        <path opacity="0.25" d="M335.293 271.469H332.895V269.069H331.916V271.469H329.514V272.455H331.916V274.855H332.895V272.455H335.293V271.469Z" fill="#666969" />
        <path opacity="0.25" d="M89.3971 106.704H86.9946V104.304H86.0155V106.704H83.613V107.684H86.0155V110.09H86.9946V107.684H89.3971V106.704Z" fill="#666969" />
        <path opacity="0.25" d="M5.7844 137.963H3.38186V135.563H2.40285V137.963H0.000305176V138.943H2.40285V141.348H3.38186V138.943H5.7844V137.963Z" fill="#666969" />
        <path opacity="0.25" d="M122.541 236.359H120.138V233.954H119.159V236.359H116.762V237.339H119.159V239.744H120.138V237.339H122.541V236.359Z" fill="#666969" />
        <path d="M408.332 395.248C412.377 395.248 415.656 391.965 415.656 387.916C415.656 383.866 412.377 380.583 408.332 380.583C404.287 380.583 401.008 383.866 401.008 387.916C401.008 391.965 404.287 395.248 408.332 395.248Z" fill="url(#paint23_linear)" />
        <g opacity="0.4">
            <path opacity="0.4" d="M142.332 184.544C141.438 183.36 140.317 182.365 139.036 181.619C137.565 180.763 135.918 180.256 134.22 180.14C132.523 180.024 130.822 180.302 129.249 180.95C127.676 181.599 126.274 182.602 125.151 183.882C124.028 185.161 123.214 186.682 122.773 188.327C122.333 189.972 122.277 191.697 122.609 193.367C122.942 195.037 123.655 196.608 124.693 197.958C125.73 199.308 127.065 200.4 128.592 201.15C130.119 201.9 131.799 202.287 133.5 202.282C133.733 202.282 133.971 202.282 134.199 202.282C136.193 202.154 138.115 201.489 139.762 200.355C141.409 199.222 142.719 197.664 143.553 195.846C144.387 194.028 144.713 192.018 144.499 190.029C144.284 188.04 143.535 186.147 142.332 184.549V184.544Z" fill="url(#paint24_linear)" />
        </g>
        <path opacity="0.2" d="M143.957 191.219C143.957 193.883 142.944 196.446 141.123 198.388C139.302 200.33 136.811 201.504 134.156 201.672C133.939 201.672 133.717 201.672 133.495 201.672C131.891 201.671 130.309 201.3 128.871 200.589C127.433 199.877 126.178 198.845 125.202 197.57C124.226 196.296 123.556 194.814 123.244 193.238C122.931 191.663 122.985 190.038 123.4 188.487C123.815 186.935 124.581 185.501 125.638 184.293C126.696 183.086 128.016 182.138 129.498 181.523C130.979 180.908 132.582 180.642 134.183 180.746C135.784 180.85 137.339 181.321 138.729 182.123C139.94 182.827 140.999 183.765 141.846 184.883C143.225 186.706 143.967 188.932 143.957 191.219Z" fill="url(#paint25_linear)" />
        <path opacity="0.1" d="M130.918 184.576C130.368 184.807 129.837 185.082 129.33 185.397C128.998 185.579 128.712 185.834 128.494 186.144C128.393 186.302 128.34 186.486 128.34 186.674C128.34 186.861 128.393 187.045 128.494 187.204C128.648 187.355 128.832 187.471 129.035 187.544C129.238 187.617 129.454 187.646 129.669 187.627C130.052 187.706 130.45 187.682 130.821 187.559C131.193 187.435 131.525 187.216 131.786 186.923L132.685 186.107C132.997 185.821 133.341 185.434 133.214 185.047C133.143 184.901 133.036 184.775 132.903 184.683C132.769 184.59 132.614 184.533 132.452 184.517C131.679 184.366 130.878 184.508 130.203 184.915" fill="#F55F44" />
        <path opacity="0.1" d="M127.16 195.903C127.464 195.903 127.711 195.656 127.711 195.352C127.711 195.047 127.464 194.801 127.16 194.801C126.856 194.801 126.61 195.047 126.61 195.352C126.61 195.656 126.856 195.903 127.16 195.903Z" fill="#F55F44" />
        <path opacity="0.1" d="M138.358 193.884C139.475 193.884 140.38 192.978 140.38 191.86C140.38 190.743 139.475 189.836 138.358 189.836C137.242 189.836 136.337 190.743 136.337 191.86C136.337 192.978 137.242 193.884 138.358 193.884Z" fill="#F55F44" />
        <path opacity="0.1" d="M141.846 184.93C141.839 185.458 141.681 185.973 141.39 186.413C141.1 186.854 140.689 187.201 140.207 187.415C139.725 187.628 139.192 187.699 138.671 187.618C138.15 187.536 137.663 187.307 137.269 186.957C136.874 186.607 136.589 186.151 136.445 185.643C136.302 185.135 136.308 184.597 136.462 184.092C136.616 183.587 136.911 183.137 137.313 182.795C137.715 182.454 138.206 182.235 138.729 182.165C139.94 182.871 141 183.811 141.846 184.93Z" fill="#F55F44" />
        <path opacity="0.1" d="M142.052 197.254C141.152 198.537 139.976 199.6 138.61 200.366C137.245 201.132 135.724 201.58 134.162 201.678C134.162 201.535 134.162 201.386 134.162 201.238C134.159 200.314 134.413 199.408 134.897 198.621C135.38 197.834 136.073 197.198 136.898 196.784C137.723 196.37 138.647 196.195 139.566 196.278C140.484 196.361 141.362 196.699 142.1 197.254H142.052Z" fill="#F55F44" />
        <g opacity="0.1">
            <path opacity="0.1" d="M261.205 107.049H206.698V109.168H261.205V107.049Z" fill="black" />
        </g>
    </g>
    <defs>
        <linearGradient id="paint0_linear" x1="234.507" y1="367.714" x2="234.507" y2="25.4584" gradientUnits="userSpaceOnUse">
            <stop stop-color="#808080" stop-opacity="0.25" />
            <stop offset="0.54" stop-color="#808080" stop-opacity="0.12" />
            <stop offset="1" stop-color="#808080" stop-opacity="0.1" />
        </linearGradient>
        <linearGradient id="paint1_linear" x1="183.049" y1="326.999" x2="183.049" y2="360.18" gradientUnits="userSpaceOnUse">
            <stop stop-color="#E0E0E0" />
            <stop offset="0.31" stop-color="#FCCC63" />
            <stop offset="0.77" stop-color="#F55F44" />
        </linearGradient>
        <linearGradient id="paint2_linear" x1="5355.06" y1="20803.6" x2="5355.06" y2="22881.4" gradientUnits="userSpaceOnUse">
            <stop stop-color="#E0E0E0" />
            <stop offset="0.31" stop-color="#FCCC63" />
            <stop offset="0.77" stop-color="#F55F44" />
        </linearGradient>
        <linearGradient id="paint3_linear" x1="5953.36" y1="20803.6" x2="5953.36" y2="22881.4" gradientUnits="userSpaceOnUse">
            <stop stop-color="#E0E0E0" />
            <stop offset="0.31" stop-color="#FCCC63" />
            <stop offset="0.77" stop-color="#F55F44" />
        </linearGradient>
        <linearGradient id="paint4_linear" x1="6918.96" y1="20803.6" x2="6918.96" y2="22881.4" gradientUnits="userSpaceOnUse">
            <stop stop-color="#E0E0E0" />
            <stop offset="0.31" stop-color="#FCCC63" />
            <stop offset="0.77" stop-color="#F55F44" />
        </linearGradient>
        <linearGradient id="paint5_linear" x1="219.218" y1="66.3203" x2="251.102" y2="63.3083" gradientUnits="userSpaceOnUse">
            <stop stop-color="#2B5BE4" />
            <stop offset="1" stop-color="#0B69F2" />
        </linearGradient>
        <linearGradient id="paint6_linear" x1="188724" y1="83141.1" x2="188724" y2="64565.9" gradientUnits="userSpaceOnUse">
            <stop stop-color="#808080" stop-opacity="0.25" />
            <stop offset="0.54" stop-color="#808080" stop-opacity="0.12" />
            <stop offset="1" stop-color="#808080" stop-opacity="0.1" />
        </linearGradient>
        <linearGradient id="paint7_linear" x1="144.317" y1="310.744" x2="144.317" y2="387.916" gradientUnits="userSpaceOnUse">
            <stop stop-color="#F2F2F2" />
            <stop offset="0.31" stop-color="#E6E6E6" />
            <stop offset="0.77" stop-color="#CCCCCC" />
        </linearGradient>
        <linearGradient id="paint8_linear" x1="23090" y1="51608.1" x2="23090" y2="65086.6" gradientUnits="userSpaceOnUse">
            <stop stop-color="#F2F2F2" />
            <stop offset="0.31" stop-color="#E6E6E6" />
            <stop offset="0.77" stop-color="#CCCCCC" />
        </linearGradient>
        <linearGradient id="paint9_linear" x1="50617.7" y1="51608.1" x2="50617.7" y2="65086.6" gradientUnits="userSpaceOnUse">
            <stop stop-color="#F2F2F2" />
            <stop offset="0.31" stop-color="#E6E6E6" />
            <stop offset="0.77" stop-color="#CCCCCC" />
        </linearGradient>
        <linearGradient id="paint10_linear" x1="45941.7" y1="48233.3" x2="45941.7" y2="59474.2" gradientUnits="userSpaceOnUse">
            <stop stop-color="#F2F2F2" />
            <stop offset="0.31" stop-color="#E6E6E6" />
            <stop offset="0.77" stop-color="#CCCCCC" />
        </linearGradient>
        <linearGradient id="paint11_linear" x1="44515" y1="49225.2" x2="44515" y2="58438.5" gradientUnits="userSpaceOnUse">
            <stop stop-color="#F2F2F2" />
            <stop offset="0.31" stop-color="#E6E6E6" />
            <stop offset="0.77" stop-color="#CCCCCC" />
        </linearGradient>
        <linearGradient id="paint12_linear" x1="51506.3" y1="31985.5" x2="51506.3" y2="35323.9" gradientUnits="userSpaceOnUse">
            <stop stop-color="#F2F2F2" />
            <stop offset="0.31" stop-color="#E6E6E6" />
            <stop offset="0.77" stop-color="#CCCCCC" />
        </linearGradient>
        <linearGradient id="paint13_linear" x1="62173.8" y1="37057.3" x2="62173.8" y2="41733.7" gradientUnits="userSpaceOnUse">
            <stop stop-color="#F2F2F2" />
            <stop offset="0.31" stop-color="#E6E6E6" />
            <stop offset="0.77" stop-color="#CCCCCC" />
        </linearGradient>
        <linearGradient id="paint14_linear" x1="27707.7" y1="37078.7" x2="27707.7" y2="41757.9" gradientUnits="userSpaceOnUse">
            <stop stop-color="#F2F2F2" />
            <stop offset="0.31" stop-color="#E6E6E6" />
            <stop offset="0.77" stop-color="#CCCCCC" />
        </linearGradient>
        <linearGradient id="paint15_linear" x1="10414.4" y1="9041.86" x2="10414.4" y2="8663.6" gradientUnits="userSpaceOnUse">
            <stop stop-color="#808080" stop-opacity="0.25" />
            <stop offset="0.54" stop-color="#808080" stop-opacity="0.12" />
            <stop offset="1" stop-color="#808080" stop-opacity="0.1" />
        </linearGradient>
        <linearGradient id="paint16_linear" x1="9678.06" y1="8064.36" x2="9678.06" y2="8389.16" gradientUnits="userSpaceOnUse">
            <stop stop-color="#F2F2F2" />
            <stop offset="0.31" stop-color="#E6E6E6" />
            <stop offset="0.77" stop-color="#CCCCCC" />
        </linearGradient>
        <linearGradient id="paint17_linear" x1="12299.4" y1="11909" x2="12299.4" y2="11459.2" gradientUnits="userSpaceOnUse">
            <stop stop-color="#808080" stop-opacity="0.25" />
            <stop offset="0.54" stop-color="#808080" stop-opacity="0.12" />
            <stop offset="1" stop-color="#808080" stop-opacity="0.1" />
        </linearGradient>
        <linearGradient id="paint18_linear" x1="408.332" y1="380.583" x2="408.332" y2="395.248" gradientUnits="userSpaceOnUse">
            <stop stop-color="#F2F2F2" />
            <stop offset="0.31" stop-color="#E0E0E0" />
            <stop offset="0.77" stop-color="#B3B3B3" />
        </linearGradient>
        <linearGradient id="paint19_linear" x1="2580.65" y1="11619.5" x2="2580.65" y2="11076.3" gradientUnits="userSpaceOnUse">
            <stop stop-color="#808080" stop-opacity="0.25" />
            <stop offset="0.54" stop-color="#808080" stop-opacity="0.12" />
            <stop offset="1" stop-color="#808080" stop-opacity="0.1" />
        </linearGradient>
        <linearGradient id="paint20_linear" x1="2468.12" y1="10605.3" x2="2468.12" y2="11100.9" gradientUnits="userSpaceOnUse">
            <stop stop-color="#F2F2F2" />
            <stop offset="0.31" stop-color="#E6E6E6" />
            <stop offset="0.77" stop-color="#CCCCCC" />
        </linearGradient>
        <linearGradient id="paint21_linear" x1="39987.9" y1="7110.61" x2="39987.9" y2="3022.69" gradientUnits="userSpaceOnUse">
            <stop stop-color="#808080" stop-opacity="0.25" />
            <stop offset="0.54" stop-color="#808080" stop-opacity="0.12" />
            <stop offset="1" stop-color="#808080" stop-opacity="0.1" />
        </linearGradient>
        <linearGradient id="paint22_linear" x1="357.101" y1="46.0745" x2="406.168" y2="43.9507" gradientUnits="userSpaceOnUse">
            <stop stop-color="#2B5BE4" />
            <stop offset="1" stop-color="#0B69F2" />
        </linearGradient>
        <linearGradient id="paint23_linear" x1="11703.6" y1="10915.1" x2="11703.6" y2="11321.1" gradientUnits="userSpaceOnUse">
            <stop stop-color="#F2F2F2" />
            <stop offset="0.31" stop-color="#E6E6E6" />
            <stop offset="0.77" stop-color="#CCCCCC" />
        </linearGradient>
        <linearGradient id="paint24_linear" x1="8760.31" y1="10084.2" x2="8760.31" y2="9156.72" gradientUnits="userSpaceOnUse">
            <stop stop-color="#808080" stop-opacity="0.25" />
            <stop offset="0.54" stop-color="#808080" stop-opacity="0.12" />
            <stop offset="1" stop-color="#808080" stop-opacity="0.1" />
        </linearGradient>
        <linearGradient id="paint25_linear" x1="123.05" y1="202.057" x2="146.414" y2="201.046" gradientUnits="userSpaceOnUse">
            <stop stop-color="#2B5BE4" />
            <stop offset="1" stop-color="#0B69F2" />
        </linearGradient>
        <clipPath id="clip0">
            <rect width="489.6" height="408" fill="white" transform="translate(0.000305176 0.000976562)" />
        </clipPath>
    </defs>
</svg>
