<svg width="352" height="133" viewBox="0 0 352 133" fill="none" xmlns="http://www.w3.org/2000/svg">
<g clip-path="url(#clip0)">
<path opacity="0.86" d="M39.6755 25.1316H26.1249V60.45H15.8365V25.1316H2.22314V16.146H39.6755V25.1316ZM53.8093 61.074C50.0453 61.074 46.8458 60.2838 44.211 58.7028C41.618 57.1218 39.6314 55.0422 38.2512 52.4628C36.8711 49.8834 36.181 47.0964 36.181 44.1012C36.181 41.0644 36.8711 38.2564 38.2512 35.6772C39.6314 33.098 41.6389 31.018 44.2737 29.4372C46.9086 27.8564 50.0869 27.066 53.8093 27.066C57.5317 27.066 60.7101 27.8564 63.3449 29.4372C65.9798 31.018 67.9873 33.098 69.3674 35.6772C70.7476 38.2564 71.4377 41.0644 71.4377 44.1012C71.4377 47.0964 70.7476 49.8834 69.3674 52.4628C67.9873 55.0422 65.9798 57.1218 63.3449 58.7028C60.7101 60.2838 57.5317 61.074 53.8093 61.074ZM46.4694 44.1012C46.4694 46.6388 47.1595 48.698 48.5397 50.2788C49.9615 51.8598 51.718 52.65 53.8093 52.65C55.8585 52.65 57.5734 51.8598 58.9536 50.2788C60.3754 48.698 61.0865 46.6388 61.0865 44.1012C61.0865 41.5636 60.3754 39.5044 58.9536 37.9236C57.5734 36.3428 55.8585 35.5524 53.8093 35.5524C51.718 35.5524 49.9615 36.3428 48.5397 37.9236C47.1595 39.5044 46.4694 41.5636 46.4694 44.1012ZM96.177 61.074C93.6677 61.074 91.472 60.5538 89.5899 59.514C87.7079 58.4322 86.2234 56.9346 85.1358 55.0212V60.45H76.4157V14.898H86.4532V33.0564C87.4986 31.1844 88.9415 29.7284 90.7819 28.6884C92.6223 27.6068 94.7758 27.066 97.2435 27.066C100.045 27.066 102.513 27.8356 104.646 29.3748C106.821 30.914 108.515 32.9732 109.728 35.5524C110.941 38.1316 111.547 41.0228 111.547 44.226C111.547 47.3876 110.878 50.2578 109.539 52.8372C108.201 55.3746 106.361 57.3924 104.019 58.89C101.719 60.3462 99.1045 61.074 96.177 61.074ZM93.354 52.65C95.6962 52.65 97.5988 51.8388 99.0628 50.2164C100.527 48.594 101.259 46.5972 101.259 44.226C101.259 42.6868 100.924 41.2516 100.255 39.9204C99.6274 38.5892 98.7491 37.5284 97.6199 36.738C96.5324 35.9476 95.2777 35.5524 93.8559 35.5524C92.2664 35.5524 90.803 36.0932 89.4645 37.1748C88.126 38.2564 87.1222 39.6084 86.4532 41.2308V48.0948C87.1222 49.509 88.0843 50.6322 89.339 51.4644C90.6353 52.2546 91.9738 52.65 93.354 52.65ZM116.544 23.946V14.898H126.581V23.946H116.544ZM116.544 60.45V27.69H126.581V60.45H116.544ZM131.382 50.6532C131.382 48.49 131.988 46.5972 133.202 44.9748C134.415 43.3524 136.087 42.0836 138.22 41.1684C140.353 40.2116 142.8 39.7332 145.56 39.7332C146.899 39.7332 148.216 39.858 149.512 40.1076C150.809 40.3156 151.938 40.6276 152.9 41.0436V39.6084C152.9 35.906 150.704 34.0548 146.313 34.0548C144.473 34.0548 142.737 34.3668 141.106 34.9908C139.517 35.6148 137.823 36.5092 136.025 37.674L133.013 31.3092C137.363 28.4804 142.131 27.066 147.317 27.066C152.252 27.066 156.078 28.2516 158.797 30.6228C161.557 32.9524 162.938 36.3428 162.938 40.794V49.3428C162.938 50.3412 163.084 51.0486 163.377 51.4644C163.711 51.8802 164.276 52.1094 165.071 52.1508V60.45C164.192 60.6162 163.398 60.741 162.687 60.8244C161.975 60.9078 161.348 60.9492 160.805 60.9492C158.923 60.9492 157.48 60.5748 156.476 59.826C155.514 59.0772 154.908 58.0578 154.657 56.7684L154.468 55.3332C153.004 57.2052 151.248 58.6404 149.199 59.6388C147.15 60.5958 145.037 61.074 142.863 61.074C140.688 61.074 138.722 60.6162 136.966 59.7012C135.251 58.7862 133.892 57.5586 132.888 56.0196C131.884 54.4386 131.382 52.65 131.382 50.6532ZM151.332 51.9012C152.377 51.069 152.9 50.2164 152.9 49.3428V46.41C152.022 46.0772 151.06 45.8276 150.014 45.6612C149.011 45.4532 148.091 45.3492 147.254 45.3492C145.372 45.3492 143.825 45.7652 142.612 46.5972C141.441 47.4292 140.855 48.49 140.855 49.7796C140.855 50.9028 141.294 51.8802 142.173 52.7124C143.092 53.5026 144.305 53.898 145.811 53.898C146.815 53.898 147.819 53.7108 148.822 53.3364C149.826 52.962 150.663 52.4838 151.332 51.9012ZM182.82 61.074C179.976 61.074 177.216 60.6162 174.539 59.7012C171.905 58.7442 169.667 57.3924 167.827 55.6452L171.277 49.3428C175.334 52.2966 179.077 53.7732 182.507 53.7732C183.803 53.7732 184.807 53.565 185.518 53.1492C186.229 52.7334 186.584 52.0884 186.584 51.2148C186.584 50.2998 186.104 49.6548 185.142 49.2804C184.179 48.8646 182.758 48.386 180.876 47.8452C178.366 47.0132 176.275 46.202 174.602 45.4116C172.929 44.6212 171.675 43.6644 170.838 42.5412C170.002 41.418 169.583 39.9204 169.583 38.0484C169.583 34.762 170.817 32.1204 173.285 30.1236C175.753 28.0852 179.098 27.066 183.322 27.066C185.581 27.066 187.776 27.4196 189.909 28.1268C192.084 28.834 194.113 30.0196 195.995 31.6836L192.105 37.9236C190.223 36.634 188.55 35.698 187.086 35.1156C185.622 34.5332 184.201 34.242 182.82 34.242C181.733 34.242 180.813 34.45 180.06 34.866C179.307 35.2404 178.931 35.906 178.931 36.8628C178.931 37.778 179.349 38.4644 180.186 38.922C181.022 39.338 182.319 39.7956 184.075 40.2948C186.752 41.0852 188.989 41.8964 190.788 42.7284C192.628 43.5188 193.987 44.5172 194.865 45.7236C195.785 46.8884 196.246 48.4484 196.246 50.4036C196.246 53.7318 195.033 56.3526 192.607 58.266C190.181 60.138 186.919 61.074 182.82 61.074ZM2.92891 101.127C2.92891 99.099 3.28963 97.1022 4.01107 95.1366C4.76388 93.171 5.84605 91.3926 7.25757 89.8014C8.66909 88.2102 10.3943 86.9466 12.4331 86.0106C14.472 85.0434 16.7932 84.5598 19.3967 84.5598C22.4393 84.5598 25.0898 85.2306 27.3482 86.5722C29.6067 87.9138 31.2848 89.661 32.3826 91.8138L27.3953 95.2302C26.8307 93.9822 26.0935 92.9994 25.1839 92.2818C24.2742 91.5642 23.2862 91.0494 22.2197 90.7374C21.1846 90.4254 20.1808 90.2694 19.2084 90.2694C17.5774 90.2694 16.1502 90.597 14.9268 91.2522C13.7349 91.9074 12.7311 92.7654 11.9156 93.8262C11.1 94.887 10.4884 96.0726 10.0806 97.383C9.70421 98.6934 9.516 100.004 9.516 101.314C9.516 103.28 9.92378 105.121 10.7393 106.837C11.5549 108.521 12.6998 109.894 14.174 110.955C15.6483 112.016 17.3578 112.546 19.3025 112.546C20.3063 112.546 21.3414 112.375 22.4079 112.031C23.5057 111.688 24.5095 111.142 25.4191 110.393C26.3288 109.645 27.0345 108.677 27.5364 107.492L32.8532 110.534C32.1631 112.187 31.0809 113.591 29.6067 114.746C28.1324 115.869 26.4699 116.743 24.6193 117.367C22.7686 117.959 20.9336 118.256 19.1143 118.256C16.7304 118.256 14.5504 117.772 12.5743 116.805C10.6295 115.807 8.93571 114.496 7.49282 112.874C6.04994 111.22 4.92072 109.379 4.10517 107.351C3.32099 105.292 2.92891 103.217 2.92891 101.127ZM34.9021 110.721C34.9021 109.13 35.3412 107.741 36.2195 106.556C37.1291 105.339 38.3838 104.403 39.9835 103.748C41.5833 103.093 43.4182 102.765 45.4885 102.765C46.5236 102.765 47.5744 102.859 48.6409 103.046C49.7076 103.202 50.6329 103.436 51.4171 103.748V102.437C51.4171 100.877 50.9466 99.6762 50.0056 98.8338C49.0959 97.9914 47.7312 97.5702 45.9119 97.5702C44.5631 97.5702 43.2771 97.8042 42.0538 98.2722C40.8304 98.7402 39.5444 99.4266 38.1956 100.331L36.1724 96.213C37.8035 95.1522 39.466 94.3566 41.1598 93.8262C42.885 93.2958 44.6886 93.0306 46.5706 93.0306C50.084 93.0306 52.8129 93.9042 54.7577 95.6514C56.7338 97.3986 57.7219 99.8946 57.7219 103.139V110.955C57.7219 111.641 57.8317 112.125 58.0513 112.406C58.2708 112.655 58.6629 112.811 59.2275 112.874V117.975C58.6629 118.1 58.1454 118.178 57.6748 118.209C57.2357 118.271 56.8593 118.303 56.5456 118.303C55.2909 118.303 54.3342 118.022 53.6755 117.46C53.0168 116.899 52.6247 116.212 52.4993 115.401L52.3581 114.137C51.2603 115.541 49.9115 116.618 48.3115 117.367C46.7432 118.084 45.1277 118.443 43.4653 118.443C41.8028 118.443 40.3286 118.115 39.0425 117.46C37.7565 116.774 36.737 115.853 35.9842 114.699C35.2628 113.513 34.9021 112.187 34.9021 110.721ZM50.2408 111.985C51.025 111.236 51.4171 110.518 51.4171 109.832V107.351C49.786 106.696 48.139 106.369 46.4765 106.369C44.8141 106.369 43.4653 106.727 42.4302 107.445C41.3951 108.131 40.8775 109.052 40.8775 110.206C40.8775 111.142 41.2539 111.985 42.0067 112.733C42.7595 113.482 43.8417 113.857 45.2532 113.857C46.1942 113.857 47.1039 113.685 47.9822 113.342C48.8918 112.999 49.6449 112.546 50.2408 111.985ZM62.1079 105.713C62.1079 103.373 62.5784 101.236 63.5194 99.3018C64.4604 97.3674 65.7622 95.8386 67.4246 94.7154C69.0871 93.5922 70.9848 93.0306 73.1178 93.0306C74.9371 93.0306 76.5682 93.483 78.011 94.3878C79.4853 95.2614 80.6302 96.3846 81.4457 97.7574V83.811H87.7505V110.955C87.7505 111.641 87.8603 112.125 88.0799 112.406C88.2995 112.655 88.6759 112.811 89.2091 112.874V117.975C88.0799 118.193 87.1859 118.303 86.5272 118.303C85.398 118.303 84.457 118.022 83.7042 117.46C82.9827 116.899 82.575 116.165 82.4809 115.261L82.3868 113.716C81.4771 115.245 80.2381 116.415 78.6698 117.226C77.1328 118.037 75.5174 118.443 73.8235 118.443C71.5337 118.443 69.5106 117.881 67.754 116.758C65.9974 115.604 64.6173 114.075 63.6135 112.172C62.6098 110.237 62.1079 108.085 62.1079 105.713ZM81.4457 108.989V103.139C80.9439 101.767 80.0813 100.628 78.858 99.723C77.6346 98.8182 76.38 98.3658 75.0939 98.3658C73.8079 98.3658 72.6786 98.7246 71.7063 99.4422C70.7339 100.129 69.9811 101.049 69.4478 102.203C68.9146 103.327 68.648 104.543 68.648 105.854C68.648 107.195 68.9459 108.428 69.5419 109.551C70.1379 110.643 70.9378 111.517 71.9415 112.172C72.9766 112.796 74.1529 113.108 75.4703 113.108C76.6623 113.108 77.8385 112.718 78.9991 111.938C80.1911 111.158 81.0066 110.175 81.4457 108.989ZM105.325 118.443C102.628 118.443 100.307 117.866 98.3619 116.711C96.4485 115.526 94.9743 113.966 93.9392 112.031C92.9041 110.097 92.3865 108.007 92.3865 105.76C92.3865 103.483 92.9041 101.377 93.9392 99.4422C95.0057 97.5078 96.4956 95.9634 98.409 94.809C100.354 93.6234 102.659 93.0306 105.325 93.0306C107.992 93.0306 110.281 93.6234 112.195 94.809C114.14 95.9634 115.63 97.5078 116.665 99.4422C117.7 101.377 118.217 103.483 118.217 105.76C118.217 108.007 117.7 110.097 116.665 112.031C115.63 113.966 114.14 115.526 112.195 116.711C110.281 117.866 107.992 118.443 105.325 118.443ZM98.8795 105.76C98.8795 107.195 99.1618 108.475 99.7264 109.598C100.291 110.69 101.06 111.548 102.032 112.172C103.004 112.796 104.102 113.108 105.325 113.108C106.517 113.108 107.6 112.796 108.572 112.172C109.544 111.517 110.313 110.643 110.877 109.551C111.473 108.428 111.771 107.149 111.771 105.713C111.771 104.309 111.473 103.061 110.877 101.969C110.313 100.846 109.544 99.9726 108.572 99.3486C107.6 98.6934 106.517 98.3658 105.325 98.3658C104.102 98.3658 103.004 98.6934 102.032 99.3486C101.06 99.9726 100.291 100.846 99.7264 101.969C99.1618 103.061 98.8795 104.325 98.8795 105.76ZM145.386 117.975H139.081V104.216C139.081 102.25 138.736 100.815 138.046 99.9102C137.356 99.0054 136.399 98.553 135.176 98.553C134.329 98.553 133.467 98.7714 132.588 99.2082C131.741 99.645 130.973 100.253 130.283 101.033C129.593 101.782 129.091 102.656 128.777 103.654V117.975H122.472V93.4518H128.166V97.9914C129.075 96.4626 130.393 95.2614 132.118 94.3878C133.843 93.483 135.788 93.0306 137.952 93.0306C139.489 93.0306 140.744 93.3114 141.716 93.873C142.689 94.4034 143.441 95.1366 143.975 96.0726C144.508 96.9774 144.869 98.007 145.057 99.1614C145.276 100.316 145.386 101.486 145.386 102.671V117.975ZM149.175 110.721C149.175 109.13 149.614 107.741 150.492 106.556C151.402 105.339 152.656 104.403 154.256 103.748C155.856 103.093 157.691 102.765 159.761 102.765C160.796 102.765 161.847 102.859 162.914 103.046C163.98 103.202 164.905 103.436 165.69 103.748V102.437C165.69 100.877 165.219 99.6762 164.278 98.8338C163.368 97.9914 162.004 97.5702 160.185 97.5702C158.836 97.5702 157.55 97.8042 156.326 98.2722C155.103 98.7402 153.817 99.4266 152.468 100.331L150.445 96.213C152.076 95.1522 153.739 94.3566 155.432 93.8262C157.158 93.2958 158.961 93.0306 160.843 93.0306C164.356 93.0306 167.085 93.9042 169.03 95.6514C171.006 97.3986 171.994 99.8946 171.994 103.139V110.955C171.994 111.641 172.104 112.125 172.324 112.406C172.543 112.655 172.935 112.811 173.5 112.874V117.975C172.935 118.1 172.418 118.178 171.947 118.209C171.508 118.271 171.132 118.303 170.818 118.303C169.563 118.303 168.607 118.022 167.948 117.46C167.289 116.899 166.897 116.212 166.772 115.401L166.631 114.137C165.533 115.541 164.184 116.618 162.584 117.367C161.016 118.084 159.4 118.443 157.738 118.443C156.076 118.443 154.601 118.115 153.315 117.46C152.029 116.774 151.01 115.853 150.257 114.699C149.535 113.513 149.175 112.187 149.175 110.721ZM164.513 111.985C165.297 111.236 165.69 110.518 165.69 109.832V107.351C164.058 106.696 162.412 106.369 160.749 106.369C159.087 106.369 157.738 106.727 156.703 107.445C155.668 108.131 155.15 109.052 155.15 110.206C155.15 111.142 155.527 111.985 156.279 112.733C157.032 113.482 158.114 113.857 159.526 113.857C160.467 113.857 161.377 113.685 162.255 113.342C163.164 112.999 163.917 112.546 164.513 111.985ZM162.914 90.597L158.867 89.3802L161.408 83.811H167.289L162.914 90.597ZM217.043 117.975V96.1662L208.48 112.406H204.857L196.294 96.1662V117.975H189.801V84.747H196.764L206.645 103.654L216.619 84.747H223.536V117.975H217.043ZM227.929 110.721C227.929 109.13 228.368 107.741 229.247 106.556C230.156 105.339 231.411 104.403 233.011 103.748C234.61 103.093 236.445 102.765 238.516 102.765C239.551 102.765 240.602 102.859 241.668 103.046C242.735 103.202 243.66 103.436 244.444 103.748V102.437C244.444 100.877 243.974 99.6762 243.033 98.8338C242.123 97.9914 240.758 97.5702 238.939 97.5702C237.59 97.5702 236.304 97.8042 235.081 98.2722C233.858 98.7402 232.572 99.4266 231.223 100.331L229.2 96.213C230.831 95.1522 232.493 94.3566 234.187 93.8262C235.912 93.2958 237.716 93.0306 239.598 93.0306C243.111 93.0306 245.84 93.9042 247.785 95.6514C249.761 97.3986 250.749 99.8946 250.749 103.139V110.955C250.749 111.641 250.859 112.125 251.078 112.406C251.298 112.655 251.69 112.811 252.254 112.874V117.975C251.69 118.1 251.172 118.178 250.702 118.209C250.263 118.271 249.886 118.303 249.573 118.303C248.318 118.303 247.361 118.022 246.703 117.46C246.044 116.899 245.652 116.212 245.526 115.401L245.385 114.137C244.287 115.541 242.938 116.618 241.339 117.367C239.77 118.084 238.155 118.443 236.493 118.443C234.83 118.443 233.356 118.115 232.07 117.46C230.784 116.774 229.764 115.853 229.011 114.699C228.29 113.513 227.929 112.187 227.929 110.721ZM243.268 111.985C244.052 111.236 244.444 110.518 244.444 109.832V107.351C242.813 106.696 241.166 106.369 239.504 106.369C237.841 106.369 236.493 106.727 235.457 107.445C234.422 108.131 233.905 109.052 233.905 110.206C233.905 111.142 234.281 111.985 235.034 112.733C235.787 113.482 236.869 113.857 238.28 113.857C239.221 113.857 240.131 113.685 241.009 113.342C241.919 112.999 242.672 112.546 243.268 111.985ZM271.32 98.8806C269.407 98.8806 267.697 99.255 266.192 100.004C264.686 100.721 263.604 101.767 262.945 103.139V117.975H256.641V93.4518H262.428V98.6934C263.275 97.0086 264.372 95.6826 265.721 94.7154C267.101 93.7482 268.544 93.2178 270.05 93.1242C270.709 93.1242 271.132 93.1398 271.32 93.171V98.8806ZM274.836 90.0354V83.811H281.141V90.0354H274.836ZM274.836 117.975V93.4518H281.141V117.975H274.836ZM298.215 118.443C295.517 118.443 293.196 117.866 291.251 116.711C289.338 115.526 287.864 113.966 286.828 112.031C285.793 110.097 285.276 108.007 285.276 105.76C285.276 103.483 285.793 101.377 286.828 99.4422C287.895 97.5078 289.385 95.9634 291.298 94.809C293.243 93.6234 295.549 93.0306 298.215 93.0306C300.881 93.0306 303.171 93.6234 305.084 94.809C307.029 95.9634 308.519 97.5078 309.554 99.4422C310.589 101.377 311.107 103.483 311.107 105.76C311.107 108.007 310.589 110.097 309.554 112.031C308.519 113.966 307.029 115.526 305.084 116.711C303.171 117.866 300.881 118.443 298.215 118.443ZM291.769 105.76C291.769 107.195 292.051 108.475 292.616 109.598C293.18 110.69 293.949 111.548 294.921 112.172C295.894 112.796 296.991 113.108 298.215 113.108C299.407 113.108 300.489 112.796 301.461 112.172C302.434 111.517 303.202 110.643 303.767 109.551C304.363 108.428 304.661 107.149 304.661 105.713C304.661 104.309 304.363 103.061 303.767 101.969C303.202 100.846 302.434 99.9726 301.461 99.3486C300.489 98.6934 299.407 98.3658 298.215 98.3658C296.991 98.3658 295.894 98.6934 294.921 99.3486C293.949 99.9726 293.18 100.846 292.616 101.969C292.051 103.061 291.769 104.325 291.769 105.76ZM338.276 117.975H331.971V104.216C331.971 102.25 331.626 100.815 330.936 99.9102C330.246 99.0054 329.289 98.553 328.066 98.553C327.219 98.553 326.356 98.7714 325.478 99.2082C324.631 99.645 323.863 100.253 323.173 101.033C322.483 101.782 321.981 102.656 321.667 103.654V117.975H315.362V93.4518H321.055V97.9914C321.965 96.4626 323.282 95.2614 325.008 94.3878C326.733 93.483 328.678 93.0306 330.842 93.0306C332.379 93.0306 333.634 93.3114 334.606 93.873C335.578 94.4034 336.331 95.1366 336.864 96.0726C337.398 96.9774 337.758 98.007 337.947 99.1614C338.166 100.316 338.276 101.486 338.276 102.671V117.975Z" fill="white"/>
<path opacity="0.86" d="M351.892 114.456C351.892 115.05 351.778 115.614 351.548 116.147C351.318 116.68 351.004 117.145 350.606 117.541C350.208 117.937 349.741 118.249 349.205 118.478C348.668 118.706 348.094 118.82 347.481 118.82C346.884 118.82 346.317 118.706 345.782 118.478C345.245 118.249 344.778 117.937 344.38 117.541C343.982 117.145 343.668 116.68 343.438 116.147C343.208 115.614 343.093 115.05 343.093 114.456C343.093 113.846 343.208 113.275 343.438 112.742C343.668 112.209 343.982 111.744 344.38 111.348C344.778 110.952 345.245 110.64 345.782 110.411C346.317 110.183 346.884 110.068 347.481 110.068C348.094 110.068 348.668 110.183 349.205 110.411C349.741 110.64 350.208 110.952 350.606 111.348C351.004 111.744 351.318 112.209 351.548 112.742C351.778 113.275 351.892 113.846 351.892 114.456Z" fill="url(#paint0_linear)"/>
<path d="M83.8202 67.275H3.44189C2.35917 67.275 1.31562 68.1323 1.11107 69.1899L0.37032 73.0197C0.165767 74.0772 0.877666 74.9346 1.96039 74.9346H82.3387C83.4214 74.9346 84.4649 74.0772 84.6695 73.0197L85.4102 69.1899C85.6148 68.1323 84.9029 67.275 83.8202 67.275Z" fill="url(#paint1_linear)"/>
</g>
<defs>
<linearGradient id="paint0_linear" x1="1.58138" y1="135.032" x2="391.365" y2="90.069" gradientUnits="userSpaceOnUse">
<stop stop-color="#2B5BE4"/>
<stop offset="1" stop-color="#0B69F2"/>
</linearGradient>
<linearGradient id="paint1_linear" x1="-4.72326e-05" y1="75.075" x2="87.328" y2="50.3064" gradientUnits="userSpaceOnUse">
<stop stop-color="#2B5BE4"/>
<stop offset="1" stop-color="#0B69F2"/>
</linearGradient>
<clipPath id="clip0">
<rect width="351.9" height="132.6" fill="white"/>
</clipPath>
</defs>
</svg>
