<svg width="120" height="824" viewBox="0 0 120 824" fill="none" xmlns="http://www.w3.org/2000/svg">
    <path opacity="0.04" d="M116.6 44.9544L118.6 44.9544L118.6 43.5606L117.292 43.0781L116.6 44.9544ZM116.6 67.3544L117.29 69.2316L118.6 68.75L118.6 67.3544L116.6 67.3544ZM3 109.114L0.999995 109.114L0.999995 111.98L3.69006 110.992L3 109.114ZM3 86.3944L2.30124 84.5204L0.999996 85.0056L0.999996 86.3944L3 86.3944ZM31.32 75.8344L32.0188 77.7083L33.32 77.2231L33.32 75.8344L31.32 75.8344ZM31.32 36.1544L33.32 36.1544L33.32 34.7582L32.0094 34.277L31.32 36.1544ZM3 25.7544L0.999999 25.7544L0.999999 27.1505L2.31056 27.6318L3 25.7544ZM3 3.03437L3.69238 1.15804L1 0.164513L1 3.03437L3 3.03437ZM46.84 71.8344L44.84 71.8344L44.84 74.6122L47.4744 73.7311L46.84 71.8344ZM93.72 56.1544L94.3544 58.0511L99.912 56.1922L94.3775 54.2656L93.72 56.1544ZM46.84 39.8344L47.4975 37.9456L44.84 37.0204L44.84 39.8344L46.84 39.8344ZM114.6 44.9544L114.6 67.3544L118.6 67.3544L118.6 44.9544L114.6 44.9544ZM115.91 65.4772L2.30993 107.237L3.69006 110.992L117.29 69.2316L115.91 65.4772ZM5 109.114L5 86.3944L0.999996 86.3944L0.999995 109.114L5 109.114ZM3.69876 88.2683L32.0188 77.7083L30.6212 73.9604L2.30124 84.5204L3.69876 88.2683ZM33.32 75.8344L33.32 36.1544L29.32 36.1544L29.32 75.8344L33.32 75.8344ZM32.0094 34.277L3.68944 23.877L2.31056 27.6318L30.6306 38.0318L32.0094 34.277ZM5 25.7544L5 3.03437L1 3.03437L0.999999 25.7544L5 25.7544ZM2.30762 4.91069L115.908 46.8307L117.292 43.0781L3.69238 1.15804L2.30762 4.91069ZM47.4744 73.7311L94.3544 58.0511L93.0856 54.2577L46.2056 69.9377L47.4744 73.7311ZM94.3775 54.2656L47.4975 37.9456L46.1825 41.7232L93.0625 58.0432L94.3775 54.2656ZM44.84 39.8344L44.84 71.8344L48.84 71.8344L48.84 39.8344L44.84 39.8344ZM16.12 208.134L14.8948 209.715L14.9043 209.722L14.9138 209.73L16.12 208.134ZM6.35999 194.694L8.2194 193.958L8.21447 193.945L6.35999 194.694ZM2.99999 121.574L2.99999 119.574L0.999995 119.574L0.999995 121.574L2.99999 121.574ZM116.6 121.574L118.6 121.574L118.6 119.574L116.6 119.574L116.6 121.574ZM112.28 196.134L110.68 194.934L110.669 194.949L110.659 194.963L112.28 196.134ZM101.4 205.094L100.54 203.289L101.4 205.094ZM71.96 204.134L70.9594 205.866L70.9676 205.871L70.9759 205.875L71.96 204.134ZM61.24 191.974L63.0706 191.169L60.8689 186.165L59.3218 191.408L61.24 191.974ZM50.84 207.334L49.6455 205.73L49.6346 205.738L49.6238 205.747L50.84 207.334ZM97.72 143.654L99.72 143.654L99.72 141.654L97.72 141.654L97.72 143.654ZM69.08 143.654L69.08 141.654L67.08 141.654L67.08 143.654L69.08 143.654ZM72.92 182.534L71.4772 183.919L72.92 182.534ZM93.72 182.854L92.3987 181.353L92.3669 181.381L92.3362 181.41L93.72 182.854ZM47.16 187.014L45.8584 185.496L47.16 187.014ZM51.64 143.654L53.64 143.654L53.64 141.654L51.64 141.654L51.64 143.654ZM21.72 143.654L21.72 141.654L19.72 141.654L19.72 143.654L21.72 143.654ZM26.04 186.694L24.6527 188.135L24.6527 188.135L26.04 186.694ZM32.28 211.094C26.2398 211.094 21.2964 209.541 17.3262 206.539L14.9138 209.73C19.6903 213.341 25.5202 215.094 32.28 215.094L32.28 211.094ZM17.3451 206.554C13.3962 203.493 10.3444 199.321 8.21935 193.958L4.50063 195.431C6.85554 201.374 10.3105 206.162 14.8948 209.715L17.3451 206.554ZM8.21447 193.945C6.08025 188.661 4.99999 182.838 4.99999 176.454L0.999992 176.454C0.999992 183.297 2.15974 189.635 4.50552 195.443L8.21447 193.945ZM4.99999 176.454L4.99999 121.574L0.999995 121.574L0.999992 176.454L4.99999 176.454ZM2.99999 123.574L116.6 123.574L116.6 119.574L2.99999 119.574L2.99999 123.574ZM114.6 121.574L114.6 182.374L118.6 182.374L118.6 121.574L114.6 121.574ZM114.6 182.374C114.6 187.326 113.272 191.479 110.68 194.934L113.88 197.334C117.048 193.11 118.6 188.09 118.6 182.374L114.6 182.374ZM110.659 194.963C108.091 198.518 104.732 201.293 100.54 203.289L102.26 206.9C107.028 204.63 110.922 201.431 113.901 197.305L110.659 194.963ZM100.54 203.289C96.313 205.302 92.0189 206.294 87.64 206.294L87.64 210.294C92.6478 210.294 97.527 209.154 102.26 206.9L100.54 203.289ZM87.64 206.294C82.444 206.294 77.5556 205 72.9441 202.393L70.9759 205.875C76.1777 208.816 81.7427 210.294 87.64 210.294L87.64 206.294ZM72.9605 202.403C68.5482 199.853 65.2554 196.134 63.0706 191.169L59.4094 192.78C61.9179 198.481 65.7718 202.869 70.9594 205.866L72.9605 202.403ZM59.3218 191.408C57.5132 197.537 54.2814 202.278 49.6455 205.73L52.0345 208.938C57.4252 204.924 61.1268 199.425 63.1582 192.54L59.3218 191.408ZM49.6238 205.747C45.0152 209.277 39.276 211.094 32.28 211.094L32.28 215.094C40.004 215.094 46.6381 213.072 52.0562 208.922L49.6238 205.747ZM97.72 141.654L69.08 141.654L69.08 145.654L97.72 145.654L97.72 141.654ZM67.08 143.654L67.08 173.094L71.08 173.094L71.08 143.654L67.08 143.654ZM67.08 173.094C67.08 177.248 68.5673 180.888 71.4772 183.919L74.3628 181.149C72.1526 178.847 71.08 176.194 71.08 173.094L67.08 173.094ZM71.4772 183.919C74.4924 187.06 78.5794 188.534 83.48 188.534L83.48 184.534C79.4206 184.534 76.4676 183.342 74.3628 181.149L71.4772 183.919ZM83.48 188.534C88.151 188.534 92.0981 187.179 95.1038 184.298L92.3362 181.41C90.2219 183.437 87.3424 184.534 83.48 184.534L83.48 188.534ZM95.0413 184.356C98.1349 181.633 99.72 178.155 99.72 174.054L95.72 174.054C95.72 176.994 94.6385 179.382 92.3987 181.353L95.0413 184.356ZM99.72 174.054L99.72 143.654L95.72 143.654L95.72 174.054L99.72 174.054ZM36.44 192.854C41.0476 192.854 45.0904 191.422 48.4616 188.533L45.8584 185.496C43.2562 187.726 40.1524 188.854 36.44 188.854L36.44 192.854ZM48.4616 188.533C51.8644 185.616 53.64 181.926 53.64 177.574L49.64 177.574C49.64 180.689 48.4289 183.293 45.8584 185.496L48.4616 188.533ZM53.64 177.574L53.64 143.654L49.64 143.654L49.64 177.574L53.64 177.574ZM51.64 141.654L21.72 141.654L21.72 145.654L51.64 145.654L51.64 141.654ZM19.72 143.654L19.72 176.454L23.72 176.454L23.72 143.654L19.72 143.654ZM19.72 176.454C19.72 181.043 21.3751 184.979 24.6527 188.135L27.4273 185.254C24.9448 182.863 23.72 179.973 23.72 176.454L19.72 176.454ZM24.6527 188.135C27.9111 191.273 31.8772 192.854 36.44 192.854L36.44 188.854C32.8961 188.854 29.9289 187.663 27.4273 185.254L24.6527 188.135ZM6.99999 256.084L5.19423 255.224L5.18908 255.235L6.99999 256.084ZM19.96 238.644L18.6512 237.132L18.6357 237.145L18.6205 237.159L19.96 238.644ZM38.52 227.444L37.802 225.578L37.7923 225.581L38.52 227.444ZM81.4 227.604L80.6472 229.457L80.6572 229.461L81.4 227.604ZM99.8 239.284L98.4302 240.742L98.4374 240.748L98.4446 240.755L99.8 239.284ZM112.6 256.884L110.783 257.721L110.789 257.733L112.6 256.884ZM112.44 301.684L110.645 300.801L110.64 300.813L112.44 301.684ZM99.16 319.124L97.8512 317.612L97.843 317.619L97.8348 317.626L99.16 319.124ZM80.44 330.324L79.7472 328.448L79.7297 328.455L79.7123 328.461L80.44 330.324ZM37.88 330.164L37.1272 332.017L37.1372 332.021L37.88 330.164ZM19.48 318.484L20.8353 317.014L20.8341 317.013L19.48 318.484ZM6.83998 300.884L8.66173 300.059L8.65676 300.048L6.83998 300.884ZM41.24 249.684L40.4277 247.857L40.4137 247.863L40.3997 247.869L41.24 249.684ZM27.16 261.044L25.5516 259.856L25.5456 259.864L25.5395 259.872L27.16 261.044ZM27.32 297.044L25.7283 298.255L27.32 297.044ZM41.72 308.244L40.9201 310.077L41.72 308.244ZM78.36 308.084L77.5197 306.269L78.36 308.084ZM92.28 296.564L90.6716 295.376L90.6572 295.395L90.6432 295.415L92.28 296.564ZM92.12 260.884L93.7117 259.673L93.7117 259.673L92.12 260.884ZM77.72 249.684L76.9077 251.512L76.9201 251.517L77.72 249.684ZM4.19998 278.804C4.19999 270.747 5.74784 263.468 8.8109 256.933L5.18908 255.235C1.85215 262.354 0.199985 270.222 0.199985 278.804L4.19998 278.804ZM8.80571 256.944C11.8947 250.457 16.0576 244.858 21.2995 240.13L18.6205 237.159C12.9824 242.245 8.50527 248.271 5.19426 255.224L8.80571 256.944ZM21.2687 240.157C26.6433 235.506 32.6335 231.891 39.2477 229.307L37.7923 225.581C30.7532 228.331 24.3701 232.183 18.6512 237.132L21.2687 240.157ZM39.238 229.311C45.9478 226.73 52.7981 225.444 59.8 225.444L59.8 221.444C52.2952 221.444 44.9588 222.825 37.802 225.578L39.238 229.311ZM59.8 225.444C67.1226 225.444 74.0664 226.784 80.6472 229.457L82.1527 225.751C75.0803 222.878 67.6241 221.444 59.8 221.444L59.8 225.444ZM80.6572 229.461C87.3632 232.144 93.2827 235.903 98.4302 240.742L101.17 237.827C95.6506 232.639 89.3035 228.612 82.1428 225.747L80.6572 229.461ZM98.4446 240.755C103.69 245.589 107.8 251.241 110.783 257.721L114.417 256.048C111.213 249.088 106.79 243.006 101.155 237.814L98.4446 240.755ZM110.789 257.733C113.855 264.275 115.4 271.449 115.4 279.284L119.4 279.284C119.4 270.907 117.745 263.147 114.411 256.036L110.789 257.733ZM115.4 279.284C115.4 287.222 113.804 294.382 110.645 300.801L114.235 302.567C117.689 295.547 119.4 287.774 119.4 279.284L115.4 279.284ZM110.64 300.813C107.448 307.403 103.185 312.996 97.8512 317.612L100.469 320.637C106.228 315.653 110.819 309.619 114.24 302.556L110.64 300.813ZM97.8348 317.626C92.4734 322.369 86.4477 325.974 79.7472 328.448L81.1327 332.201C88.2989 329.555 94.7533 325.693 100.485 320.622L97.8348 317.626ZM79.7123 328.461C73.1115 331.04 66.3713 332.324 59.48 332.324L59.48 336.324C66.882 336.324 74.1151 334.942 81.1677 332.187L79.7123 328.461ZM59.48 332.324C52.2678 332.324 45.3199 330.986 38.6228 328.307L37.1372 332.021C44.3068 334.889 51.7589 336.324 59.48 336.324L59.48 332.324ZM38.6327 328.311C32.0291 325.629 26.0997 321.865 20.8353 317.014L18.1246 319.955C23.7402 325.13 30.0775 329.153 37.1272 332.017L38.6327 328.311ZM20.8341 317.013C15.7052 312.294 11.648 306.649 8.6617 300.059L5.01828 301.71C8.21861 308.773 12.5881 314.861 18.1259 319.956L20.8341 317.013ZM8.65676 300.048C5.69373 293.611 4.19998 286.54 4.19998 278.804L0.199985 278.804C0.199984 287.069 1.79958 294.718 5.02323 301.721L8.65676 300.048ZM59.8 243.844C52.9209 243.844 46.456 245.178 40.4277 247.857L42.0523 251.512C47.544 249.071 53.4524 247.844 59.8 247.844L59.8 243.844ZM40.3997 247.869C34.348 250.671 29.3859 254.668 25.5516 259.856L28.7683 262.233C32.1874 257.607 36.612 254.031 42.0802 251.499L40.3997 247.869ZM25.5395 259.872C21.6368 265.267 19.72 271.663 19.72 278.964L23.72 278.964C23.72 272.399 25.4299 266.848 28.7804 262.217L25.5395 259.872ZM19.72 278.964C19.72 286.476 21.6893 292.947 25.7283 298.255L28.9116 295.833C25.484 291.328 23.72 285.746 23.72 278.964L19.72 278.964ZM25.7283 298.255C29.6763 303.444 34.7532 307.386 40.9201 310.077L42.5199 306.411C36.9534 303.982 32.4304 300.458 28.9116 295.833L25.7283 298.255ZM40.9201 310.077C47.0301 312.744 53.3285 314.084 59.8 314.084L59.8 310.084C53.8982 310.084 48.1432 308.865 42.5199 306.411L40.9201 310.077ZM59.8 314.084C66.691 314.084 73.1658 312.693 79.2002 309.899L77.5197 306.269C72.0342 308.809 66.1356 310.084 59.8 310.084L59.8 314.084ZM79.2002 309.899C85.2677 307.09 90.187 303.026 93.9168 297.714L90.6432 295.415C87.333 300.13 82.9723 303.745 77.5197 306.269L79.2002 309.899ZM93.8883 297.753C97.7994 292.462 99.72 286.166 99.72 278.964L95.72 278.964C95.72 285.416 94.014 290.854 90.6716 295.376L93.8883 297.753ZM99.72 278.964C99.72 271.453 97.7507 264.982 93.7117 259.673L90.5283 262.095C93.956 266.6 95.72 272.183 95.72 278.964L99.72 278.964ZM93.7117 259.673C89.7637 254.485 84.6868 250.542 78.5199 247.851L76.9201 251.517C82.4865 253.946 87.0096 257.471 90.5283 262.095L93.7117 259.673ZM78.5323 247.857C72.5215 245.185 66.2719 243.844 59.8 243.844L59.8 247.844C65.7014 247.844 71.3985 249.063 76.9077 251.512L78.5323 247.857ZM6.67998 376.222L4.88508 375.34L4.87617 375.358L4.86761 375.376L6.67998 376.222ZM19.32 360.862L18.1514 359.239L18.1408 359.246L18.1303 359.254L19.32 360.862ZM37.4 352.382L36.8865 350.449L36.8789 350.451L37.4 352.382ZM116.6 349.662L118.6 349.662L118.6 347.662L116.6 347.662L116.6 349.662ZM116.6 371.742L116.6 373.742L118.6 373.742L118.6 371.742L116.6 371.742ZM40.76 374.302L41.338 376.217L40.76 374.302ZM27 382.942L28.5101 384.253L27 382.942ZM27 415.902L25.4899 417.213L25.4996 417.224L25.5095 417.235L27 415.902ZM40.92 424.542L41.498 422.627L41.498 422.627L40.92 424.542ZM116.6 427.102L118.6 427.102L118.6 425.102L116.6 425.102L116.6 427.102ZM116.6 449.022L116.6 451.022L118.6 451.022L118.6 449.022L116.6 449.022ZM36.76 446.142L37.3015 444.217L37.2875 444.213L37.2734 444.209L36.76 446.142ZM18.68 437.342L19.9056 435.761L19.901 435.758L18.68 437.342ZM6.51999 421.982L4.70137 422.814L4.70717 422.827L4.71313 422.839L6.51999 421.982ZM4.19998 399.422C4.19998 390.567 5.65912 383.139 8.49235 377.068L4.86761 375.376C1.72751 382.105 0.19998 390.143 0.19998 399.422L4.19998 399.422ZM8.47488 377.104C11.4356 371.081 15.4478 366.215 20.5097 362.47L18.1303 359.254C12.5256 363.402 8.11107 368.776 4.88508 375.34L8.47488 377.104ZM20.4886 362.485C25.615 358.794 31.4198 356.067 37.921 354.313L36.8789 350.451C29.9402 352.323 23.6916 355.25 18.1514 359.239L20.4886 362.485ZM37.9134 354.315C44.5657 352.548 51.486 351.662 58.68 351.662L58.68 347.662C51.154 347.662 43.8876 348.589 36.8865 350.449L37.9134 354.315ZM58.68 351.662L116.6 351.662L116.6 347.662L58.68 347.662L58.68 351.662ZM114.6 349.662L114.6 371.742L118.6 371.742L118.6 349.662L114.6 349.662ZM116.6 369.742L58.68 369.742L58.68 373.742L116.6 373.742L116.6 369.742ZM58.68 369.742C52.2037 369.742 46.0347 370.62 40.182 372.387L41.338 376.217C46.7919 374.57 52.5696 373.742 58.68 373.742L58.68 369.742ZM40.182 372.387C34.2047 374.192 29.2819 377.264 25.4899 381.63L28.5101 384.253C31.7581 380.513 36.0086 377.825 41.338 376.217L40.182 372.387ZM25.4899 381.63C21.5756 386.138 19.72 392.088 19.72 399.262L23.72 399.262C23.72 392.782 25.3843 387.853 28.5101 384.253L25.4899 381.63ZM19.72 399.262C19.72 406.631 21.5664 412.695 25.4899 417.213L28.5101 414.591C25.3935 411.002 23.72 405.973 23.72 399.262L19.72 399.262ZM25.5095 417.235C29.4021 421.586 34.3681 424.653 40.342 426.457L41.498 422.627C36.1652 421.017 31.8512 418.324 28.4905 414.568L25.5095 417.235ZM40.342 426.457C46.1915 428.222 52.3069 429.102 58.68 429.102L58.68 425.102C52.6798 425.102 46.9551 424.275 41.498 422.627L40.342 426.457ZM58.68 429.102L116.6 429.102L116.6 425.102L58.68 425.102L58.68 429.102ZM114.6 427.102L114.6 449.022L118.6 449.022L118.6 427.102L114.6 427.102ZM116.6 447.022L58.68 447.022L58.68 451.022L116.6 451.022L116.6 447.022ZM58.68 447.022C51.0586 447.022 43.9356 446.082 37.3015 444.217L36.2185 448.067C43.2377 450.041 50.728 451.022 58.68 451.022L58.68 447.022ZM37.2734 444.209C30.6876 442.46 24.9068 439.64 19.9056 435.761L17.4543 438.922C22.9065 443.151 29.1791 446.198 36.2465 448.075L37.2734 444.209ZM19.901 435.758C15.0499 432.018 11.189 427.155 8.32684 421.124L4.71313 422.839C7.82432 429.395 12.07 434.772 17.459 438.926L19.901 435.758ZM8.3386 421.15C5.60527 415.177 4.19998 407.955 4.19998 399.422L0.19998 399.422C0.199979 408.382 1.6747 416.2 4.70137 422.814L8.3386 421.15ZM97.24 556.222L95.24 556.222L95.24 558.222L97.24 558.222L97.24 556.222ZM97.24 519.902L99.24 519.902L99.24 517.902L97.24 517.902L97.24 519.902ZM2.99998 519.902L0.999977 519.902L0.999977 521.902L2.99998 521.902L2.99998 519.902ZM2.99998 497.982L2.99998 495.982L0.999978 495.982L0.999978 497.982L2.99998 497.982ZM97.24 497.982L97.24 499.982L99.24 499.982L99.24 497.982L97.24 497.982ZM97.24 461.662L97.24 459.662L95.24 459.662L95.24 461.662L97.24 461.662ZM116.6 461.662L118.6 461.662L118.6 459.662L116.6 459.662L116.6 461.662ZM116.6 556.222L116.6 558.222L118.6 558.222L118.6 556.222L116.6 556.222ZM99.24 556.222L99.24 519.902L95.24 519.902L95.24 556.222L99.24 556.222ZM97.24 517.902L2.99998 517.902L2.99998 521.902L97.24 521.902L97.24 517.902ZM4.99998 519.902L4.99998 497.982L0.999978 497.982L0.999977 519.902L4.99998 519.902ZM2.99998 499.982L97.24 499.982L97.24 495.982L2.99998 495.982L2.99998 499.982ZM99.24 497.982L99.24 461.662L95.24 461.662L95.24 497.982L99.24 497.982ZM97.24 463.662L116.6 463.662L116.6 459.662L97.24 459.662L97.24 463.662ZM114.6 461.662L114.6 556.222L118.6 556.222L118.6 461.662L114.6 461.662ZM116.6 554.222L97.24 554.222L97.24 558.222L116.6 558.222L116.6 554.222ZM2.99997 696.714L2.99997 694.714L0.99997 694.714L0.99997 696.714L2.99997 696.714ZM77.56 696.714L77.56 698.714L78.4889 694.943L77.56 696.714ZM22.04 667.594L20.04 667.594L20.04 668.804L21.111 669.366L22.04 667.594ZM22.04 655.274L21.111 653.503L20.04 654.065L20.04 655.274L22.04 655.274ZM77.56 626.154L78.4889 627.926L77.56 624.154L77.56 626.154ZM2.99997 626.154L0.999973 626.154L0.999973 628.154L2.99997 628.154L2.99997 626.154ZM2.99997 604.074L2.99997 602.074L0.999974 602.074L0.999974 604.074L2.99997 604.074ZM116.6 604.074L118.6 604.074L118.6 602.074L116.6 602.074L116.6 604.074ZM116.6 627.754L117.522 629.529L118.6 628.969L118.6 627.754L116.6 627.754ZM51.96 661.354L51.0375 659.58L47.6398 661.346L51.0306 663.125L51.96 661.354ZM116.6 695.274L118.6 695.274L118.6 694.065L117.529 693.503L116.6 695.274ZM116.6 718.794L116.6 720.794L118.6 720.794L118.6 718.794L116.6 718.794ZM2.99997 718.794L0.999969 718.794L0.999969 720.794L2.99997 720.794L2.99997 718.794ZM2.99997 698.714L77.56 698.714L77.56 694.714L2.99997 694.714L2.99997 698.714ZM78.4889 694.943L22.9689 665.823L21.111 669.366L76.631 698.486L78.4889 694.943ZM24.04 667.594L24.04 655.274L20.04 655.274L20.04 667.594L24.04 667.594ZM22.9689 657.046L78.4889 627.926L76.631 624.383L21.111 653.503L22.9689 657.046ZM77.56 624.154L2.99997 624.154L2.99997 628.154L77.56 628.154L77.56 624.154ZM4.99997 626.154L4.99997 604.074L0.999974 604.074L0.999973 626.154L4.99997 626.154ZM2.99997 606.074L116.6 606.074L116.6 602.074L2.99997 602.074L2.99997 606.074ZM114.6 604.074L114.6 627.754L118.6 627.754L118.6 604.074L114.6 604.074ZM115.678 625.98L51.0375 659.58L52.8824 663.129L117.522 629.529L115.678 625.98ZM51.0306 663.125L115.671 697.045L117.529 693.503L52.8893 659.583L51.0306 663.125ZM114.6 695.274L114.6 718.794L118.6 718.794L118.6 695.274L114.6 695.274ZM116.6 716.794L2.99997 716.794L2.99997 720.794L116.6 720.794L116.6 716.794ZM4.99997 718.794L4.99997 696.714L0.99997 696.714L0.999969 718.794L4.99997 718.794ZM22.36 821.392L22.36 823.392L24.36 823.392L24.36 821.392L22.36 821.392ZM2.99996 821.392L0.999964 821.392L0.999964 823.392L2.99996 823.392L2.99996 821.392ZM2.99997 742.512L2.99997 740.512L0.999968 740.512L0.999968 742.512L2.99997 742.512ZM116.6 742.512L118.6 742.512L118.6 740.512L116.6 740.512L116.6 742.512ZM116.6 819.952L116.6 821.952L118.6 821.952L118.6 819.952L116.6 819.952ZM97.24 819.952L95.24 819.952L95.24 821.952L97.24 821.952L97.24 819.952ZM97.24 764.592L99.24 764.592L99.24 762.592L97.24 762.592L97.24 764.592ZM69.88 764.592L69.88 762.592L67.88 762.592L67.88 764.592L69.88 764.592ZM69.88 812.432L69.88 814.432L71.88 814.432L71.88 812.432L69.88 812.432ZM51.96 812.432L49.96 812.432L49.96 814.432L51.96 814.432L51.96 812.432ZM51.96 764.592L53.96 764.592L53.96 762.592L51.96 762.592L51.96 764.592ZM22.36 764.592L22.36 762.592L20.36 762.592L20.36 764.592L22.36 764.592ZM22.36 819.392L2.99996 819.392L2.99996 823.392L22.36 823.392L22.36 819.392ZM4.99996 821.392L4.99997 742.512L0.999968 742.512L0.999964 821.392L4.99996 821.392ZM2.99997 744.512L116.6 744.512L116.6 740.512L2.99997 740.512L2.99997 744.512ZM114.6 742.512L114.6 819.952L118.6 819.952L118.6 742.512L114.6 742.512ZM116.6 817.952L97.24 817.952L97.24 821.952L116.6 821.952L116.6 817.952ZM99.24 819.952L99.24 764.592L95.24 764.592L95.24 819.952L99.24 819.952ZM97.24 762.592L69.88 762.592L69.88 766.592L97.24 766.592L97.24 762.592ZM67.88 764.592L67.88 812.432L71.88 812.432L71.88 764.592L67.88 764.592ZM69.88 810.432L51.96 810.432L51.96 814.432L69.88 814.432L69.88 810.432ZM53.96 812.432L53.96 764.592L49.96 764.592L49.96 812.432L53.96 812.432ZM51.96 762.592L22.36 762.592L22.36 766.592L51.96 766.592L51.96 762.592ZM20.36 764.592L20.36 821.392L24.36 821.392L24.36 764.592L20.36 764.592Z" fill="white" />
</svg>
