<svg width="1062" height="1082" viewBox="0 0 1062 1082" fill="none" xmlns="http://www.w3.org/2000/svg">
<path opacity="0.08" d="M254.7 182.766L252.7 182.766L252.7 184.766L254.7 184.766L254.7 182.766ZM254.7 114.666L256.7 114.666L256.7 112.666L254.7 112.666L254.7 114.666ZM78.0001 114.666L76.0001 114.666L76.0001 116.666L78.0001 116.666L78.0001 114.666ZM78.0001 73.5656L78.0001 71.5656L76.0001 71.5656L76.0001 73.5656L78.0001 73.5656ZM254.7 73.5656L254.7 75.5656L256.7 75.5656L256.7 73.5656L254.7 73.5656ZM254.7 5.46564L254.7 3.46564L252.7 3.46564L252.7 5.46564L254.7 5.46564ZM291 5.46564L293 5.46564L293 3.46564L291 3.46564L291 5.46564ZM291 182.766L291 184.766L293 184.766L293 182.766L291 182.766ZM256.7 182.766L256.7 114.666L252.7 114.666L252.7 182.766L256.7 182.766ZM254.7 112.666L78.0001 112.666L78.0001 116.666L254.7 116.666L254.7 112.666ZM80.0001 114.666L80.0001 73.5656L76.0001 73.5656L76.0001 114.666L80.0001 114.666ZM78.0001 75.5656L254.7 75.5656L254.7 71.5656L78.0001 71.5656L78.0001 75.5656ZM256.7 73.5656L256.7 5.46564L252.7 5.46564L252.7 73.5656L256.7 73.5656ZM254.7 7.46564L291 7.46564L291 3.46564L254.7 3.46564L254.7 7.46564ZM289 5.46564L289 182.766L293 182.766L293 5.46564L289 5.46564ZM291 180.766L254.7 180.766L254.7 184.766L291 184.766L291 180.766ZM85.5001 252.82L83.6943 251.96L83.6891 251.971L85.5001 252.82ZM109.8 220.12L108.491 218.608L108.476 218.621L108.461 218.635L109.8 220.12ZM144.6 199.12L143.882 197.254L143.872 197.257L144.6 199.12ZM225 199.42L224.247 201.273L224.257 201.277L225 199.42ZM259.5 221.32L258.13 222.778L258.137 222.784L258.145 222.791L259.5 221.32ZM283.5 254.32L281.683 255.157L281.689 255.169L283.5 254.32ZM283.2 338.32L281.406 337.437L281.4 337.448L283.2 338.32ZM258.3 371.02L256.991 369.508L256.983 369.515L256.975 369.522L258.3 371.02ZM223.2 392.02L222.507 390.144L222.49 390.151L222.472 390.157L223.2 392.02ZM143.4 391.72L142.647 393.573L142.657 393.577L143.4 391.72ZM108.9 369.82L110.255 368.35L110.254 368.348L108.9 369.82ZM85.2001 336.82L87.0218 335.995L87.0168 335.984L85.2001 336.82ZM149.7 240.82L148.888 238.993L148.874 238.999L148.86 239.005L149.7 240.82ZM123.3 262.12L121.692 260.932L121.686 260.94L121.68 260.948L123.3 262.12ZM123.6 329.62L122.008 330.831L123.6 329.62ZM150.6 350.62L149.8 352.453L150.6 350.62ZM219.3 350.32L218.46 348.505L219.3 350.32ZM245.4 328.72L243.792 327.532L243.777 327.551L243.763 327.571L245.4 328.72ZM245.1 261.82L246.692 260.609L246.692 260.609L245.1 261.82ZM218.1 240.82L217.288 242.648L217.3 242.653L218.1 240.82ZM78.5 295.42C78.5 280.083 81.4479 266.177 87.311 253.669L83.6891 251.971C77.5522 265.064 74.5 279.558 74.5 295.42L78.5 295.42ZM87.3058 253.68C93.1948 241.313 101.138 230.627 111.14 221.605L108.461 218.635C98.0624 228.014 89.8053 239.127 83.6943 251.96L87.3058 253.68ZM111.109 221.633C121.337 212.782 132.74 205.9 145.328 200.983L143.872 197.257C130.86 202.34 119.063 209.459 108.491 218.608L111.109 221.633ZM145.318 200.987C158.095 196.073 171.151 193.62 184.5 193.62L184.5 189.62C170.649 189.62 157.106 192.168 143.882 197.254L145.318 200.987ZM184.5 193.62C198.449 193.62 211.693 196.173 224.247 201.273L225.753 197.567C212.707 192.268 198.951 189.62 184.5 189.62L184.5 193.62ZM224.257 201.277C237.03 206.386 248.316 213.552 258.13 222.778L260.87 219.863C250.684 210.288 238.97 202.854 225.743 197.563L224.257 201.277ZM258.145 222.791C268.151 232.012 275.994 242.796 281.683 255.157L285.317 253.484C279.406 240.644 271.25 229.429 260.855 219.85L258.145 222.791ZM281.689 255.169C287.555 267.684 290.5 281.391 290.5 296.32L294.5 296.32C294.5 280.849 291.445 266.557 285.311 253.471L281.689 255.169ZM290.5 296.32C290.5 311.444 287.458 325.138 281.406 337.437L284.995 339.203C291.342 326.303 294.5 311.996 294.5 296.32L290.5 296.32ZM281.4 337.448C275.314 350.012 267.179 360.692 256.991 369.508L259.609 372.533C270.221 363.349 278.686 352.228 285 339.192L281.4 337.448ZM256.975 369.522C246.76 378.559 235.274 385.43 222.507 390.144L223.893 393.897C237.126 389.011 249.04 381.882 259.625 372.518L256.975 369.522ZM222.472 390.157C209.898 395.069 197.045 397.52 183.9 397.52L183.9 401.52C197.555 401.52 210.902 398.971 223.928 393.883L222.472 390.157ZM183.9 397.52C170.155 397.52 156.907 394.969 144.143 389.863L142.657 393.577C155.893 398.872 169.646 401.52 183.9 401.52L183.9 397.52ZM144.153 389.867C131.576 384.758 120.28 377.588 110.255 368.35L107.545 371.291C117.92 380.853 129.624 388.283 142.647 393.573L144.153 389.867ZM110.254 368.348C100.459 359.337 92.7148 348.559 87.0217 335.995L83.3783 337.646C89.2853 350.682 97.3414 361.904 107.546 371.292L110.254 368.348ZM87.0168 335.984C81.3471 323.667 78.5 310.155 78.5 295.42L74.5 295.42C74.5 310.685 77.453 324.774 83.3833 337.657L87.0168 335.984ZM184.5 231.62C171.834 231.62 159.956 234.073 148.888 238.993L150.512 242.648C161.044 237.967 172.366 235.62 184.5 235.62L184.5 231.62ZM148.86 239.005C137.768 244.14 128.699 251.451 121.692 260.932L124.908 263.309C131.501 254.39 140.032 247.5 150.54 242.635L148.86 239.005ZM121.68 260.948C114.604 270.73 111.1 282.352 111.1 295.72L115.1 295.72C115.1 283.088 118.397 272.311 124.921 263.293L121.68 260.948ZM111.1 295.72C111.1 309.485 114.703 321.23 122.008 330.831L125.192 328.409C118.497 319.611 115.1 308.755 115.1 295.72L111.1 295.72ZM122.008 330.831C129.223 340.313 138.5 347.522 149.8 352.453L151.4 348.787C140.7 344.118 131.977 337.327 125.192 328.409L122.008 330.831ZM149.8 352.453C161.044 357.36 172.615 359.82 184.5 359.82L184.5 355.82C173.185 355.82 162.157 353.481 151.4 348.787L149.8 352.453ZM184.5 359.82C197.178 359.82 209.066 357.262 220.14 352.135L218.46 348.505C207.934 353.378 196.622 355.82 184.5 355.82L184.5 359.82ZM220.14 352.135C231.248 346.993 240.227 339.568 247.037 329.87L243.763 327.571C237.373 336.672 228.952 343.648 218.46 348.505L220.14 352.135ZM247.008 329.909C254.093 320.324 257.6 308.895 257.6 295.72L253.6 295.72C253.6 308.146 250.307 318.716 243.792 327.532L247.008 329.909ZM257.6 295.72C257.6 281.955 253.997 270.211 246.692 260.609L243.508 263.031C250.203 271.83 253.6 282.685 253.6 295.72L257.6 295.72ZM246.692 260.609C239.477 251.127 230.2 243.918 218.9 238.987L217.3 242.653C228 247.322 236.723 254.113 243.508 263.031L246.692 260.609ZM218.912 238.993C207.862 234.081 196.385 231.62 184.5 231.62L184.5 235.62C195.815 235.62 206.739 237.959 217.288 242.648L218.912 238.993ZM102.6 593.578L101.375 595.159L101.384 595.166L101.394 595.173L102.6 593.578ZM84.3 568.378L86.1594 567.641L86.1545 567.629L84.3 568.378ZM78 431.278L78 429.278L76 429.278L76 431.278L78 431.278ZM291 431.278L293 431.278L293 429.278L291 429.278L291 431.278ZM282.9 571.078L281.3 569.878L281.289 569.893L281.279 569.907L282.9 571.078ZM262.5 587.878L261.64 586.072L262.5 587.878ZM207.3 586.078L206.299 587.81L206.308 587.815L206.316 587.819L207.3 586.078ZM187.2 563.278L189.031 562.473L186.829 557.469L185.282 562.712L187.2 563.278ZM167.7 592.078L166.506 590.474L166.495 590.482L166.484 590.49L167.7 592.078ZM255.6 472.678L257.6 472.678L257.6 470.678L255.6 470.678L255.6 472.678ZM201.9 472.678L201.9 470.678L199.9 470.678L199.9 472.678L201.9 472.678ZM209.1 545.578L207.657 546.963L209.1 545.578ZM248.1 546.178L246.779 544.677L246.747 544.705L246.716 544.734L248.1 546.178ZM160.8 553.978L159.498 552.46L160.8 553.978ZM169.2 472.678L171.2 472.678L171.2 470.678L169.2 470.678L169.2 472.678ZM113.1 472.678L113.1 470.678L111.1 470.678L111.1 472.678L113.1 472.678ZM121.2 553.378L119.813 554.819L121.2 553.378ZM132.9 600.878C121.26 600.878 111.603 597.878 103.806 591.983L101.394 595.173C109.997 601.678 120.54 604.878 132.9 604.878L132.9 600.878ZM103.825 591.997C96.1429 586.044 90.2445 577.951 86.1594 567.641L82.4407 569.115C86.7556 580.005 93.0572 588.713 101.375 595.159L103.825 591.997ZM86.1545 567.629C82.0603 557.491 80 546.349 80 534.178L76 534.178C76 546.808 78.1398 558.465 82.4456 569.127L86.1545 567.629ZM80 534.178L80 431.278L76 431.278L76 534.178L80 534.178ZM78 433.278L291 433.278L291 429.278L78 429.278L78 433.278ZM289 431.278L289 545.278L293 545.278L293 431.278L289 431.278ZM289 545.278C289 554.896 286.412 563.063 281.3 569.878L284.5 572.278C290.188 564.694 293 555.66 293 545.278L289 545.278ZM281.279 569.907C276.285 576.822 269.752 582.21 261.64 586.072L263.36 589.684C272.048 585.547 279.115 579.734 284.521 572.249L281.279 569.907ZM261.64 586.072C253.493 589.952 245.186 591.878 236.7 591.878L236.7 595.878C245.814 595.878 254.707 593.804 263.36 589.684L261.64 586.072ZM236.7 591.878C226.651 591.878 217.189 589.37 208.284 584.337L206.316 587.819C215.811 593.186 225.949 595.878 236.7 595.878L236.7 591.878ZM208.301 584.346C199.688 579.37 193.269 572.105 189.031 562.473L185.369 564.084C189.931 574.452 196.912 582.386 206.299 587.81L208.301 584.346ZM185.282 562.712C181.793 574.534 175.528 583.755 166.506 590.474L168.895 593.682C178.672 586.401 185.407 576.422 189.118 563.844L185.282 562.712ZM166.484 590.49C157.489 597.38 146.336 600.878 132.9 600.878L132.9 604.878C147.064 604.878 159.111 601.176 168.916 593.666L166.484 590.49ZM255.6 470.678L201.9 470.678L201.9 474.678L255.6 474.678L255.6 470.678ZM199.9 472.678L199.9 527.878L203.9 527.878L203.9 472.678L199.9 472.678ZM199.9 527.878C199.9 535.205 202.507 541.599 207.657 546.963L210.543 544.193C206.093 539.558 203.9 534.151 203.9 527.878L199.9 527.878ZM207.657 546.963C212.912 552.437 220.079 555.078 228.9 555.078L228.9 551.078C220.921 551.078 214.888 548.719 210.543 544.193L207.657 546.963ZM228.9 555.078C237.304 555.078 244.238 552.649 249.484 547.622L246.716 544.734C242.362 548.907 236.496 551.078 228.9 551.078L228.9 555.078ZM249.421 547.68C254.848 542.904 257.6 536.859 257.6 529.678L253.6 529.678C253.6 535.697 251.352 540.652 246.779 544.677L249.421 547.68ZM257.6 529.678L257.6 472.678L253.6 472.678L253.6 529.678L257.6 529.678ZM140.7 563.178C148.948 563.178 156.117 560.626 162.102 555.497L159.498 552.46C154.283 556.93 148.052 559.178 140.7 559.178L140.7 563.178ZM162.102 555.497C168.118 550.34 171.2 543.897 171.2 536.278L167.2 536.278C167.2 542.659 164.682 548.016 159.498 552.46L162.102 555.497ZM171.2 536.278L171.2 472.678L167.2 472.678L167.2 536.278L171.2 536.278ZM169.2 470.678L113.1 470.678L113.1 474.678L169.2 474.678L169.2 470.678ZM111.1 472.678L111.1 534.178L115.1 534.178L115.1 472.678L111.1 472.678ZM111.1 534.178C111.1 542.313 114.015 549.236 119.813 554.819L122.587 551.938C117.585 547.12 115.1 541.243 115.1 534.178L111.1 534.178ZM119.813 554.819C125.591 560.383 132.591 563.178 140.7 563.178L140.7 559.178C133.609 559.178 127.609 556.773 122.587 551.938L119.813 554.819ZM78 635.184L78 633.184L76 633.184L76 635.184L78 635.184ZM291 635.184L293 635.184L293 633.184L291 633.184L291 635.184ZM291 676.584L291 678.584L293 678.584L293 676.584L291 676.584ZM78 676.584L76 676.584L76 678.584L78 678.584L78 676.584ZM78 637.184L291 637.184L291 633.184L78 633.184L78 637.184ZM289 635.184L289 676.584L293 676.584L293 635.184L289 635.184ZM291 674.584L78 674.584L78 678.584L291 678.584L291 674.584ZM80 676.584L80 635.184L76 635.184L76 676.584L80 676.584ZM291 778.924L293 778.924L293 777.53L291.692 777.048L291 778.924ZM291 820.924L291.69 822.801L293 822.32L293 820.924L291 820.924ZM78 899.224L76 899.224L76 902.09L78.6901 901.101L78 899.224ZM78 856.624L77.3013 854.75L76 855.235L76 856.624L78 856.624ZM131.1 836.824L131.799 838.698L133.1 838.213L133.1 836.824L131.1 836.824ZM131.1 762.424L133.1 762.424L133.1 761.028L131.789 760.547L131.1 762.424ZM78 742.924L76 742.924L76 744.32L77.3106 744.802L78 742.924ZM78 700.324L78.6924 698.448L76 697.454L76 700.324L78 700.324ZM160.2 829.324L158.2 829.324L158.2 832.102L160.834 831.221L160.2 829.324ZM248.1 799.924L248.734 801.821L254.292 799.962L248.758 798.035L248.1 799.924ZM160.2 769.324L160.858 767.435L158.2 766.51L158.2 769.324L160.2 769.324ZM289 778.924L289 820.924L293 820.924L293 778.924L289 778.924ZM290.31 819.047L77.31 897.347L78.6901 901.101L291.69 822.801L290.31 819.047ZM80 899.224L80 856.624L76 856.624L76 899.224L80 899.224ZM78.6988 858.498L131.799 838.698L130.401 834.95L77.3013 854.75L78.6988 858.498ZM133.1 836.824L133.1 762.424L129.1 762.424L129.1 836.824L133.1 836.824ZM131.789 760.547L78.6895 741.047L77.3106 744.802L130.411 764.302L131.789 760.547ZM80 742.924L80 700.324L76 700.324L76 742.924L80 742.924ZM77.3076 702.201L290.308 780.801L291.692 777.048L78.6924 698.448L77.3076 702.201ZM160.834 831.221L248.734 801.821L247.466 798.028L159.566 827.427L160.834 831.221ZM248.758 798.035L160.858 767.435L159.542 771.213L247.442 801.813L248.758 798.035ZM158.2 769.324L158.2 829.324L162.2 829.324L162.2 769.324L158.2 769.324ZM235.2 1046.85L233.862 1045.36L231.761 1047.25L234.243 1048.61L235.2 1046.85ZM243 1035.45L241.275 1034.44L241.261 1034.46L241.249 1034.48L243 1035.45ZM252 1014.45L250.112 1013.79L250.103 1013.82L250.094 1013.85L252 1014.45ZM209.7 977.25L207.803 976.618L209.7 977.25ZM201.9 1004.25L199.964 1003.75L199.963 1003.75L201.9 1004.25ZM189.3 1040.55L187.49 1039.7L187.487 1039.71L187.484 1039.71L189.3 1040.55ZM170.1 1064.25L168.981 1062.59L168.957 1062.61L168.934 1062.63L170.1 1064.25ZM102 1061.55L103.237 1059.98L103.233 1059.97L102 1061.55ZM81.9 1032.75L83.7877 1032.09L81.9 1032.75ZM82.8 946.05L80.8955 945.44L80.8908 945.454L80.8864 945.469L82.8 946.05ZM103.2 904.35L104.112 902.57L102.566 901.778L101.565 903.198L103.2 904.35ZM138.9 922.65L140.314 924.064L142.256 922.123L139.812 920.87L138.9 922.65ZM131.7 932.25L130.025 931.157L130.008 931.184L129.992 931.21L131.7 932.25ZM123 949.05L121.179 948.222L121.169 948.246L121.159 948.269L123 949.05ZM115.8 970.65L113.863 970.153L115.8 970.65ZM149.7 1021.65L148.158 1020.38L149.7 1021.65ZM159.3 1002.15L157.394 1001.55L157.389 1001.56L159.3 1002.15ZM168 973.35L169.92 973.909L169.923 973.898L169.926 973.888L168 973.35ZM180.6 939.45L178.844 938.492L178.831 938.516L178.819 938.54L180.6 939.45ZM198.3 919.65L197.257 917.943L197.246 917.95L197.236 917.957L198.3 919.65ZM262.2 923.25L263.347 921.612L263.34 921.607L262.2 923.25ZM284.7 951.45L282.859 952.23L282.864 952.243L282.87 952.257L284.7 951.45ZM268.8 1065.15L267.843 1066.91L269.442 1067.78L270.459 1066.27L268.8 1065.15ZM236.538 1048.34C238.816 1046.29 241.556 1042.21 244.751 1036.42L241.249 1034.48C238.044 1040.29 235.584 1043.81 233.862 1045.36L236.538 1048.34ZM244.725 1036.46C248.218 1030.5 251.273 1023.36 253.906 1015.05L250.094 1013.85C247.527 1021.94 244.582 1028.8 241.275 1034.44L244.725 1036.46ZM253.888 1015.11C256.763 1006.9 258.2 998.372 258.2 989.55L254.2 989.55C254.2 997.928 252.837 1006 250.112 1013.79L253.888 1015.11ZM258.2 989.55C258.2 978.075 256.18 969.11 251.832 962.969C247.395 956.702 240.733 953.65 232.2 953.65L232.2 957.65C239.667 957.65 245.005 960.248 248.568 965.281C252.22 970.44 254.2 978.425 254.2 989.55L258.2 989.55ZM232.2 953.65C225.952 953.65 220.789 955.608 216.946 959.677L219.854 962.423C222.811 959.292 226.848 957.65 232.2 957.65L232.2 953.65ZM216.946 959.677C213.268 963.571 210.25 969.274 207.803 976.618L211.597 977.882C213.95 970.826 216.732 965.729 219.854 962.423L216.946 959.677ZM207.803 976.618C205.383 983.875 202.771 992.922 199.964 1003.75L203.836 1004.75C206.629 993.978 209.217 985.025 211.597 977.882L207.803 976.618ZM199.963 1003.75C196.386 1017.66 192.224 1029.64 187.49 1039.7L191.11 1041.4C195.976 1031.06 200.214 1018.84 203.837 1004.75L199.963 1003.75ZM187.484 1039.71C182.808 1049.84 176.626 1057.43 168.981 1062.59L171.219 1065.91C179.574 1060.27 186.192 1052.06 191.116 1041.39L187.484 1039.71ZM168.934 1062.63C161.575 1067.91 151.627 1070.65 138.9 1070.65L138.9 1074.65C152.173 1074.65 163.025 1071.79 171.266 1065.87L168.934 1062.63ZM138.9 1070.65C124.025 1070.65 112.199 1067.03 103.237 1059.98L100.763 1063.12C110.602 1070.87 123.375 1074.65 138.9 1074.65L138.9 1070.65ZM103.233 1059.97C94.3605 1053.03 87.8729 1043.76 83.7877 1032.09L80.0123 1033.41C84.3271 1045.74 91.2395 1055.67 100.767 1063.13L103.233 1059.97ZM83.7877 1032.09C79.6692 1020.32 77.6 1007.55 77.6 993.75L73.6 993.75C73.6 1007.95 75.7309 1021.18 80.0123 1033.41L83.7877 1032.09ZM77.6 993.75C77.6 977.953 79.9691 962.249 84.7137 946.631L80.8864 945.469C76.031 961.451 73.6 977.547 73.6 993.75L77.6 993.75ZM84.7046 946.66C89.6486 931.235 96.3624 917.521 104.835 905.502L101.565 903.198C92.8376 915.579 85.9514 929.665 80.8955 945.44L84.7046 946.66ZM102.288 906.13L137.988 924.43L139.812 920.87L104.112 902.57L102.288 906.13ZM137.486 921.236C135.529 923.193 133.034 926.543 130.025 931.157L133.375 933.343C136.366 928.757 138.671 925.707 140.314 924.064L137.486 921.236ZM129.992 931.21C127.139 935.897 124.202 941.573 121.179 948.222L124.821 949.878C127.798 943.327 130.662 937.803 133.408 933.29L129.992 931.21ZM121.159 948.269C118.315 954.972 115.885 962.268 113.863 970.153L117.737 971.147C119.715 963.432 122.085 956.328 124.841 949.831L121.159 948.269ZM113.863 970.153C111.821 978.115 110.8 986.181 110.8 994.35L114.8 994.35C114.8 986.519 115.779 978.786 117.737 971.147L113.863 970.153ZM110.8 994.35C110.8 1005.9 112.637 1014.9 116.591 1021.08C120.642 1027.4 126.782 1030.55 134.7 1030.55L134.7 1026.55C128.018 1026.55 123.208 1024 119.959 1018.92C116.613 1013.7 114.8 1005.6 114.8 994.35L110.8 994.35ZM134.7 1030.55C141.47 1030.55 147.045 1028 151.242 1022.92L148.158 1020.38C144.755 1024.5 140.33 1026.55 134.7 1026.55L134.7 1030.55ZM151.242 1022.92C155.267 1018.05 158.567 1011.28 161.211 1002.74L157.389 1001.56C154.833 1009.82 151.733 1016.05 148.158 1020.38L151.242 1022.92ZM161.206 1002.75C163.813 994.535 166.717 984.919 169.92 973.909L166.08 972.791C162.883 983.781 159.987 993.365 157.394 1001.55L161.206 1002.75ZM169.926 973.888C173.703 960.37 177.86 949.205 182.381 940.36L178.819 938.54C174.14 947.695 169.897 959.13 166.074 972.812L169.926 973.888ZM182.356 940.408C187.027 931.845 192.71 925.526 199.364 921.343L197.236 917.957C189.89 922.574 183.773 929.456 178.844 938.492L182.356 940.408ZM199.343 921.357C206.147 917.198 214.859 915.05 225.6 915.05L225.6 911.05C214.341 911.05 204.853 913.302 197.257 917.943L199.343 921.357ZM225.6 915.05C239.885 915.05 251.663 918.373 261.06 924.893L263.34 921.607C253.137 914.527 240.515 911.05 225.6 911.05L225.6 915.05ZM261.053 924.889C270.73 931.662 277.997 940.758 282.859 952.23L286.542 950.67C281.403 938.542 273.67 928.838 263.347 921.612L261.053 924.889ZM282.87 952.257C287.945 963.774 290.5 976.595 290.5 990.75L294.5 990.75C294.5 976.105 291.855 962.726 286.53 950.644L282.87 952.257ZM290.5 990.75C290.5 1005.33 288.136 1018.89 283.427 1031.45L287.173 1032.85C292.064 1019.81 294.5 1005.77 294.5 990.75L290.5 990.75ZM283.427 1031.45C278.67 1044.13 273.237 1054.99 267.141 1064.03L270.459 1066.27C276.763 1056.91 282.33 1045.77 287.173 1032.85L283.427 1031.45ZM269.757 1063.39L236.157 1045.09L234.243 1048.61L267.843 1066.91L269.757 1063.39Z" fill="white"/>
<path opacity="0.04" d="M484.7 182.766L482.7 182.766L482.7 184.766L484.7 184.766L484.7 182.766ZM484.7 114.666L486.7 114.666L486.7 112.666L484.7 112.666L484.7 114.666ZM308 114.666L306 114.666L306 116.666L308 116.666L308 114.666ZM308 73.5656L308 71.5656L306 71.5656L306 73.5656L308 73.5656ZM484.7 73.5657L484.7 75.5657L486.7 75.5657L486.7 73.5657L484.7 73.5657ZM484.7 5.46565L484.7 3.46565L482.7 3.46565L482.7 5.46565L484.7 5.46565ZM521 5.46565L523 5.46565L523 3.46565L521 3.46565L521 5.46565ZM521 182.766L521 184.766L523 184.766L523 182.766L521 182.766ZM486.7 182.766L486.7 114.666L482.7 114.666L482.7 182.766L486.7 182.766ZM484.7 112.666L308 112.666L308 116.666L484.7 116.666L484.7 112.666ZM310 114.666L310 73.5656L306 73.5656L306 114.666L310 114.666ZM308 75.5656L484.7 75.5657L484.7 71.5657L308 71.5656L308 75.5656ZM486.7 73.5657L486.7 5.46565L482.7 5.46565L482.7 73.5657L486.7 73.5657ZM484.7 7.46565L521 7.46565L521 3.46565L484.7 3.46565L484.7 7.46565ZM519 5.46565L519 182.766L523 182.766L523 5.46565L519 5.46565ZM521 180.766L484.7 180.766L484.7 184.766L521 184.766L521 180.766ZM315.5 252.82L313.694 251.96L313.689 251.971L315.5 252.82ZM339.8 220.12L338.491 218.608L338.476 218.621L338.46 218.635L339.8 220.12ZM374.6 199.12L373.882 197.254L373.872 197.257L374.6 199.12ZM455 199.42L454.247 201.273L454.257 201.277L455 199.42ZM489.5 221.32L488.13 222.778L488.137 222.784L488.145 222.791L489.5 221.32ZM513.5 254.32L511.683 255.157L511.689 255.169L513.5 254.32ZM513.2 338.32L511.405 337.437L511.4 337.448L513.2 338.32ZM488.3 371.02L486.991 369.508L486.983 369.515L486.975 369.522L488.3 371.02ZM453.2 392.02L452.507 390.144L452.49 390.151L452.472 390.157L453.2 392.02ZM373.4 391.72L372.647 393.573L372.657 393.577L373.4 391.72ZM338.9 369.82L340.255 368.35L340.254 368.348L338.9 369.82ZM315.2 336.82L317.022 335.995L317.017 335.984L315.2 336.82ZM379.7 240.82L378.888 238.993L378.874 238.999L378.86 239.005L379.7 240.82ZM353.3 262.12L351.692 260.932L351.686 260.94L351.68 260.948L353.3 262.12ZM353.6 329.62L352.008 330.831L353.6 329.62ZM380.6 350.62L379.8 352.453L380.6 350.62ZM449.3 350.32L448.46 348.505L449.3 350.32ZM475.4 328.72L473.792 327.532L473.777 327.551L473.763 327.571L475.4 328.72ZM475.1 261.82L476.692 260.609L476.692 260.609L475.1 261.82ZM448.1 240.82L447.288 242.648L447.3 242.653L448.1 240.82ZM308.5 295.42C308.5 280.083 311.448 266.177 317.311 253.669L313.689 251.971C307.552 265.064 304.5 279.558 304.5 295.42L308.5 295.42ZM317.306 253.68C323.195 241.313 331.138 230.627 341.14 221.605L338.46 218.635C328.062 228.014 319.805 239.127 313.694 251.96L317.306 253.68ZM341.109 221.633C351.337 212.782 362.74 205.9 375.328 200.983L373.872 197.257C360.86 202.34 349.063 209.459 338.491 218.608L341.109 221.633ZM375.318 200.987C388.094 196.073 401.151 193.62 414.5 193.62L414.5 189.62C400.649 189.62 387.106 192.168 373.882 197.254L375.318 200.987ZM414.5 193.62C428.449 193.62 441.693 196.173 454.247 201.273L455.753 197.567C442.707 192.268 428.951 189.62 414.5 189.62L414.5 193.62ZM454.257 201.277C467.03 206.386 478.316 213.552 488.13 222.778L490.87 219.863C480.684 210.288 468.97 202.854 455.743 197.563L454.257 201.277ZM488.145 222.791C498.15 232.012 505.994 242.796 511.683 255.157L515.317 253.484C509.406 240.644 501.25 229.429 490.855 219.85L488.145 222.791ZM511.689 255.169C517.555 267.684 520.5 281.391 520.5 296.32L524.5 296.32C524.5 280.849 521.445 266.557 515.311 253.471L511.689 255.169ZM520.5 296.32C520.5 311.444 517.458 325.138 511.405 337.437L514.995 339.203C521.342 326.303 524.5 311.996 524.5 296.32L520.5 296.32ZM511.4 337.448C505.314 350.012 497.179 360.692 486.991 369.508L489.609 372.533C500.221 363.349 508.686 352.228 515 339.192L511.4 337.448ZM486.975 369.522C476.76 378.559 465.274 385.43 452.507 390.144L453.893 393.897C467.126 389.011 479.04 381.882 489.625 372.518L486.975 369.522ZM452.472 390.157C439.898 395.069 427.045 397.52 413.9 397.52L413.9 401.52C427.555 401.52 440.902 398.971 453.928 393.883L452.472 390.157ZM413.9 397.52C400.154 397.52 386.907 394.969 374.143 389.863L372.657 393.577C385.893 398.872 399.646 401.52 413.9 401.52L413.9 397.52ZM374.153 389.867C361.576 384.758 350.28 377.588 340.255 368.35L337.545 371.291C347.92 380.853 359.624 388.283 372.647 393.573L374.153 389.867ZM340.254 368.348C330.459 359.337 322.715 348.559 317.022 335.995L313.378 337.646C319.285 350.682 327.341 361.904 337.546 371.292L340.254 368.348ZM317.017 335.984C311.347 323.667 308.5 310.155 308.5 295.42L304.5 295.42C304.5 310.685 307.453 324.774 313.383 337.657L317.017 335.984ZM414.5 231.62C401.834 231.62 389.956 234.073 378.888 238.993L380.512 242.648C391.044 237.967 402.366 235.62 414.5 235.62L414.5 231.62ZM378.86 239.005C367.768 244.14 358.699 251.451 351.692 260.932L354.908 263.309C361.501 254.39 370.032 247.5 380.54 242.635L378.86 239.005ZM351.68 260.948C344.603 270.73 341.1 282.352 341.1 295.72L345.1 295.72C345.1 283.088 348.397 272.311 354.92 263.293L351.68 260.948ZM341.1 295.72C341.1 309.485 344.703 321.23 352.008 330.831L355.192 328.409C348.497 319.611 345.1 308.755 345.1 295.72L341.1 295.72ZM352.008 330.831C359.223 340.313 368.5 347.522 379.8 352.453L381.4 348.787C370.7 344.118 361.977 337.327 355.192 328.409L352.008 330.831ZM379.8 352.453C391.043 357.36 402.615 359.82 414.5 359.82L414.5 355.82C403.185 355.82 392.157 353.481 381.4 348.787L379.8 352.453ZM414.5 359.82C427.178 359.82 439.066 357.262 450.14 352.135L448.46 348.505C437.934 353.378 426.622 355.82 414.5 355.82L414.5 359.82ZM450.14 352.135C461.248 346.993 470.227 339.568 477.037 329.87L473.763 327.571C467.373 336.672 458.952 343.648 448.46 348.505L450.14 352.135ZM477.008 329.909C484.093 320.324 487.6 308.895 487.6 295.72L483.6 295.72C483.6 308.146 480.307 318.716 473.792 327.532L477.008 329.909ZM487.6 295.72C487.6 281.955 483.997 270.211 476.692 260.609L473.508 263.031C480.203 271.83 483.6 282.685 483.6 295.72L487.6 295.72ZM476.692 260.609C469.477 251.127 460.2 243.918 448.9 238.987L447.3 242.653C458 247.322 466.723 254.113 473.508 263.031L476.692 260.609ZM448.912 238.993C437.862 234.081 426.385 231.62 414.5 231.62L414.5 235.62C425.815 235.62 436.738 237.959 447.288 242.648L448.912 238.993ZM332.6 593.578L331.375 595.159L331.384 595.166L331.394 595.173L332.6 593.578ZM314.3 568.378L316.159 567.641L316.154 567.629L314.3 568.378ZM308 431.278L308 429.278L306 429.278L306 431.278L308 431.278ZM521 431.278L523 431.278L523 429.278L521 429.278L521 431.278ZM512.9 571.078L511.3 569.878L511.289 569.893L511.279 569.907L512.9 571.078ZM492.5 587.878L491.64 586.072L492.5 587.878ZM437.3 586.078L436.299 587.81L436.308 587.815L436.316 587.819L437.3 586.078ZM417.2 563.278L419.031 562.473L416.829 557.469L415.282 562.712L417.2 563.278ZM397.7 592.078L396.505 590.474L396.495 590.482L396.484 590.49L397.7 592.078ZM485.6 472.678L487.6 472.678L487.6 470.678L485.6 470.678L485.6 472.678ZM431.9 472.678L431.9 470.678L429.9 470.678L429.9 472.678L431.9 472.678ZM439.1 545.578L437.657 546.963L439.1 545.578ZM478.1 546.178L476.779 544.677L476.747 544.705L476.716 544.734L478.1 546.178ZM390.8 553.978L389.498 552.46L390.8 553.978ZM399.2 472.678L401.2 472.678L401.2 470.678L399.2 470.678L399.2 472.678ZM343.1 472.678L343.1 470.678L341.1 470.678L341.1 472.678L343.1 472.678ZM351.2 553.378L349.813 554.819L351.2 553.378ZM362.9 600.878C351.26 600.878 341.603 597.878 333.806 591.983L331.394 595.173C339.997 601.678 350.54 604.878 362.9 604.878L362.9 600.878ZM333.825 591.997C326.143 586.044 320.244 577.951 316.159 567.641L312.441 569.115C316.756 580.005 323.057 588.713 331.375 595.159L333.825 591.997ZM316.154 567.629C312.06 557.491 310 546.349 310 534.178L306 534.178C306 546.808 308.14 558.465 312.446 569.127L316.154 567.629ZM310 534.178L310 431.278L306 431.278L306 534.178L310 534.178ZM308 433.278L521 433.278L521 429.278L308 429.278L308 433.278ZM519 431.278L519 545.278L523 545.278L523 431.278L519 431.278ZM519 545.278C519 554.896 516.412 563.063 511.3 569.878L514.5 572.278C520.188 564.694 523 555.66 523 545.278L519 545.278ZM511.279 569.907C506.285 576.822 499.752 582.21 491.64 586.072L493.36 589.684C502.048 585.547 509.115 579.734 514.521 572.249L511.279 569.907ZM491.64 586.072C483.493 589.952 475.186 591.878 466.7 591.878L466.7 595.878C475.814 595.878 484.707 593.804 493.36 589.684L491.64 586.072ZM466.7 591.878C456.651 591.878 447.189 589.37 438.284 584.337L436.316 587.819C445.811 593.186 455.949 595.878 466.7 595.878L466.7 591.878ZM438.301 584.346C429.688 579.37 423.269 572.105 419.031 562.473L415.369 564.084C419.931 574.452 426.912 582.386 436.299 587.81L438.301 584.346ZM415.282 562.712C411.793 574.534 405.528 583.755 396.505 590.474L398.895 593.682C408.672 586.401 415.407 576.422 419.118 563.844L415.282 562.712ZM396.484 590.49C387.489 597.38 376.336 600.878 362.9 600.878L362.9 604.878C377.064 604.878 389.111 601.176 398.916 593.666L396.484 590.49ZM485.6 470.678L431.9 470.678L431.9 474.678L485.6 474.678L485.6 470.678ZM429.9 472.678L429.9 527.878L433.9 527.878L433.9 472.678L429.9 472.678ZM429.9 527.878C429.9 535.205 432.507 541.599 437.657 546.963L440.543 544.193C436.093 539.558 433.9 534.151 433.9 527.878L429.9 527.878ZM437.657 546.963C442.912 552.437 450.079 555.078 458.9 555.078L458.9 551.078C450.921 551.078 444.888 548.719 440.543 544.193L437.657 546.963ZM458.9 555.078C467.304 555.078 474.238 552.649 479.484 547.622L476.716 544.734C472.362 548.907 466.496 551.078 458.9 551.078L458.9 555.078ZM479.421 547.68C484.848 542.904 487.6 536.859 487.6 529.678L483.6 529.678C483.6 535.697 481.352 540.652 476.779 544.677L479.421 547.68ZM487.6 529.678L487.6 472.678L483.6 472.678L483.6 529.678L487.6 529.678ZM370.7 563.178C378.948 563.178 386.117 560.626 392.102 555.497L389.498 552.46C384.283 556.93 378.052 559.178 370.7 559.178L370.7 563.178ZM392.102 555.497C398.118 550.34 401.2 543.897 401.2 536.278L397.2 536.278C397.2 542.66 394.682 548.016 389.498 552.46L392.102 555.497ZM401.2 536.278L401.2 472.678L397.2 472.678L397.2 536.278L401.2 536.278ZM399.2 470.678L343.1 470.678L343.1 474.678L399.2 474.678L399.2 470.678ZM341.1 472.678L341.1 534.178L345.1 534.178L345.1 472.678L341.1 472.678ZM341.1 534.178C341.1 542.313 344.015 549.236 349.813 554.819L352.587 551.938C347.585 547.12 345.1 541.243 345.1 534.178L341.1 534.178ZM349.813 554.819C355.591 560.383 362.591 563.178 370.7 563.178L370.7 559.178C363.609 559.178 357.609 556.773 352.587 551.938L349.813 554.819ZM308 635.184L308 633.184L306 633.184L306 635.184L308 635.184ZM521 635.184L523 635.184L523 633.184L521 633.184L521 635.184ZM521 676.584L521 678.584L523 678.584L523 676.584L521 676.584ZM308 676.584L306 676.584L306 678.584L308 678.584L308 676.584ZM308 637.184L521 637.184L521 633.184L308 633.184L308 637.184ZM519 635.184L519 676.584L523 676.584L523 635.184L519 635.184ZM521 674.584L308 674.584L308 678.584L521 678.584L521 674.584ZM310 676.584L310 635.184L306 635.184L306 676.584L310 676.584ZM521 778.924L523 778.924L523 777.53L521.692 777.048L521 778.924ZM521 820.924L521.69 822.801L523 822.32L523 820.924L521 820.924ZM308 899.224L306 899.224L306 902.09L308.69 901.101L308 899.224ZM308 856.624L307.301 854.75L306 855.235L306 856.624L308 856.624ZM361.1 836.824L361.799 838.698L363.1 838.213L363.1 836.824L361.1 836.824ZM361.1 762.424L363.1 762.424L363.1 761.028L361.789 760.547L361.1 762.424ZM308 742.924L306 742.924L306 744.32L307.311 744.802L308 742.924ZM308 700.324L308.692 698.448L306 697.454L306 700.324L308 700.324ZM390.2 829.324L388.2 829.324L388.2 832.102L390.834 831.221L390.2 829.324ZM478.1 799.924L478.734 801.821L484.292 799.962L478.758 798.035L478.1 799.924ZM390.2 769.324L390.858 767.435L388.2 766.51L388.2 769.324L390.2 769.324ZM519 778.924L519 820.924L523 820.924L523 778.924L519 778.924ZM520.31 819.047L307.31 897.347L308.69 901.101L521.69 822.801L520.31 819.047ZM310 899.224L310 856.624L306 856.624L306 899.224L310 899.224ZM308.699 858.498L361.799 838.698L360.401 834.95L307.301 854.75L308.699 858.498ZM363.1 836.824L363.1 762.424L359.1 762.424L359.1 836.824L363.1 836.824ZM361.789 760.547L308.689 741.047L307.311 744.802L360.411 764.302L361.789 760.547ZM310 742.924L310 700.324L306 700.324L306 742.924L310 742.924ZM307.308 702.201L520.308 780.801L521.692 777.048L308.692 698.448L307.308 702.201ZM390.834 831.221L478.734 801.821L477.466 798.028L389.566 827.428L390.834 831.221ZM478.758 798.035L390.858 767.435L389.542 771.213L477.442 801.813L478.758 798.035ZM388.2 769.324L388.2 829.324L392.2 829.324L392.2 769.324L388.2 769.324ZM465.2 1046.85L463.862 1045.36L461.761 1047.25L464.243 1048.61L465.2 1046.85ZM473 1035.45L471.275 1034.44L471.261 1034.46L471.249 1034.48L473 1035.45ZM482 1014.45L480.112 1013.79L480.102 1013.82L480.094 1013.85L482 1014.45ZM439.7 977.25L437.803 976.618L439.7 977.25ZM431.9 1004.25L429.964 1003.75L429.963 1003.75L431.9 1004.25ZM419.3 1040.55L417.49 1039.7L417.487 1039.71L417.484 1039.71L419.3 1040.55ZM400.1 1064.25L398.981 1062.59L398.957 1062.61L398.934 1062.63L400.1 1064.25ZM332 1061.55L333.237 1059.98L333.233 1059.97L332 1061.55ZM311.9 1032.75L313.788 1032.09L311.9 1032.75ZM312.8 946.05L310.895 945.44L310.891 945.454L310.886 945.469L312.8 946.05ZM333.2 904.35L334.112 902.57L332.566 901.778L331.565 903.198L333.2 904.35ZM368.9 922.65L370.314 924.064L372.256 922.123L369.812 920.87L368.9 922.65ZM361.7 932.25L360.025 931.157L360.008 931.184L359.992 931.21L361.7 932.25ZM353 949.05L351.179 948.222L351.169 948.246L351.159 948.269L353 949.05ZM345.8 970.65L343.863 970.153L345.8 970.65ZM379.7 1021.65L378.158 1020.38L379.7 1021.65ZM389.3 1002.15L387.393 1001.55L387.389 1001.56L389.3 1002.15ZM398 973.35L399.92 973.909L399.923 973.898L399.926 973.888L398 973.35ZM410.6 939.45L408.844 938.492L408.831 938.516L408.819 938.54L410.6 939.45ZM428.3 919.65L427.257 917.943L427.246 917.95L427.236 917.957L428.3 919.65ZM492.2 923.25L493.347 921.612L493.34 921.607L492.2 923.25ZM514.7 951.45L512.858 952.23L512.864 952.243L512.87 952.257L514.7 951.45ZM498.8 1065.15L497.843 1066.91L499.441 1067.78L500.458 1066.27L498.8 1065.15ZM466.538 1048.34C468.816 1046.29 471.556 1042.21 474.751 1036.42L471.249 1034.48C468.044 1040.29 465.584 1043.81 463.862 1045.36L466.538 1048.34ZM474.725 1036.46C478.218 1030.5 481.273 1023.36 483.906 1015.05L480.094 1013.85C477.527 1021.94 474.582 1028.8 471.275 1034.44L474.725 1036.46ZM483.888 1015.11C486.763 1006.9 488.2 998.372 488.2 989.55L484.2 989.55C484.2 997.928 482.837 1006 480.112 1013.79L483.888 1015.11ZM488.2 989.55C488.2 978.075 486.18 969.11 481.832 962.969C477.395 956.702 470.733 953.65 462.2 953.65L462.2 957.65C469.667 957.65 475.005 960.248 478.568 965.281C482.22 970.44 484.2 978.425 484.2 989.55L488.2 989.55ZM462.2 953.65C455.952 953.65 450.789 955.608 446.946 959.677L449.854 962.423C452.811 959.292 456.848 957.65 462.2 957.65L462.2 953.65ZM446.946 959.677C443.268 963.571 440.25 969.274 437.803 976.618L441.597 977.882C443.95 970.826 446.732 965.729 449.854 962.423L446.946 959.677ZM437.803 976.618C435.383 983.875 432.771 992.923 429.964 1003.75L433.836 1004.75C436.629 993.978 439.217 985.025 441.597 977.882L437.803 976.618ZM429.963 1003.75C426.386 1017.66 422.224 1029.64 417.49 1039.7L421.11 1041.4C425.976 1031.06 430.214 1018.84 433.837 1004.75L429.963 1003.75ZM417.484 1039.71C412.808 1049.84 406.626 1057.43 398.981 1062.59L401.219 1065.91C409.574 1060.27 416.192 1052.06 421.116 1041.39L417.484 1039.71ZM398.934 1062.63C391.575 1067.91 381.627 1070.65 368.9 1070.65L368.9 1074.65C382.173 1074.65 393.025 1071.79 401.266 1065.87L398.934 1062.63ZM368.9 1070.65C354.025 1070.65 342.198 1067.03 333.237 1059.98L330.763 1063.12C340.601 1070.87 353.374 1074.65 368.9 1074.65L368.9 1070.65ZM333.233 1059.97C324.36 1053.03 317.873 1043.76 313.788 1032.09L310.012 1033.41C314.327 1045.74 321.239 1055.67 330.767 1063.13L333.233 1059.97ZM313.788 1032.09C309.669 1020.32 307.6 1007.55 307.6 993.75L303.6 993.75C303.6 1007.95 305.731 1021.18 310.012 1033.41L313.788 1032.09ZM307.6 993.75C307.6 977.953 309.969 962.249 314.714 946.631L310.886 945.469C306.031 961.451 303.6 977.547 303.6 993.75L307.6 993.75ZM314.705 946.66C319.649 931.235 326.362 917.521 334.835 905.502L331.565 903.198C322.838 915.579 315.951 929.665 310.895 945.44L314.705 946.66ZM332.288 906.13L367.988 924.43L369.812 920.87L334.112 902.57L332.288 906.13ZM367.486 921.236C365.529 923.193 363.034 926.543 360.025 931.157L363.375 933.343C366.366 928.757 368.671 925.707 370.314 924.064L367.486 921.236ZM359.992 931.21C357.138 935.897 354.202 941.573 351.179 948.222L354.821 949.878C357.798 943.327 360.661 937.803 363.408 933.29L359.992 931.21ZM351.159 948.269C348.315 954.972 345.885 962.268 343.863 970.153L347.737 971.147C349.715 963.432 352.085 956.328 354.841 949.831L351.159 948.269ZM343.863 970.153C341.821 978.115 340.8 986.181 340.8 994.35L344.8 994.35C344.8 986.519 345.779 978.786 347.737 971.147L343.863 970.153ZM340.8 994.35C340.8 1005.9 342.637 1014.9 346.591 1021.08C350.642 1027.4 356.782 1030.55 364.7 1030.55L364.7 1026.55C358.018 1026.55 353.208 1024 349.959 1018.92C346.613 1013.7 344.8 1005.6 344.8 994.35L340.8 994.35ZM364.7 1030.55C371.47 1030.55 377.045 1028 381.242 1022.92L378.158 1020.38C374.755 1024.5 370.33 1026.55 364.7 1026.55L364.7 1030.55ZM381.242 1022.92C385.267 1018.05 388.567 1011.28 391.211 1002.74L387.389 1001.56C384.833 1009.82 381.733 1016.05 378.158 1020.38L381.242 1022.92ZM391.206 1002.75C393.813 994.535 396.717 984.919 399.92 973.909L396.08 972.791C392.883 983.781 389.987 993.365 387.393 1001.55L391.206 1002.75ZM399.926 973.888C403.703 960.37 407.86 949.205 412.381 940.36L408.819 938.54C404.14 947.695 399.897 959.13 396.074 972.812L399.926 973.888ZM412.356 940.408C417.027 931.845 422.709 925.526 429.364 921.343L427.236 917.957C419.89 922.574 413.773 929.456 408.844 938.492L412.356 940.408ZM429.343 921.357C436.147 917.199 444.859 915.05 455.6 915.05L455.6 911.05C444.341 911.05 434.853 913.302 427.257 917.943L429.343 921.357ZM455.6 915.05C469.885 915.05 481.663 918.373 491.06 924.893L493.34 921.607C483.137 914.527 470.515 911.05 455.6 911.05L455.6 915.05ZM491.053 924.889C500.73 931.662 507.997 940.758 512.858 952.23L516.541 950.67C511.403 938.542 503.67 928.838 493.347 921.612L491.053 924.889ZM512.87 952.257C517.945 963.774 520.5 976.595 520.5 990.75L524.5 990.75C524.5 976.105 521.855 962.726 516.53 950.644L512.87 952.257ZM520.5 990.75C520.5 1005.33 518.136 1018.89 513.427 1031.45L517.173 1032.85C522.064 1019.81 524.5 1005.77 524.5 990.75L520.5 990.75ZM513.427 1031.45C508.67 1044.13 503.237 1054.99 497.141 1064.03L500.458 1066.27C506.763 1056.91 512.33 1045.77 517.173 1032.85L513.427 1031.45ZM499.757 1063.39L466.157 1045.09L464.243 1048.61L497.843 1066.91L499.757 1063.39Z" fill="white"/>
<path opacity="0.02" d="M714.7 182.766L712.7 182.766L712.7 184.766L714.7 184.766L714.7 182.766ZM714.7 114.666L716.7 114.666L716.7 112.666L714.7 112.666L714.7 114.666ZM538 114.666L536 114.666L536 116.666L538 116.666L538 114.666ZM538 73.5656L538 71.5656L536 71.5656L536 73.5656L538 73.5656ZM714.7 73.5657L714.7 75.5657L716.7 75.5657L716.7 73.5657L714.7 73.5657ZM714.7 5.46565L714.7 3.46565L712.7 3.46565L712.7 5.46565L714.7 5.46565ZM751 5.46565L753 5.46565L753 3.46565L751 3.46565L751 5.46565ZM751 182.766L751 184.766L753 184.766L753 182.766L751 182.766ZM716.7 182.766L716.7 114.666L712.7 114.666L712.7 182.766L716.7 182.766ZM714.7 112.666L538 112.666L538 116.666L714.7 116.666L714.7 112.666ZM540 114.666L540 73.5656L536 73.5656L536 114.666L540 114.666ZM538 75.5656L714.7 75.5657L714.7 71.5657L538 71.5656L538 75.5656ZM716.7 73.5657L716.7 5.46565L712.7 5.46565L712.7 73.5657L716.7 73.5657ZM714.7 7.46565L751 7.46565L751 3.46565L714.7 3.46565L714.7 7.46565ZM749 5.46565L749 182.766L753 182.766L753 5.46565L749 5.46565ZM751 180.766L714.7 180.766L714.7 184.766L751 184.766L751 180.766ZM545.5 252.82L543.694 251.96L543.689 251.971L545.5 252.82ZM569.8 220.12L568.491 218.608L568.476 218.621L568.46 218.635L569.8 220.12ZM604.6 199.12L603.882 197.254L603.872 197.257L604.6 199.12ZM685 199.42L684.247 201.273L684.257 201.277L685 199.42ZM719.5 221.32L718.13 222.778L718.137 222.784L718.145 222.791L719.5 221.32ZM743.5 254.32L741.683 255.157L741.689 255.169L743.5 254.32ZM743.2 338.32L741.405 337.437L741.4 337.448L743.2 338.32ZM718.3 371.02L716.991 369.508L716.983 369.515L716.975 369.522L718.3 371.02ZM683.2 392.02L682.507 390.144L682.49 390.151L682.472 390.157L683.2 392.02ZM603.4 391.72L602.647 393.573L602.657 393.577L603.4 391.72ZM568.9 369.82L570.255 368.35L570.254 368.348L568.9 369.82ZM545.2 336.82L547.022 335.995L547.017 335.984L545.2 336.82ZM609.7 240.82L608.888 238.993L608.874 238.999L608.86 239.005L609.7 240.82ZM583.3 262.12L581.692 260.932L581.686 260.94L581.68 260.948L583.3 262.12ZM583.6 329.62L582.008 330.831L583.6 329.62ZM610.6 350.62L609.8 352.453L610.6 350.62ZM679.3 350.32L678.46 348.505L679.3 350.32ZM705.4 328.72L703.792 327.532L703.777 327.551L703.763 327.571L705.4 328.72ZM705.1 261.82L706.692 260.609L706.692 260.609L705.1 261.82ZM678.1 240.82L677.288 242.648L677.3 242.653L678.1 240.82ZM538.5 295.42C538.5 280.083 541.448 266.177 547.311 253.669L543.689 251.971C537.552 265.064 534.5 279.558 534.5 295.42L538.5 295.42ZM547.306 253.68C553.195 241.313 561.138 230.627 571.14 221.605L568.46 218.635C558.062 228.014 549.805 239.127 543.694 251.96L547.306 253.68ZM571.109 221.633C581.337 212.782 592.74 205.9 605.328 200.983L603.872 197.257C590.86 202.34 579.063 209.459 568.491 218.608L571.109 221.633ZM605.318 200.987C618.094 196.073 631.151 193.62 644.5 193.62L644.5 189.62C630.649 189.62 617.106 192.168 603.882 197.254L605.318 200.987ZM644.5 193.62C658.449 193.62 671.693 196.173 684.247 201.273L685.753 197.567C672.707 192.268 658.951 189.62 644.5 189.62L644.5 193.62ZM684.257 201.277C697.03 206.386 708.316 213.552 718.13 222.778L720.87 219.863C710.684 210.288 698.97 202.854 685.743 197.563L684.257 201.277ZM718.145 222.791C728.15 232.012 735.994 242.796 741.683 255.157L745.317 253.484C739.406 240.644 731.25 229.429 720.855 219.85L718.145 222.791ZM741.689 255.169C747.555 267.684 750.5 281.391 750.5 296.32L754.5 296.32C754.5 280.849 751.445 266.557 745.311 253.471L741.689 255.169ZM750.5 296.32C750.5 311.444 747.458 325.138 741.405 337.437L744.995 339.203C751.342 326.303 754.5 311.996 754.5 296.32L750.5 296.32ZM741.4 337.448C735.314 350.012 727.179 360.692 716.991 369.508L719.609 372.533C730.221 363.349 738.686 352.228 745 339.192L741.4 337.448ZM716.975 369.522C706.76 378.559 695.274 385.43 682.507 390.144L683.893 393.897C697.126 389.011 709.04 381.882 719.625 372.518L716.975 369.522ZM682.472 390.157C669.898 395.069 657.045 397.52 643.9 397.52L643.9 401.52C657.555 401.52 670.902 398.971 683.928 393.883L682.472 390.157ZM643.9 397.52C630.154 397.52 616.907 394.969 604.143 389.863L602.657 393.577C615.893 398.872 629.646 401.52 643.9 401.52L643.9 397.52ZM604.153 389.867C591.576 384.758 580.28 377.588 570.255 368.35L567.545 371.291C577.92 380.853 589.624 388.283 602.647 393.573L604.153 389.867ZM570.254 368.348C560.459 359.337 552.715 348.559 547.022 335.995L543.378 337.646C549.285 350.682 557.341 361.904 567.546 371.292L570.254 368.348ZM547.017 335.984C541.347 323.667 538.5 310.155 538.5 295.42L534.5 295.42C534.5 310.685 537.453 324.774 543.383 337.657L547.017 335.984ZM644.5 231.62C631.834 231.62 619.956 234.073 608.888 238.993L610.512 242.648C621.044 237.967 632.366 235.62 644.5 235.62L644.5 231.62ZM608.86 239.005C597.768 244.14 588.699 251.451 581.692 260.932L584.908 263.309C591.501 254.39 600.032 247.5 610.54 242.635L608.86 239.005ZM581.68 260.948C574.603 270.73 571.1 282.352 571.1 295.72L575.1 295.72C575.1 283.088 578.397 272.311 584.92 263.293L581.68 260.948ZM571.1 295.72C571.1 309.485 574.703 321.23 582.008 330.831L585.192 328.409C578.497 319.611 575.1 308.755 575.1 295.72L571.1 295.72ZM582.008 330.831C589.223 340.313 598.5 347.522 609.8 352.453L611.4 348.787C600.7 344.118 591.977 337.327 585.192 328.409L582.008 330.831ZM609.8 352.453C621.043 357.36 632.615 359.82 644.5 359.82L644.5 355.82C633.185 355.82 622.157 353.481 611.4 348.787L609.8 352.453ZM644.5 359.82C657.178 359.82 669.066 357.262 680.14 352.135L678.46 348.505C667.934 353.378 656.622 355.82 644.5 355.82L644.5 359.82ZM680.14 352.135C691.248 346.993 700.227 339.568 707.037 329.87L703.763 327.571C697.373 336.672 688.952 343.648 678.46 348.505L680.14 352.135ZM707.008 329.909C714.093 320.324 717.6 308.895 717.6 295.72L713.6 295.72C713.6 308.146 710.307 318.716 703.792 327.532L707.008 329.909ZM717.6 295.72C717.6 281.955 713.997 270.211 706.692 260.609L703.508 263.031C710.203 271.83 713.6 282.685 713.6 295.72L717.6 295.72ZM706.692 260.609C699.477 251.127 690.2 243.918 678.9 238.987L677.3 242.653C688 247.322 696.723 254.113 703.508 263.031L706.692 260.609ZM678.912 238.993C667.862 234.081 656.385 231.62 644.5 231.62L644.5 235.62C655.815 235.62 666.738 237.959 677.288 242.648L678.912 238.993ZM562.6 593.578L561.375 595.159L561.384 595.166L561.394 595.173L562.6 593.578ZM544.3 568.378L546.159 567.641L546.154 567.629L544.3 568.378ZM538 431.278L538 429.278L536 429.278L536 431.278L538 431.278ZM751 431.278L753 431.278L753 429.278L751 429.278L751 431.278ZM742.9 571.078L741.3 569.878L741.289 569.893L741.279 569.907L742.9 571.078ZM722.5 587.878L721.64 586.072L722.5 587.878ZM667.3 586.078L666.299 587.81L666.308 587.815L666.316 587.819L667.3 586.078ZM647.2 563.278L649.031 562.473L646.829 557.469L645.282 562.712L647.2 563.278ZM627.7 592.078L626.505 590.474L626.495 590.482L626.484 590.49L627.7 592.078ZM715.6 472.678L717.6 472.678L717.6 470.678L715.6 470.678L715.6 472.678ZM661.9 472.678L661.9 470.678L659.9 470.678L659.9 472.678L661.9 472.678ZM669.1 545.578L667.657 546.963L669.1 545.578ZM708.1 546.178L706.779 544.677L706.747 544.705L706.716 544.734L708.1 546.178ZM620.8 553.978L619.498 552.46L620.8 553.978ZM629.2 472.678L631.2 472.678L631.2 470.678L629.2 470.678L629.2 472.678ZM573.1 472.678L573.1 470.678L571.1 470.678L571.1 472.678L573.1 472.678ZM581.2 553.378L579.813 554.819L581.2 553.378ZM592.9 600.878C581.26 600.878 571.603 597.878 563.806 591.983L561.394 595.173C569.997 601.678 580.54 604.878 592.9 604.878L592.9 600.878ZM563.825 591.997C556.143 586.044 550.244 577.951 546.159 567.641L542.441 569.115C546.756 580.005 553.057 588.713 561.375 595.159L563.825 591.997ZM546.154 567.629C542.06 557.491 540 546.349 540 534.178L536 534.178C536 546.808 538.14 558.465 542.446 569.127L546.154 567.629ZM540 534.178L540 431.278L536 431.278L536 534.178L540 534.178ZM538 433.278L751 433.278L751 429.278L538 429.278L538 433.278ZM749 431.278L749 545.278L753 545.278L753 431.278L749 431.278ZM749 545.278C749 554.896 746.412 563.063 741.3 569.878L744.5 572.278C750.188 564.694 753 555.66 753 545.278L749 545.278ZM741.279 569.907C736.285 576.822 729.752 582.21 721.64 586.072L723.36 589.684C732.048 585.547 739.115 579.734 744.521 572.249L741.279 569.907ZM721.64 586.072C713.493 589.952 705.186 591.878 696.7 591.878L696.7 595.878C705.814 595.878 714.707 593.804 723.36 589.684L721.64 586.072ZM696.7 591.878C686.651 591.878 677.189 589.37 668.284 584.337L666.316 587.819C675.811 593.186 685.949 595.878 696.7 595.878L696.7 591.878ZM668.301 584.346C659.688 579.37 653.269 572.105 649.031 562.473L645.369 564.084C649.931 574.452 656.912 582.386 666.299 587.81L668.301 584.346ZM645.282 562.712C641.793 574.534 635.528 583.755 626.505 590.474L628.895 593.682C638.672 586.401 645.407 576.422 649.118 563.844L645.282 562.712ZM626.484 590.49C617.489 597.38 606.336 600.878 592.9 600.878L592.9 604.878C607.064 604.878 619.111 601.176 628.916 593.666L626.484 590.49ZM715.6 470.678L661.9 470.678L661.9 474.678L715.6 474.678L715.6 470.678ZM659.9 472.678L659.9 527.878L663.9 527.878L663.9 472.678L659.9 472.678ZM659.9 527.878C659.9 535.205 662.507 541.599 667.657 546.963L670.543 544.193C666.093 539.558 663.9 534.151 663.9 527.878L659.9 527.878ZM667.657 546.963C672.912 552.437 680.079 555.078 688.9 555.078L688.9 551.078C680.921 551.078 674.888 548.719 670.543 544.193L667.657 546.963ZM688.9 555.078C697.304 555.078 704.238 552.649 709.484 547.622L706.716 544.734C702.362 548.907 696.496 551.078 688.9 551.078L688.9 555.078ZM709.421 547.68C714.848 542.904 717.6 536.859 717.6 529.678L713.6 529.678C713.6 535.697 711.352 540.652 706.779 544.677L709.421 547.68ZM717.6 529.678L717.6 472.678L713.6 472.678L713.6 529.678L717.6 529.678ZM600.7 563.178C608.948 563.178 616.117 560.626 622.102 555.497L619.498 552.46C614.283 556.93 608.052 559.178 600.7 559.178L600.7 563.178ZM622.102 555.497C628.118 550.34 631.2 543.897 631.2 536.278L627.2 536.278C627.2 542.66 624.682 548.016 619.498 552.46L622.102 555.497ZM631.2 536.278L631.2 472.678L627.2 472.678L627.2 536.278L631.2 536.278ZM629.2 470.678L573.1 470.678L573.1 474.678L629.2 474.678L629.2 470.678ZM571.1 472.678L571.1 534.178L575.1 534.178L575.1 472.678L571.1 472.678ZM571.1 534.178C571.1 542.313 574.015 549.236 579.813 554.819L582.587 551.938C577.585 547.12 575.1 541.243 575.1 534.178L571.1 534.178ZM579.813 554.819C585.591 560.383 592.591 563.178 600.7 563.178L600.7 559.178C593.609 559.178 587.609 556.773 582.587 551.938L579.813 554.819ZM538 635.184L538 633.184L536 633.184L536 635.184L538 635.184ZM751 635.184L753 635.184L753 633.184L751 633.184L751 635.184ZM751 676.584L751 678.584L753 678.584L753 676.584L751 676.584ZM538 676.584L536 676.584L536 678.584L538 678.584L538 676.584ZM538 637.184L751 637.184L751 633.184L538 633.184L538 637.184ZM749 635.184L749 676.584L753 676.584L753 635.184L749 635.184ZM751 674.584L538 674.584L538 678.584L751 678.584L751 674.584ZM540 676.584L540 635.184L536 635.184L536 676.584L540 676.584ZM751 778.924L753 778.924L753 777.53L751.692 777.048L751 778.924ZM751 820.924L751.69 822.801L753 822.32L753 820.924L751 820.924ZM538 899.224L536 899.224L536 902.09L538.69 901.101L538 899.224ZM538 856.624L537.301 854.75L536 855.235L536 856.624L538 856.624ZM591.1 836.824L591.799 838.698L593.1 838.213L593.1 836.824L591.1 836.824ZM591.1 762.424L593.1 762.424L593.1 761.028L591.789 760.547L591.1 762.424ZM538 742.924L536 742.924L536 744.32L537.311 744.802L538 742.924ZM538 700.324L538.692 698.448L536 697.454L536 700.324L538 700.324ZM620.2 829.324L618.2 829.324L618.2 832.102L620.834 831.221L620.2 829.324ZM708.1 799.924L708.734 801.821L714.292 799.962L708.758 798.035L708.1 799.924ZM620.2 769.324L620.858 767.435L618.2 766.51L618.2 769.324L620.2 769.324ZM749 778.924L749 820.924L753 820.924L753 778.924L749 778.924ZM750.31 819.047L537.31 897.347L538.69 901.101L751.69 822.801L750.31 819.047ZM540 899.224L540 856.624L536 856.624L536 899.224L540 899.224ZM538.699 858.498L591.799 838.698L590.401 834.95L537.301 854.75L538.699 858.498ZM593.1 836.824L593.1 762.424L589.1 762.424L589.1 836.824L593.1 836.824ZM591.789 760.547L538.689 741.047L537.311 744.802L590.411 764.302L591.789 760.547ZM540 742.924L540 700.324L536 700.324L536 742.924L540 742.924ZM537.308 702.201L750.308 780.801L751.692 777.048L538.692 698.448L537.308 702.201ZM620.834 831.221L708.734 801.821L707.466 798.028L619.566 827.428L620.834 831.221ZM708.758 798.035L620.858 767.435L619.542 771.213L707.442 801.813L708.758 798.035ZM618.2 769.324L618.2 829.324L622.2 829.324L622.2 769.324L618.2 769.324ZM695.2 1046.85L693.862 1045.36L691.761 1047.25L694.243 1048.61L695.2 1046.85ZM703 1035.45L701.275 1034.44L701.261 1034.46L701.249 1034.48L703 1035.45ZM712 1014.45L710.112 1013.79L710.102 1013.82L710.094 1013.85L712 1014.45ZM669.7 977.25L667.803 976.618L669.7 977.25ZM661.9 1004.25L659.964 1003.75L659.963 1003.75L661.9 1004.25ZM649.3 1040.55L647.49 1039.7L647.487 1039.71L647.484 1039.71L649.3 1040.55ZM630.1 1064.25L628.981 1062.59L628.957 1062.61L628.934 1062.63L630.1 1064.25ZM562 1061.55L563.237 1059.98L563.233 1059.97L562 1061.55ZM541.9 1032.75L543.788 1032.09L541.9 1032.75ZM542.8 946.05L540.895 945.44L540.891 945.454L540.886 945.469L542.8 946.05ZM563.2 904.35L564.112 902.57L562.566 901.778L561.565 903.198L563.2 904.35ZM598.9 922.65L600.314 924.064L602.256 922.123L599.812 920.87L598.9 922.65ZM591.7 932.25L590.025 931.157L590.008 931.184L589.992 931.21L591.7 932.25ZM583 949.05L581.179 948.222L581.169 948.246L581.159 948.269L583 949.05ZM575.8 970.65L573.863 970.153L575.8 970.65ZM609.7 1021.65L608.158 1020.38L609.7 1021.65ZM619.3 1002.15L617.393 1001.55L617.389 1001.56L619.3 1002.15ZM628 973.35L629.92 973.909L629.923 973.898L629.926 973.888L628 973.35ZM640.6 939.45L638.844 938.492L638.831 938.516L638.819 938.54L640.6 939.45ZM658.3 919.65L657.257 917.943L657.246 917.95L657.236 917.957L658.3 919.65ZM722.2 923.25L723.347 921.612L723.34 921.607L722.2 923.25ZM744.7 951.45L742.858 952.23L742.864 952.243L742.87 952.257L744.7 951.45ZM728.8 1065.15L727.843 1066.91L729.441 1067.78L730.458 1066.27L728.8 1065.15ZM696.538 1048.34C698.816 1046.29 701.556 1042.21 704.751 1036.42L701.249 1034.48C698.044 1040.29 695.584 1043.81 693.862 1045.36L696.538 1048.34ZM704.725 1036.46C708.218 1030.5 711.273 1023.36 713.906 1015.05L710.094 1013.85C707.527 1021.94 704.582 1028.8 701.275 1034.44L704.725 1036.46ZM713.888 1015.11C716.763 1006.9 718.2 998.372 718.2 989.55L714.2 989.55C714.2 997.928 712.837 1006 710.112 1013.79L713.888 1015.11ZM718.2 989.55C718.2 978.075 716.18 969.11 711.832 962.969C707.395 956.702 700.733 953.65 692.2 953.65L692.2 957.65C699.667 957.65 705.005 960.248 708.568 965.281C712.22 970.44 714.2 978.425 714.2 989.55L718.2 989.55ZM692.2 953.65C685.952 953.65 680.789 955.608 676.946 959.677L679.854 962.423C682.811 959.292 686.848 957.65 692.2 957.65L692.2 953.65ZM676.946 959.677C673.268 963.571 670.25 969.274 667.803 976.618L671.597 977.882C673.95 970.826 676.732 965.729 679.854 962.423L676.946 959.677ZM667.803 976.618C665.383 983.875 662.771 992.923 659.964 1003.75L663.836 1004.75C666.629 993.978 669.217 985.025 671.597 977.882L667.803 976.618ZM659.963 1003.75C656.386 1017.66 652.224 1029.64 647.49 1039.7L651.11 1041.4C655.976 1031.06 660.214 1018.84 663.837 1004.75L659.963 1003.75ZM647.484 1039.71C642.808 1049.84 636.626 1057.43 628.981 1062.59L631.219 1065.91C639.574 1060.27 646.192 1052.06 651.116 1041.39L647.484 1039.71ZM628.934 1062.63C621.575 1067.91 611.627 1070.65 598.9 1070.65L598.9 1074.65C612.173 1074.65 623.025 1071.79 631.266 1065.87L628.934 1062.63ZM598.9 1070.65C584.025 1070.65 572.198 1067.03 563.237 1059.98L560.763 1063.12C570.601 1070.87 583.374 1074.65 598.9 1074.65L598.9 1070.65ZM563.233 1059.97C554.36 1053.03 547.873 1043.76 543.788 1032.09L540.012 1033.41C544.327 1045.74 551.239 1055.67 560.767 1063.13L563.233 1059.97ZM543.788 1032.09C539.669 1020.32 537.6 1007.55 537.6 993.75L533.6 993.75C533.6 1007.95 535.731 1021.18 540.012 1033.41L543.788 1032.09ZM537.6 993.75C537.6 977.953 539.969 962.249 544.714 946.631L540.886 945.469C536.031 961.451 533.6 977.547 533.6 993.75L537.6 993.75ZM544.705 946.66C549.649 931.235 556.362 917.521 564.835 905.502L561.565 903.198C552.838 915.579 545.951 929.665 540.895 945.44L544.705 946.66ZM562.288 906.13L597.988 924.43L599.812 920.87L564.112 902.57L562.288 906.13ZM597.486 921.236C595.529 923.193 593.034 926.543 590.025 931.157L593.375 933.343C596.366 928.757 598.671 925.707 600.314 924.064L597.486 921.236ZM589.992 931.21C587.138 935.897 584.202 941.573 581.179 948.222L584.821 949.878C587.798 943.327 590.661 937.803 593.408 933.29L589.992 931.21ZM581.159 948.269C578.315 954.972 575.885 962.268 573.863 970.153L577.737 971.147C579.715 963.432 582.085 956.328 584.841 949.831L581.159 948.269ZM573.863 970.153C571.821 978.115 570.8 986.181 570.8 994.35L574.8 994.35C574.8 986.519 575.779 978.786 577.737 971.147L573.863 970.153ZM570.8 994.35C570.8 1005.9 572.637 1014.9 576.591 1021.08C580.642 1027.4 586.782 1030.55 594.7 1030.55L594.7 1026.55C588.018 1026.55 583.208 1024 579.959 1018.92C576.613 1013.7 574.8 1005.6 574.8 994.35L570.8 994.35ZM594.7 1030.55C601.47 1030.55 607.045 1028 611.242 1022.92L608.158 1020.38C604.755 1024.5 600.33 1026.55 594.7 1026.55L594.7 1030.55ZM611.242 1022.92C615.267 1018.05 618.567 1011.28 621.211 1002.74L617.389 1001.56C614.833 1009.82 611.733 1016.05 608.158 1020.38L611.242 1022.92ZM621.206 1002.75C623.813 994.535 626.717 984.919 629.92 973.909L626.08 972.791C622.883 983.781 619.987 993.365 617.393 1001.55L621.206 1002.75ZM629.926 973.888C633.703 960.37 637.86 949.205 642.381 940.36L638.819 938.54C634.14 947.695 629.897 959.13 626.074 972.812L629.926 973.888ZM642.356 940.408C647.027 931.845 652.709 925.526 659.364 921.343L657.236 917.957C649.89 922.574 643.773 929.456 638.844 938.492L642.356 940.408ZM659.343 921.357C666.147 917.199 674.859 915.05 685.6 915.05L685.6 911.05C674.341 911.05 664.853 913.302 657.257 917.943L659.343 921.357ZM685.6 915.05C699.885 915.05 711.663 918.373 721.06 924.893L723.34 921.607C713.137 914.527 700.515 911.05 685.6 911.05L685.6 915.05ZM721.053 924.889C730.73 931.662 737.997 940.758 742.858 952.23L746.541 950.67C741.403 938.542 733.67 928.838 723.347 921.612L721.053 924.889ZM742.87 952.257C747.945 963.774 750.5 976.595 750.5 990.75L754.5 990.75C754.5 976.105 751.855 962.726 746.53 950.644L742.87 952.257ZM750.5 990.75C750.5 1005.33 748.136 1018.89 743.427 1031.45L747.173 1032.85C752.064 1019.81 754.5 1005.77 754.5 990.75L750.5 990.75ZM743.427 1031.45C738.67 1044.13 733.237 1054.99 727.141 1064.03L730.458 1066.27C736.763 1056.91 742.33 1045.77 747.173 1032.85L743.427 1031.45ZM729.757 1063.39L696.157 1045.09L694.243 1048.61L727.843 1066.91L729.757 1063.39Z" fill="white"/>
<path opacity="0.01" d="M948.7 181.766L946.7 181.766L946.7 183.766L948.7 183.766L948.7 181.766ZM948.7 113.666L950.7 113.666L950.7 111.666L948.7 111.666L948.7 113.666ZM772 113.666L770 113.666L770 115.666L772 115.666L772 113.666ZM772 72.5656L772 70.5656L770 70.5656L770 72.5656L772 72.5656ZM948.7 72.5656L948.7 74.5656L950.7 74.5656L950.7 72.5656L948.7 72.5656ZM948.7 4.46564L948.7 2.46564L946.7 2.46564L946.7 4.46564L948.7 4.46564ZM985 4.46564L987 4.46564L987 2.46564L985 2.46564L985 4.46564ZM985 181.766L985 183.766L987 183.766L987 181.766L985 181.766ZM950.7 181.766L950.7 113.666L946.7 113.666L946.7 181.766L950.7 181.766ZM948.7 111.666L772 111.666L772 115.666L948.7 115.666L948.7 111.666ZM774 113.666L774 72.5656L770 72.5656L770 113.666L774 113.666ZM772 74.5656L948.7 74.5656L948.7 70.5656L772 70.5656L772 74.5656ZM950.7 72.5656L950.7 4.46564L946.7 4.46564L946.7 72.5656L950.7 72.5656ZM948.7 6.46564L985 6.46564L985 2.46564L948.7 2.46564L948.7 6.46564ZM983 4.46564L983 181.766L987 181.766L987 4.46564L983 4.46564ZM985 179.766L948.7 179.766L948.7 183.766L985 183.766L985 179.766ZM779.5 251.82L777.694 250.96L777.689 250.971L779.5 251.82ZM803.8 219.12L802.491 217.608L802.476 217.621L802.46 217.635L803.8 219.12ZM838.6 198.12L837.882 196.254L837.872 196.257L838.6 198.12ZM919 198.42L918.247 200.273L918.257 200.277L919 198.42ZM953.5 220.32L952.13 221.778L952.137 221.784L952.145 221.791L953.5 220.32ZM977.5 253.32L975.683 254.157L975.689 254.169L977.5 253.32ZM977.2 337.32L975.405 336.437L975.4 336.448L977.2 337.32ZM952.3 370.02L950.991 368.508L950.983 368.515L950.975 368.522L952.3 370.02ZM917.2 391.02L916.507 389.144L916.49 389.151L916.472 389.157L917.2 391.02ZM837.4 390.72L836.647 392.573L836.657 392.577L837.4 390.72ZM802.9 368.82L804.255 367.35L804.254 367.348L802.9 368.82ZM779.2 335.82L781.022 334.995L781.017 334.984L779.2 335.82ZM843.7 239.82L842.888 237.993L842.874 237.999L842.86 238.005L843.7 239.82ZM817.3 261.12L815.692 259.932L815.686 259.94L815.68 259.948L817.3 261.12ZM817.6 328.62L816.008 329.831L817.6 328.62ZM844.6 349.62L843.8 351.453L844.6 349.62ZM913.3 349.32L912.46 347.505L913.3 349.32ZM939.4 327.72L937.792 326.532L937.777 326.551L937.763 326.571L939.4 327.72ZM939.1 260.82L940.692 259.609L940.692 259.609L939.1 260.82ZM912.1 239.82L911.288 241.648L911.3 241.653L912.1 239.82ZM772.5 294.42C772.5 279.083 775.448 265.177 781.311 252.669L777.689 250.971C771.552 264.064 768.5 278.558 768.5 294.42L772.5 294.42ZM781.306 252.68C787.195 240.313 795.138 229.627 805.14 220.605L802.46 217.635C792.062 227.014 783.805 238.127 777.694 250.96L781.306 252.68ZM805.109 220.633C815.337 211.782 826.74 204.9 839.328 199.983L837.872 196.257C824.86 201.34 813.063 208.459 802.491 217.608L805.109 220.633ZM839.318 199.987C852.094 195.073 865.151 192.62 878.5 192.62L878.5 188.62C864.649 188.62 851.106 191.168 837.882 196.254L839.318 199.987ZM878.5 192.62C892.449 192.62 905.693 195.173 918.247 200.273L919.753 196.567C906.707 191.268 892.951 188.62 878.5 188.62L878.5 192.62ZM918.257 200.277C931.03 205.386 942.316 212.552 952.13 221.778L954.87 218.863C944.684 209.288 932.97 201.854 919.743 196.563L918.257 200.277ZM952.145 221.791C962.15 231.012 969.994 241.796 975.683 254.157L979.317 252.484C973.406 239.644 965.25 228.429 954.855 218.85L952.145 221.791ZM975.689 254.169C981.555 266.684 984.5 280.391 984.5 295.32L988.5 295.32C988.5 279.849 985.445 265.557 979.311 252.471L975.689 254.169ZM984.5 295.32C984.5 310.444 981.458 324.138 975.405 336.437L978.995 338.203C985.342 325.303 988.5 310.996 988.5 295.32L984.5 295.32ZM975.4 336.448C969.314 349.012 961.179 359.692 950.991 368.508L953.609 371.533C964.221 362.349 972.686 351.228 979 338.192L975.4 336.448ZM950.975 368.522C940.76 377.559 929.274 384.43 916.507 389.144L917.893 392.897C931.126 388.011 943.04 380.882 953.625 371.518L950.975 368.522ZM916.472 389.157C903.898 394.069 891.045 396.52 877.9 396.52L877.9 400.52C891.555 400.52 904.902 397.971 917.928 392.883L916.472 389.157ZM877.9 396.52C864.154 396.52 850.907 393.969 838.143 388.863L836.657 392.577C849.893 397.872 863.646 400.52 877.9 400.52L877.9 396.52ZM838.153 388.867C825.576 383.758 814.28 376.588 804.255 367.35L801.545 370.291C811.92 379.853 823.624 387.283 836.647 392.573L838.153 388.867ZM804.254 367.348C794.459 358.337 786.715 347.559 781.022 334.995L777.378 336.646C783.285 349.682 791.341 360.904 801.546 370.292L804.254 367.348ZM781.017 334.984C775.347 322.667 772.5 309.155 772.5 294.42L768.5 294.42C768.5 309.685 771.453 323.774 777.383 336.657L781.017 334.984ZM878.5 230.62C865.834 230.62 853.956 233.073 842.888 237.993L844.512 241.648C855.044 236.967 866.366 234.62 878.5 234.62L878.5 230.62ZM842.86 238.005C831.768 243.14 822.699 250.451 815.692 259.932L818.908 262.309C825.501 253.39 834.032 246.5 844.54 241.635L842.86 238.005ZM815.68 259.948C808.603 269.73 805.1 281.352 805.1 294.72L809.1 294.72C809.1 282.088 812.397 271.311 818.92 262.293L815.68 259.948ZM805.1 294.72C805.1 308.485 808.703 320.23 816.008 329.831L819.192 327.409C812.497 318.611 809.1 307.755 809.1 294.72L805.1 294.72ZM816.008 329.831C823.223 339.313 832.5 346.522 843.8 351.453L845.4 347.787C834.7 343.118 825.977 336.327 819.192 327.409L816.008 329.831ZM843.8 351.453C855.043 356.36 866.615 358.82 878.5 358.82L878.5 354.82C867.185 354.82 856.157 352.481 845.4 347.787L843.8 351.453ZM878.5 358.82C891.178 358.82 903.066 356.262 914.14 351.135L912.46 347.505C901.934 352.378 890.622 354.82 878.5 354.82L878.5 358.82ZM914.14 351.135C925.248 345.993 934.227 338.568 941.037 328.87L937.763 326.571C931.373 335.672 922.952 342.648 912.46 347.505L914.14 351.135ZM941.008 328.909C948.093 319.324 951.6 307.895 951.6 294.72L947.6 294.72C947.6 307.146 944.307 317.716 937.792 326.532L941.008 328.909ZM951.6 294.72C951.6 280.955 947.997 269.211 940.692 259.609L937.508 262.031C944.203 270.83 947.6 281.685 947.6 294.72L951.6 294.72ZM940.692 259.609C933.477 250.127 924.2 242.918 912.9 237.987L911.3 241.653C922 246.322 930.723 253.113 937.508 262.031L940.692 259.609ZM912.912 237.993C901.862 233.081 890.385 230.62 878.5 230.62L878.5 234.62C889.815 234.62 900.738 236.959 911.288 241.648L912.912 237.993ZM796.6 592.578L795.375 594.159L795.384 594.166L795.394 594.173L796.6 592.578ZM778.3 567.378L780.159 566.641L780.154 566.629L778.3 567.378ZM772 430.278L772 428.278L770 428.278L770 430.278L772 430.278ZM985 430.278L987 430.278L987 428.278L985 428.278L985 430.278ZM976.9 570.078L975.3 568.878L975.289 568.893L975.279 568.907L976.9 570.078ZM956.5 586.878L955.64 585.072L956.5 586.878ZM901.3 585.078L900.299 586.81L900.308 586.815L900.316 586.819L901.3 585.078ZM881.2 562.278L883.031 561.473L880.829 556.469L879.282 561.712L881.2 562.278ZM861.7 591.078L860.505 589.474L860.495 589.482L860.484 589.49L861.7 591.078ZM949.6 471.678L951.6 471.678L951.6 469.678L949.6 469.678L949.6 471.678ZM895.9 471.678L895.9 469.678L893.9 469.678L893.9 471.678L895.9 471.678ZM903.1 544.578L901.657 545.963L903.1 544.578ZM942.1 545.178L940.779 543.677L940.747 543.705L940.716 543.734L942.1 545.178ZM854.8 552.978L853.498 551.46L854.8 552.978ZM863.2 471.678L865.2 471.678L865.2 469.678L863.2 469.678L863.2 471.678ZM807.1 471.678L807.1 469.678L805.1 469.678L805.1 471.678L807.1 471.678ZM815.2 552.378L813.813 553.819L815.2 552.378ZM826.9 599.878C815.26 599.878 805.603 596.878 797.806 590.983L795.394 594.173C803.997 600.678 814.54 603.878 826.9 603.878L826.9 599.878ZM797.825 590.997C790.143 585.044 784.244 576.951 780.159 566.641L776.441 568.115C780.756 579.005 787.057 587.713 795.375 594.159L797.825 590.997ZM780.154 566.629C776.06 556.491 774 545.349 774 533.178L770 533.178C770 545.808 772.14 557.465 776.446 568.127L780.154 566.629ZM774 533.178L774 430.278L770 430.278L770 533.178L774 533.178ZM772 432.278L985 432.278L985 428.278L772 428.278L772 432.278ZM983 430.278L983 544.278L987 544.278L987 430.278L983 430.278ZM983 544.278C983 553.896 980.412 562.063 975.3 568.878L978.5 571.278C984.188 563.694 987 554.66 987 544.278L983 544.278ZM975.279 568.907C970.285 575.822 963.752 581.21 955.64 585.072L957.36 588.684C966.048 584.547 973.115 578.734 978.521 571.249L975.279 568.907ZM955.64 585.072C947.493 588.952 939.186 590.878 930.7 590.878L930.7 594.878C939.814 594.878 948.707 592.804 957.36 588.684L955.64 585.072ZM930.7 590.878C920.651 590.878 911.189 588.37 902.284 583.337L900.316 586.819C909.811 592.186 919.949 594.878 930.7 594.878L930.7 590.878ZM902.301 583.346C893.688 578.37 887.269 571.105 883.031 561.473L879.369 563.084C883.931 573.452 890.912 581.386 900.299 586.81L902.301 583.346ZM879.282 561.712C875.793 573.534 869.528 582.755 860.505 589.474L862.895 592.682C872.672 585.401 879.407 575.422 883.118 562.844L879.282 561.712ZM860.484 589.49C851.489 596.38 840.336 599.878 826.9 599.878L826.9 603.878C841.064 603.878 853.111 600.176 862.916 592.666L860.484 589.49ZM949.6 469.678L895.9 469.678L895.9 473.678L949.6 473.678L949.6 469.678ZM893.9 471.678L893.9 526.878L897.9 526.878L897.9 471.678L893.9 471.678ZM893.9 526.878C893.9 534.205 896.507 540.599 901.657 545.963L904.543 543.193C900.093 538.558 897.9 533.151 897.9 526.878L893.9 526.878ZM901.657 545.963C906.912 551.437 914.079 554.078 922.9 554.078L922.9 550.078C914.921 550.078 908.888 547.719 904.543 543.193L901.657 545.963ZM922.9 554.078C931.304 554.078 938.238 551.649 943.484 546.622L940.716 543.734C936.362 547.907 930.496 550.078 922.9 550.078L922.9 554.078ZM943.421 546.68C948.848 541.904 951.6 535.859 951.6 528.678L947.6 528.678C947.6 534.697 945.352 539.652 940.779 543.677L943.421 546.68ZM951.6 528.678L951.6 471.678L947.6 471.678L947.6 528.678L951.6 528.678ZM834.7 562.178C842.948 562.178 850.117 559.626 856.102 554.497L853.498 551.46C848.283 555.93 842.052 558.178 834.7 558.178L834.7 562.178ZM856.102 554.497C862.118 549.34 865.2 542.897 865.2 535.278L861.2 535.278C861.2 541.659 858.682 547.016 853.498 551.46L856.102 554.497ZM865.2 535.278L865.2 471.678L861.2 471.678L861.2 535.278L865.2 535.278ZM863.2 469.678L807.1 469.678L807.1 473.678L863.2 473.678L863.2 469.678ZM805.1 471.678L805.1 533.178L809.1 533.178L809.1 471.678L805.1 471.678ZM805.1 533.178C805.1 541.313 808.015 548.236 813.813 553.819L816.587 550.938C811.585 546.12 809.1 540.243 809.1 533.178L805.1 533.178ZM813.813 553.819C819.591 559.383 826.591 562.178 834.7 562.178L834.7 558.178C827.609 558.178 821.609 555.773 816.587 550.938L813.813 553.819ZM772 634.184L772 632.184L770 632.184L770 634.184L772 634.184ZM985 634.184L987 634.184L987 632.184L985 632.184L985 634.184ZM985 675.584L985 677.584L987 677.584L987 675.584L985 675.584ZM772 675.584L770 675.584L770 677.584L772 677.584L772 675.584ZM772 636.184L985 636.184L985 632.184L772 632.184L772 636.184ZM983 634.184L983 675.584L987 675.584L987 634.184L983 634.184ZM985 673.584L772 673.584L772 677.584L985 677.584L985 673.584ZM774 675.584L774 634.184L770 634.184L770 675.584L774 675.584ZM985 777.924L987 777.924L987 776.53L985.692 776.048L985 777.924ZM985 819.924L985.69 821.801L987 821.32L987 819.924L985 819.924ZM772 898.224L770 898.224L770 901.09L772.69 900.101L772 898.224ZM772 855.624L771.301 853.75L770 854.235L770 855.624L772 855.624ZM825.1 835.824L825.799 837.698L827.1 837.213L827.1 835.824L825.1 835.824ZM825.1 761.424L827.1 761.424L827.1 760.028L825.789 759.547L825.1 761.424ZM772 741.924L770 741.924L770 743.32L771.311 743.802L772 741.924ZM772 699.324L772.692 697.448L770 696.454L770 699.324L772 699.324ZM854.2 828.324L852.2 828.324L852.2 831.102L854.834 830.221L854.2 828.324ZM942.1 798.924L942.734 800.821L948.292 798.962L942.758 797.035L942.1 798.924ZM854.2 768.324L854.858 766.435L852.2 765.51L852.2 768.324L854.2 768.324ZM983 777.924L983 819.924L987 819.924L987 777.924L983 777.924ZM984.31 818.047L771.31 896.347L772.69 900.101L985.69 821.801L984.31 818.047ZM774 898.224L774 855.624L770 855.624L770 898.224L774 898.224ZM772.699 857.498L825.799 837.698L824.401 833.95L771.301 853.75L772.699 857.498ZM827.1 835.824L827.1 761.424L823.1 761.424L823.1 835.824L827.1 835.824ZM825.789 759.547L772.689 740.047L771.311 743.802L824.411 763.302L825.789 759.547ZM774 741.924L774 699.324L770 699.324L770 741.924L774 741.924ZM771.308 701.201L984.308 779.801L985.692 776.048L772.692 697.448L771.308 701.201ZM854.834 830.221L942.734 800.821L941.466 797.028L853.566 826.427L854.834 830.221ZM942.758 797.035L854.858 766.435L853.542 770.213L941.442 800.813L942.758 797.035ZM852.2 768.324L852.2 828.324L856.2 828.324L856.2 768.324L852.2 768.324ZM929.2 1045.85L927.862 1044.36L925.761 1046.25L928.243 1047.61L929.2 1045.85ZM937 1034.45L935.275 1033.44L935.261 1033.46L935.249 1033.48L937 1034.45ZM946 1013.45L944.112 1012.79L944.102 1012.82L944.094 1012.85L946 1013.45ZM903.7 976.25L901.803 975.618L903.7 976.25ZM895.9 1003.25L893.964 1002.75L893.963 1002.75L895.9 1003.25ZM883.3 1039.55L881.49 1038.7L881.487 1038.71L881.484 1038.71L883.3 1039.55ZM864.1 1063.25L862.981 1061.59L862.957 1061.61L862.934 1061.63L864.1 1063.25ZM796 1060.55L797.237 1058.98L797.233 1058.97L796 1060.55ZM775.9 1031.75L777.788 1031.09L775.9 1031.75ZM776.8 945.05L774.895 944.44L774.891 944.454L774.886 944.469L776.8 945.05ZM797.2 903.35L798.112 901.57L796.566 900.778L795.565 902.198L797.2 903.35ZM832.9 921.65L834.314 923.064L836.256 921.123L833.812 919.87L832.9 921.65ZM825.7 931.25L824.025 930.157L824.008 930.184L823.992 930.21L825.7 931.25ZM817 948.05L815.179 947.222L815.169 947.246L815.159 947.269L817 948.05ZM809.8 969.65L807.863 969.153L809.8 969.65ZM843.7 1020.65L842.158 1019.38L843.7 1020.65ZM853.3 1001.15L851.393 1000.55L851.389 1000.56L853.3 1001.15ZM862 972.35L863.92 972.909L863.923 972.898L863.926 972.888L862 972.35ZM874.6 938.45L872.844 937.492L872.831 937.516L872.819 937.54L874.6 938.45ZM892.3 918.65L891.257 916.943L891.246 916.95L891.236 916.957L892.3 918.65ZM956.2 922.25L957.347 920.612L957.34 920.607L956.2 922.25ZM978.7 950.45L976.858 951.23L976.864 951.243L976.87 951.257L978.7 950.45ZM962.8 1064.15L961.843 1065.91L963.441 1066.78L964.458 1065.27L962.8 1064.15ZM930.538 1047.34C932.816 1045.29 935.556 1041.21 938.751 1035.42L935.249 1033.48C932.044 1039.29 929.584 1042.81 927.862 1044.36L930.538 1047.34ZM938.725 1035.46C942.218 1029.5 945.273 1022.36 947.906 1014.05L944.094 1012.85C941.527 1020.94 938.582 1027.8 935.275 1033.44L938.725 1035.46ZM947.888 1014.11C950.763 1005.9 952.2 997.372 952.2 988.55L948.2 988.55C948.2 996.928 946.837 1005 944.112 1012.79L947.888 1014.11ZM952.2 988.55C952.2 977.075 950.18 968.11 945.832 961.969C941.395 955.702 934.733 952.65 926.2 952.65L926.2 956.65C933.667 956.65 939.005 959.248 942.568 964.281C946.22 969.44 948.2 977.425 948.2 988.55L952.2 988.55ZM926.2 952.65C919.952 952.65 914.789 954.608 910.946 958.677L913.854 961.423C916.811 958.292 920.848 956.65 926.2 956.65L926.2 952.65ZM910.946 958.677C907.268 962.571 904.25 968.274 901.803 975.618L905.597 976.882C907.95 969.826 910.732 964.729 913.854 961.423L910.946 958.677ZM901.803 975.618C899.383 982.875 896.771 991.922 893.964 1002.75L897.836 1003.75C900.629 992.978 903.217 984.025 905.597 976.882L901.803 975.618ZM893.963 1002.75C890.386 1016.66 886.224 1028.64 881.49 1038.7L885.11 1040.4C889.976 1030.06 894.214 1017.84 897.837 1003.75L893.963 1002.75ZM881.484 1038.71C876.808 1048.84 870.626 1056.43 862.981 1061.59L865.219 1064.91C873.574 1059.27 880.192 1051.06 885.116 1040.39L881.484 1038.71ZM862.934 1061.63C855.575 1066.91 845.627 1069.65 832.9 1069.65L832.9 1073.65C846.173 1073.65 857.025 1070.79 865.266 1064.87L862.934 1061.63ZM832.9 1069.65C818.025 1069.65 806.198 1066.03 797.237 1058.98L794.763 1062.12C804.601 1069.87 817.374 1073.65 832.9 1073.65L832.9 1069.65ZM797.233 1058.97C788.36 1052.03 781.873 1042.76 777.788 1031.09L774.012 1032.41C778.327 1044.74 785.239 1054.67 794.767 1062.13L797.233 1058.97ZM777.788 1031.09C773.669 1019.32 771.6 1006.55 771.6 992.75L767.6 992.75C767.6 1006.95 769.731 1020.18 774.012 1032.41L777.788 1031.09ZM771.6 992.75C771.6 976.953 773.969 961.249 778.714 945.631L774.886 944.469C770.031 960.451 767.6 976.547 767.6 992.75L771.6 992.75ZM778.705 945.66C783.649 930.235 790.362 916.521 798.835 904.502L795.565 902.198C786.838 914.579 779.951 928.665 774.895 944.44L778.705 945.66ZM796.288 905.13L831.988 923.43L833.812 919.87L798.112 901.57L796.288 905.13ZM831.486 920.236C829.529 922.193 827.034 925.543 824.025 930.157L827.375 932.343C830.366 927.757 832.671 924.707 834.314 923.064L831.486 920.236ZM823.992 930.21C821.138 934.897 818.202 940.573 815.179 947.222L818.821 948.878C821.798 942.327 824.661 936.803 827.408 932.29L823.992 930.21ZM815.159 947.269C812.315 953.972 809.885 961.268 807.863 969.153L811.737 970.147C813.715 962.432 816.085 955.328 818.841 948.831L815.159 947.269ZM807.863 969.153C805.821 977.115 804.8 985.181 804.8 993.35L808.8 993.35C808.8 985.519 809.779 977.786 811.737 970.147L807.863 969.153ZM804.8 993.35C804.8 1004.9 806.637 1013.9 810.591 1020.08C814.642 1026.4 820.782 1029.55 828.7 1029.55L828.7 1025.55C822.018 1025.55 817.208 1023 813.959 1017.92C810.613 1012.7 808.8 1004.6 808.8 993.35L804.8 993.35ZM828.7 1029.55C835.47 1029.55 841.045 1027 845.242 1021.92L842.158 1019.38C838.755 1023.5 834.33 1025.55 828.7 1025.55L828.7 1029.55ZM845.242 1021.92C849.267 1017.05 852.567 1010.28 855.211 1001.74L851.389 1000.56C848.833 1008.82 845.733 1015.05 842.158 1019.38L845.242 1021.92ZM855.206 1001.75C857.813 993.535 860.717 983.919 863.92 972.909L860.08 971.791C856.883 982.781 853.987 992.365 851.393 1000.55L855.206 1001.75ZM863.926 972.888C867.703 959.37 871.86 948.205 876.381 939.36L872.819 937.54C868.14 946.695 863.897 958.13 860.074 971.812L863.926 972.888ZM876.356 939.408C881.027 930.845 886.709 924.526 893.364 920.343L891.236 916.957C883.89 921.574 877.773 928.456 872.844 937.492L876.356 939.408ZM893.343 920.357C900.147 916.198 908.859 914.05 919.6 914.05L919.6 910.05C908.341 910.05 898.853 912.302 891.257 916.943L893.343 920.357ZM919.6 914.05C933.885 914.05 945.663 917.373 955.06 923.893L957.34 920.607C947.137 913.527 934.515 910.05 919.6 910.05L919.6 914.05ZM955.053 923.889C964.73 930.662 971.997 939.758 976.858 951.23L980.541 949.67C975.403 937.542 967.67 927.838 957.347 920.612L955.053 923.889ZM976.87 951.257C981.945 962.774 984.5 975.595 984.5 989.75L988.5 989.75C988.5 975.105 985.855 961.726 980.53 949.644L976.87 951.257ZM984.5 989.75C984.5 1004.33 982.136 1017.89 977.427 1030.45L981.173 1031.85C986.064 1018.81 988.5 1004.77 988.5 989.75L984.5 989.75ZM977.427 1030.45C972.67 1043.13 967.237 1053.99 961.141 1063.03L964.458 1065.27C970.763 1055.91 976.33 1044.77 981.173 1031.85L977.427 1030.45ZM963.757 1062.39L930.157 1044.09L928.243 1047.61L961.843 1065.91L963.757 1062.39Z" fill="white"/>
</svg>
